<svg width="42" height="221" viewBox="0 0 42 221" fill="none" xmlns="http://www.w3.org/2000/svg">
<mask id="path-1-inside-1_1_42" fill="white">
<path d="M20.6426 14.1713C21.0349 13.7883 21.2551 13.2693 21.2551 12.7281C21.2551 12.187 21.0349 11.668 20.6426 11.285L14.5488 5.34746C14.1558 4.96485 13.6229 4.74994 13.0673 4.74994C12.5117 4.74994 11.9788 4.96485 11.5858 5.34746L5.49201 11.285C5.09918 11.6678 4.87853 12.187 4.8786 12.7284C4.87864 12.9965 4.93286 13.2619 5.03817 13.5095C5.14349 13.7572 5.29783 13.9822 5.49239 14.1717C5.68695 14.3612 5.91791 14.5115 6.1721 14.6141C6.42628 14.7166 6.69871 14.7694 6.97382 14.7694C7.52943 14.7693 8.06226 14.5542 8.45509 14.1713L10.9688 11.7184V31.209C10.9688 31.7503 11.1895 32.2694 11.5823 32.6522C11.9751 33.035 12.5079 33.25 13.0635 33.25C13.619 33.25 14.1518 33.035 14.5447 32.6522C14.9375 32.2694 15.1582 31.7503 15.1582 31.209V11.7184L17.6757 14.1713C17.8702 14.361 18.1012 14.5114 18.3554 14.614C18.6096 14.7166 18.8821 14.7695 19.1572 14.7695C19.4324 14.7695 19.7049 14.7166 19.9591 14.614C20.2133 14.5114 20.4443 14.361 20.6388 14.1713H20.6426ZM14.9906 9.98094C14.9107 9.90319 14.809 9.85025 14.6982 9.82882C14.5875 9.80738 14.4727 9.8184 14.3684 9.86049C14.264 9.90258 14.1749 9.97385 14.1121 10.0653C14.0493 10.1568 14.0157 10.2643 14.0156 10.3743V31.209C14.0156 31.455 13.9153 31.691 13.7368 31.865C13.5582 32.039 13.316 32.1367 13.0635 32.1367C12.811 32.1367 12.5688 32.039 12.3902 31.865C12.2117 31.691 12.1113 31.455 12.1113 31.209V10.3743C12.1112 10.2643 12.0777 10.1568 12.0149 10.0653C11.9521 9.97385 11.8629 9.90258 11.7586 9.86049C11.6543 9.8184 11.5395 9.80738 11.4287 9.82882C11.318 9.85025 11.2162 9.90319 11.1363 9.98094L7.6431 13.3846C7.46451 13.5586 7.2223 13.6564 6.96974 13.6564C6.71718 13.6564 6.47497 13.5586 6.29638 13.3846C6.1178 13.2106 6.01747 12.9746 6.01747 12.7285C6.01747 12.4824 6.1178 12.2464 6.29638 12.0724L12.3901 6.13492C12.5689 5.96125 12.811 5.86372 13.0635 5.86372C13.3159 5.86372 13.5581 5.96125 13.7369 6.13492L19.8306 12.0724C19.919 12.1586 19.9892 12.2609 20.037 12.3734C20.0849 12.486 20.1095 12.6067 20.1095 12.7285C20.1095 12.8504 20.0849 12.971 20.037 13.0836C19.9892 13.1962 19.919 13.2985 19.8306 13.3846C19.7422 13.4708 19.6372 13.5391 19.5217 13.5857C19.4061 13.6324 19.2823 13.6564 19.1572 13.6564C19.0322 13.6564 18.9084 13.6324 18.7928 13.5857C18.6773 13.5391 18.5723 13.4708 18.4839 13.3846L14.9906 9.98094ZM33.5156 23.8279C33.1227 23.4454 32.59 23.2305 32.0345 23.2305C31.479 23.2305 30.9462 23.4454 30.5533 23.8279L28.0313 26.2816V6.79102C28.0313 6.24971 27.8106 5.73057 27.4177 5.3478C27.0249 4.96504 26.4921 4.75 25.9365 4.75C25.381 4.75 24.8482 4.96504 24.4553 5.3478C24.0625 5.73057 23.8418 6.24971 23.8418 6.79102V26.2816L21.3281 23.8279C20.9331 23.4552 20.4035 23.2487 19.8536 23.253C19.3037 23.2573 18.7775 23.472 18.3887 23.8509C17.9998 24.2298 17.7794 24.7425 17.775 25.2783C17.7706 25.8141 17.9825 26.3301 18.3651 26.715L24.4588 32.6525C24.8519 33.0352 25.3847 33.2501 25.9403 33.2501C26.4959 33.2501 27.0288 33.0352 27.4219 32.6525L33.5156 26.715C33.9078 26.3318 34.1279 25.8127 34.1279 25.2715C34.1279 24.7303 33.9078 24.2112 33.5156 23.8279ZM32.7075 25.9276L26.6137 31.8651C26.4349 32.0388 26.1928 32.1363 25.9403 32.1363C25.6879 32.1363 25.4458 32.0388 25.267 31.8651L19.1732 25.9276C19.0848 25.8414 19.0147 25.7391 18.9668 25.6266C18.919 25.514 18.8943 25.3933 18.8943 25.2715C18.8943 25.1496 18.919 25.029 18.9668 24.9164C19.0147 24.8038 19.0848 24.7016 19.1732 24.6154C19.2617 24.5292 19.3666 24.4609 19.4822 24.4143C19.5977 24.3676 19.7215 24.3436 19.8466 24.3436C19.9717 24.3436 20.0955 24.3676 20.211 24.4143C20.3266 24.4609 20.4315 24.5292 20.52 24.6154L24.0132 28.0191C24.0931 28.0968 24.1948 28.1497 24.3056 28.1712C24.4163 28.1926 24.5311 28.1816 24.6355 28.1395C24.7398 28.0974 24.829 28.0262 24.8918 27.9347C24.9545 27.8433 24.9881 27.7357 24.9882 27.6257V6.79102C24.9882 6.54497 25.0885 6.30899 25.2671 6.13501C25.4456 5.96103 25.6878 5.86328 25.9403 5.86328C26.1929 5.86328 26.4351 5.96103 26.6136 6.13501C26.7922 6.30899 26.8925 6.54497 26.8925 6.79102V27.6257C26.8926 27.7357 26.9262 27.8433 26.9889 27.9347C27.0517 28.0262 27.1409 28.0974 27.2452 28.1395C27.3496 28.1816 27.4643 28.1926 27.5751 28.1712C27.6859 28.1497 27.7876 28.0968 27.8675 28.0191L31.3607 24.6154C31.5393 24.4414 31.7815 24.3436 32.0341 24.3436C32.2867 24.3436 32.5289 24.4414 32.7075 24.6154C32.886 24.7894 32.9864 25.0254 32.9864 25.2715C32.9864 25.5176 32.886 25.7536 32.7075 25.9276Z"/>
</mask>
<path d="M20.6426 14.1713C21.0349 13.7883 21.2551 13.2693 21.2551 12.7281C21.2551 12.187 21.0349 11.668 20.6426 11.285L14.5488 5.34746C14.1558 4.96485 13.6229 4.74994 13.0673 4.74994C12.5117 4.74994 11.9788 4.96485 11.5858 5.34746L5.49201 11.285C5.09918 11.6678 4.87853 12.187 4.8786 12.7284C4.87864 12.9965 4.93286 13.2619 5.03817 13.5095C5.14349 13.7572 5.29783 13.9822 5.49239 14.1717C5.68695 14.3612 5.91791 14.5115 6.1721 14.6141C6.42628 14.7166 6.69871 14.7694 6.97382 14.7694C7.52943 14.7693 8.06226 14.5542 8.45509 14.1713L10.9688 11.7184V31.209C10.9688 31.7503 11.1895 32.2694 11.5823 32.6522C11.9751 33.035 12.5079 33.25 13.0635 33.25C13.619 33.25 14.1518 33.035 14.5447 32.6522C14.9375 32.2694 15.1582 31.7503 15.1582 31.209V11.7184L17.6757 14.1713C17.8702 14.361 18.1012 14.5114 18.3554 14.614C18.6096 14.7166 18.8821 14.7695 19.1572 14.7695C19.4324 14.7695 19.7049 14.7166 19.9591 14.614C20.2133 14.5114 20.4443 14.361 20.6388 14.1713H20.6426ZM14.9906 9.98094C14.9107 9.90319 14.809 9.85025 14.6982 9.82882C14.5875 9.80738 14.4727 9.8184 14.3684 9.86049C14.264 9.90258 14.1749 9.97385 14.1121 10.0653C14.0493 10.1568 14.0157 10.2643 14.0156 10.3743V31.209C14.0156 31.455 13.9153 31.691 13.7368 31.865C13.5582 32.039 13.316 32.1367 13.0635 32.1367C12.811 32.1367 12.5688 32.039 12.3902 31.865C12.2117 31.691 12.1113 31.455 12.1113 31.209V10.3743C12.1112 10.2643 12.0777 10.1568 12.0149 10.0653C11.9521 9.97385 11.8629 9.90258 11.7586 9.86049C11.6543 9.8184 11.5395 9.80738 11.4287 9.82882C11.318 9.85025 11.2162 9.90319 11.1363 9.98094L7.6431 13.3846C7.46451 13.5586 7.2223 13.6564 6.96974 13.6564C6.71718 13.6564 6.47497 13.5586 6.29638 13.3846C6.1178 13.2106 6.01747 12.9746 6.01747 12.7285C6.01747 12.4824 6.1178 12.2464 6.29638 12.0724L12.3901 6.13492C12.5689 5.96125 12.811 5.86372 13.0635 5.86372C13.3159 5.86372 13.5581 5.96125 13.7369 6.13492L19.8306 12.0724C19.919 12.1586 19.9892 12.2609 20.037 12.3734C20.0849 12.486 20.1095 12.6067 20.1095 12.7285C20.1095 12.8504 20.0849 12.971 20.037 13.0836C19.9892 13.1962 19.919 13.2985 19.8306 13.3846C19.7422 13.4708 19.6372 13.5391 19.5217 13.5857C19.4061 13.6324 19.2823 13.6564 19.1572 13.6564C19.0322 13.6564 18.9084 13.6324 18.7928 13.5857C18.6773 13.5391 18.5723 13.4708 18.4839 13.3846L14.9906 9.98094ZM33.5156 23.8279C33.1227 23.4454 32.59 23.2305 32.0345 23.2305C31.479 23.2305 30.9462 23.4454 30.5533 23.8279L28.0313 26.2816V6.79102C28.0313 6.24971 27.8106 5.73057 27.4177 5.3478C27.0249 4.96504 26.4921 4.75 25.9365 4.75C25.381 4.75 24.8482 4.96504 24.4553 5.3478C24.0625 5.73057 23.8418 6.24971 23.8418 6.79102V26.2816L21.3281 23.8279C20.9331 23.4552 20.4035 23.2487 19.8536 23.253C19.3037 23.2573 18.7775 23.472 18.3887 23.8509C17.9998 24.2298 17.7794 24.7425 17.775 25.2783C17.7706 25.8141 17.9825 26.3301 18.3651 26.715L24.4588 32.6525C24.8519 33.0352 25.3847 33.2501 25.9403 33.2501C26.4959 33.2501 27.0288 33.0352 27.4219 32.6525L33.5156 26.715C33.9078 26.3318 34.1279 25.8127 34.1279 25.2715C34.1279 24.7303 33.9078 24.2112 33.5156 23.8279ZM32.7075 25.9276L26.6137 31.8651C26.4349 32.0388 26.1928 32.1363 25.9403 32.1363C25.6879 32.1363 25.4458 32.0388 25.267 31.8651L19.1732 25.9276C19.0848 25.8414 19.0147 25.7391 18.9668 25.6266C18.919 25.514 18.8943 25.3933 18.8943 25.2715C18.8943 25.1496 18.919 25.029 18.9668 24.9164C19.0147 24.8038 19.0848 24.7016 19.1732 24.6154C19.2617 24.5292 19.3666 24.4609 19.4822 24.4143C19.5977 24.3676 19.7215 24.3436 19.8466 24.3436C19.9717 24.3436 20.0955 24.3676 20.211 24.4143C20.3266 24.4609 20.4315 24.5292 20.52 24.6154L24.0132 28.0191C24.0931 28.0968 24.1948 28.1497 24.3056 28.1712C24.4163 28.1926 24.5311 28.1816 24.6355 28.1395C24.7398 28.0974 24.829 28.0262 24.8918 27.9347C24.9545 27.8433 24.9881 27.7357 24.9882 27.6257V6.79102C24.9882 6.54497 25.0885 6.30899 25.2671 6.13501C25.4456 5.96103 25.6878 5.86328 25.9403 5.86328C26.1929 5.86328 26.4351 5.96103 26.6136 6.13501C26.7922 6.30899 26.8925 6.54497 26.8925 6.79102V27.6257C26.8926 27.7357 26.9262 27.8433 26.9889 27.9347C27.0517 28.0262 27.1409 28.0974 27.2452 28.1395C27.3496 28.1816 27.4643 28.1926 27.5751 28.1712C27.6859 28.1497 27.7876 28.0968 27.8675 28.0191L31.3607 24.6154C31.5393 24.4414 31.7815 24.3436 32.0341 24.3436C32.2867 24.3436 32.5289 24.4414 32.7075 24.6154C32.886 24.7894 32.9864 25.0254 32.9864 25.2715C32.9864 25.5176 32.886 25.7536 32.7075 25.9276Z" fill="#7E3BAB" stroke="#7E3BAB" stroke-width="3" mask="url(#path-1-inside-1_1_42)"/>
<path d="M22.0413 130.344H24.9076C25.227 130.344 25.4857 130.086 25.4857 129.766C25.4857 129.447 25.227 129.188 24.9076 129.188H22.0413C21.7219 129.188 21.4631 129.447 21.4631 129.766C21.4631 130.086 21.7219 130.344 22.0413 130.344Z" fill="#7E3BAB"/>
<path d="M40.0735 149.975H36.7883V147.246C36.7883 146.799 36.4259 146.437 35.9789 146.437H24.3094V144.517H29.704H32.9387C33.3857 144.517 33.7481 144.154 33.7481 143.707V130.502C33.7481 130.188 33.5672 129.903 33.2835 129.77L23.845 125.323C23.6265 125.22 23.3735 125.22 23.1552 125.323L13.7165 129.77C13.433 129.903 13.2521 130.188 13.2521 130.502V143.707C13.2521 144.154 13.6145 144.517 14.0615 144.517H17.2962H22.6906V146.437H11.0067C10.5597 146.437 10.1973 146.799 10.1973 147.246V149.975H6.92653C6.47953 149.975 6.11716 150.338 6.11716 150.785V158.945C6.11716 159.392 6.47953 159.754 6.92653 159.754H15.0867C15.5337 159.754 15.896 159.392 15.896 158.945V150.785C15.896 150.338 15.5337 149.975 15.0867 149.975H11.8161V148.055H22.6906V149.975H19.42C18.973 149.975 18.6107 150.338 18.6107 150.785V158.945C18.6107 159.392 18.973 159.754 19.42 159.754H27.5802C28.0272 159.754 28.3895 159.392 28.3895 158.945V150.785C28.3895 150.338 28.0272 149.975 27.5802 149.975H24.3094V148.055H35.1693V149.975H31.9133C31.4663 149.975 31.104 150.338 31.104 150.785V158.945C31.104 159.392 31.4663 159.754 31.9133 159.754H40.0732C40.5202 159.754 40.8826 159.392 40.8826 158.945V150.785C40.8828 150.338 40.5202 149.975 40.0735 149.975ZM28.8946 133.879H18.1056V133.101H28.8946V133.879ZM14.8709 131.015L23.5 126.95L32.1293 131.015V142.898H30.5133V134.688V132.292C30.5133 131.845 30.151 131.483 29.704 131.483H17.2962C16.8492 131.483 16.4869 131.845 16.4869 132.292V134.688V142.898H14.8709V131.015ZM18.1056 135.497H28.8946V142.898H18.1056V135.497ZM10.1892 151.594H11.7953V152.969H10.1892V151.594ZM14.2773 158.135H7.73591V151.594H9.03276V153.547C9.03276 153.866 9.29153 154.125 9.61088 154.125H12.3732C12.6925 154.125 12.9513 153.866 12.9513 153.547V151.594H14.277L14.2773 158.135ZM22.6825 151.594H24.2886V152.969H22.6825V151.594ZM26.7706 158.135H20.2294V151.594H21.5263V153.547C21.5263 153.866 21.785 154.125 22.1044 154.125H24.8667C25.186 154.125 25.4448 153.866 25.4448 153.547V151.594H26.7706V158.135ZM35.1758 151.594H36.7821V152.969H35.1758V151.594ZM39.2641 158.135H32.7229V151.594H34.0196V153.547C34.0196 153.866 34.2783 154.125 34.5977 154.125H37.3602C37.6795 154.125 37.9383 153.866 37.9383 153.547V151.594H39.2638V158.135H39.2641Z" fill="#7E3BAB"/>
<path d="M18.5561 69.793H28.3307C28.7734 69.7926 29.198 69.6165 29.511 69.3034C29.8241 68.9903 30.0002 68.5658 30.0006 68.123V67.0098C30.0002 66.567 29.8241 66.1425 29.511 65.8294C29.198 65.5163 28.7734 65.3402 28.3307 65.3398H18.5561C18.1133 65.3402 17.6888 65.5163 17.3757 65.8294C17.0626 66.1425 16.8865 66.567 16.8861 67.0098V68.123C16.8865 68.5658 17.0626 68.9903 17.3757 69.3034C17.6888 69.6165 18.1133 69.7926 18.5561 69.793ZM17.9994 67.0098C17.9994 66.8621 18.0581 66.7206 18.1625 66.6162C18.2668 66.5118 18.4084 66.4531 18.5561 66.4531H28.3307C28.4783 66.4531 28.6199 66.5118 28.7243 66.6162C28.8287 66.7206 28.8873 66.8621 28.8873 67.0098V68.123C28.8873 68.2707 28.8287 68.4123 28.7243 68.5167C28.6199 68.621 28.4783 68.6797 28.3307 68.6797H18.5561C18.4084 68.6797 18.2668 68.621 18.1625 68.5167C18.0581 68.4123 17.9994 68.2707 17.9994 68.123V67.0098ZM33.4258 88.7329H30.1602C30.0125 88.7329 29.8709 88.7915 29.7666 88.8959C29.6622 89.0003 29.6035 89.1419 29.6035 89.2895C29.6035 89.4371 29.6622 89.5787 29.7666 89.6831C29.8709 89.7875 30.0125 89.8461 30.1602 89.8461H33.4258C33.5734 89.8461 33.715 89.7875 33.8194 89.6831C33.9238 89.5787 33.9824 89.4371 33.9824 89.2895C33.9824 89.1419 33.9238 89.0003 33.8194 88.8959C33.715 88.7915 33.5734 88.7329 33.4258 88.7329ZM29.6035 72.5903C29.6035 72.7379 29.6622 72.8795 29.7666 72.9839C29.8709 73.0883 30.0125 73.1469 30.1602 73.1469H33.4258C33.5734 73.1469 33.715 73.0883 33.8194 72.9839C33.9238 72.8795 33.9824 72.7379 33.9824 72.5903C33.9824 72.4426 33.9238 72.3011 33.8194 72.1967C33.715 72.0923 33.5734 72.0336 33.4258 72.0336H30.1602C30.0125 72.0336 29.8709 72.0923 29.7666 72.1967C29.6622 72.3011 29.6035 72.4426 29.6035 72.5903ZM24.5789 86.0187C24.6911 86.0194 24.8009 85.9863 24.894 85.9235C24.987 85.8608 25.0589 85.7714 25.1002 85.6671C25.1415 85.5627 25.1504 85.4484 25.1256 85.3389C25.1007 85.2295 25.0434 85.1301 24.9611 85.0538L22.627 82.8555H22.7754C23.3167 82.8581 23.8433 82.6797 24.2715 82.3486C24.6997 82.0175 25.0049 81.5527 25.1385 81.0282H25.658C25.8057 81.0282 25.9473 80.9696 26.0517 80.8652C26.156 80.7608 26.2147 80.6192 26.2147 80.4716C26.2147 80.3239 26.156 80.1823 26.0517 80.078C25.9473 79.9736 25.8057 79.9149 25.658 79.9149H25.1385C25.0759 79.6613 24.9719 79.4198 24.8305 79.2002H25.6588C25.8064 79.2002 25.948 79.1415 26.0524 79.0372C26.1568 78.9328 26.2154 78.7912 26.2154 78.6436C26.2154 78.4959 26.1568 78.3543 26.0524 78.25C25.948 78.1456 25.8064 78.0869 25.6588 78.0869H21.2264C21.0788 78.0869 20.9372 78.1456 20.8328 78.25C20.7285 78.3543 20.6698 78.4959 20.6698 78.6436C20.6698 78.7912 20.7285 78.9328 20.8328 79.0372C20.9372 79.1415 21.0788 79.2002 21.2264 79.2002H22.7754C23.0201 79.1979 23.2606 79.2635 23.4702 79.3897C23.6798 79.5158 23.8504 79.6977 23.9629 79.9149H21.2264C21.0788 79.9149 20.9372 79.9736 20.8328 80.078C20.7285 80.1823 20.6698 80.3239 20.6698 80.4716C20.6698 80.6192 20.7285 80.7608 20.8328 80.8652C20.9372 80.9696 21.0788 81.0282 21.2264 81.0282H23.9629C23.8502 81.2453 23.6796 81.4269 23.47 81.5529C23.2604 81.679 23.02 81.7445 22.7754 81.7422H21.2168H21.1841H21.1611L21.1314 81.7466L21.107 81.7511L21.0795 81.7578L21.0543 81.7652L21.0275 81.7748L21.0038 81.7837L20.9771 81.7971L20.9555 81.8075L20.9303 81.8231C20.9231 81.8271 20.9162 81.8316 20.9095 81.8364L20.8873 81.8528L20.8657 81.8698C20.8592 81.8751 20.853 81.8808 20.8472 81.8869L20.8249 81.9077C20.8233 81.9098 20.8213 81.9116 20.819 81.9129L20.8086 81.9263L20.7886 81.9493L20.773 81.97L20.7566 81.993L20.7433 82.0161C20.7383 82.0239 20.7338 82.0321 20.7299 82.0405C20.7255 82.0487 20.7218 82.0569 20.718 82.065L20.7069 82.0895L20.698 82.1148C20.698 82.1237 20.6921 82.1326 20.6898 82.1415C20.6868 82.1499 20.6846 82.1586 20.6832 82.1675C20.6832 82.1764 20.6787 82.1853 20.6772 82.1942L20.6728 82.2224C20.6728 82.2305 20.6728 82.2387 20.6728 82.2476C20.6728 82.2565 20.6728 82.2684 20.6728 82.2788C20.6728 82.2892 20.6728 82.2892 20.6728 82.2951C20.6724 82.2976 20.6724 82.3001 20.6728 82.3025C20.6728 82.3129 20.6728 82.3233 20.6728 82.3337C20.6728 82.3441 20.6728 82.35 20.6728 82.3582L20.6772 82.3857L20.6817 82.4131L20.6884 82.4369C20.6884 82.4465 20.6928 82.4562 20.6958 82.4651C20.6983 82.4732 20.7013 82.4811 20.7047 82.4888C20.7047 82.4977 20.7106 82.5066 20.7143 82.5155L20.7262 82.5393L20.7381 82.5638C20.7425 82.572 20.7477 82.5794 20.7522 82.5868L20.767 82.6105C20.7715 82.6172 20.7774 82.6239 20.7826 82.6306L20.8004 82.6543L20.816 82.6714L20.839 82.6952L20.8435 82.7004L24.1959 85.8628C24.2987 85.9622 24.4359 86.018 24.5789 86.0187ZM12.3477 92.0727H22.293C22.4406 92.0727 22.5822 92.014 22.6866 91.9097C22.791 91.8053 22.8496 91.6637 22.8496 91.5161C22.8496 91.3684 22.791 91.2268 22.6866 91.1224C22.5822 91.0181 22.4406 90.9594 22.293 90.9594H12.3477C12.2 90.9594 12.0584 91.0181 11.9541 91.1224C11.8497 91.2268 11.791 91.3684 11.791 91.5161C11.791 91.6637 11.8497 91.8053 11.9541 91.9097C12.0584 92.014 12.2 92.0727 12.3477 92.0727ZM12.3477 73.1469H26.7461C26.8937 73.1469 27.0353 73.0883 27.1397 72.9839C27.2441 72.8795 27.3027 72.7379 27.3027 72.5903C27.3027 72.4426 27.2441 72.3011 27.1397 72.1967C27.0353 72.0923 26.8937 72.0336 26.7461 72.0336H12.3477C12.2 72.0336 12.0584 72.0923 11.9541 72.1967C11.8497 72.3011 11.791 72.4426 11.791 72.5903C11.791 72.7379 11.8497 72.8795 11.9541 72.9839C12.0584 73.0883 12.2 73.1469 12.3477 73.1469ZM39.1488 62H11.2344C10.4965 62.0008 9.789 62.2943 9.26722 62.816C8.74544 63.3378 8.45196 64.0453 8.45117 64.7832V94.2688H5.55664C5.40901 94.2688 5.26743 94.3275 5.16304 94.4319C5.05865 94.5363 5 94.6778 5 94.8255V97.2621C5.00079 97.988 5.2895 98.6839 5.80279 99.1972C6.31608 99.7105 7.01203 99.9992 7.73793 100H34.6422C34.6703 99.9996 34.6983 99.9974 34.7261 99.9933C35.4302 99.9454 36.0898 99.6322 36.5719 99.1168C37.0541 98.6015 37.3227 97.9225 37.3237 97.2168V67.7312H41.3316C41.4792 67.7312 41.6208 67.6725 41.7252 67.5681C41.8296 67.4637 41.8882 67.3222 41.8882 67.1745V64.7379C41.8874 64.0118 41.5985 63.3156 41.0849 62.8023C40.5713 62.2889 39.8749 62.0004 39.1488 62ZM7.73793 98.8867C7.30723 98.8861 6.89433 98.7148 6.58978 98.4102C6.28523 98.1057 6.11387 97.6928 6.11328 97.2621V95.3821H31.7188V97.2621C31.7181 97.847 31.9057 98.4167 32.2539 98.8867H7.73793ZM36.209 64.8389V97.2168C36.2086 97.6596 36.0325 98.0841 35.7194 98.3972C35.4064 98.7103 34.9818 98.8863 34.5391 98.8867H34.4567C34.026 98.8861 33.6131 98.7148 33.3085 98.4102C33.004 98.1057 32.8326 97.6928 32.832 97.2621V94.8255C32.832 94.6778 32.7734 94.5363 32.669 94.4319C32.5646 94.3275 32.423 94.2688 32.2754 94.2688H9.56445V64.7832C9.56485 64.3404 9.74091 63.9159 10.054 63.6028C10.3671 63.2897 10.7916 63.1137 11.2344 63.1133H36.7961C36.4148 63.6076 36.2083 64.2145 36.209 64.8389ZM40.7734 66.6201H37.3223V64.8389C37.3229 64.3814 37.5048 63.9428 37.8283 63.6193C38.1518 63.2959 38.5904 63.1139 39.0479 63.1133H39.1488C39.5795 63.1139 39.9924 63.2852 40.2969 63.5898C40.6015 63.8943 40.7728 64.3072 40.7734 64.7379V66.6201ZM11.791 89.2895C11.791 89.4371 11.8497 89.5787 11.9541 89.6831C12.0584 89.7875 12.2 89.8461 12.3477 89.8461H23.4434C25.1222 89.8452 26.756 89.3032 28.1026 88.3005C29.4491 87.2978 30.4366 85.8879 30.9187 84.2797H33.4258C33.5734 84.2797 33.715 84.2211 33.8194 84.1167C33.9238 84.0123 33.9824 83.8707 33.9824 83.7231C33.9824 83.5755 33.9238 83.4339 33.8194 83.3295C33.715 83.2251 33.5734 83.1664 33.4258 83.1664H31.1621C31.2145 82.7977 31.2408 82.4256 31.2408 82.0532C31.2431 80.8982 30.9878 79.7572 30.4934 78.7133H33.4258C33.5734 78.7133 33.715 78.6547 33.8194 78.5503C33.9238 78.4459 33.9824 78.3043 33.9824 78.1567C33.9824 78.009 33.9238 77.8675 33.8194 77.7631C33.715 77.6587 33.5734 77.6 33.4258 77.6H29.844C29.1242 76.5698 28.1666 75.7283 27.0524 75.1469C25.9381 74.5655 24.7001 74.2613 23.4434 74.2602H12.3477C12.2 74.2602 12.0584 74.3188 11.9541 74.4232C11.8497 74.5276 11.791 74.6692 11.791 74.8168C11.791 74.9645 11.8497 75.106 11.9541 75.2104C12.0584 75.3148 12.2 75.3735 12.3477 75.3735H19.4214C18.4825 75.9424 17.6724 76.7007 17.0427 77.6H12.3477C12.2 77.6 12.0584 77.6587 11.9541 77.7631C11.8497 77.8675 11.791 78.009 11.791 78.1567C11.791 78.3043 11.8497 78.4459 11.9541 78.5503C12.0584 78.6547 12.2 78.7133 12.3477 78.7133H16.3926C16.222 79.0729 16.0796 79.4451 15.9666 79.8266H12.3477C12.2 79.8266 12.0584 79.8852 11.9541 79.9896C11.8497 80.094 11.791 80.2356 11.791 80.3832C11.791 80.5309 11.8497 80.6725 11.9541 80.7768C12.0584 80.8812 12.2 80.9399 12.3477 80.9399H15.7246C15.6197 81.6784 15.6197 82.428 15.7246 83.1664H12.3477C12.2 83.1664 12.0584 83.2251 11.9541 83.3295C11.8497 83.4339 11.791 83.5755 11.791 83.7231C11.791 83.8707 11.8497 84.0123 11.9541 84.1167C12.0584 84.2211 12.2 84.2797 12.3477 84.2797H15.968C16.0813 84.6612 16.2238 85.0334 16.3941 85.393H12.3477C12.2 85.393 12.0584 85.4517 11.9541 85.556C11.8497 85.6604 11.791 85.802 11.791 85.9496C11.791 86.0973 11.8497 86.2389 11.9541 86.3433C12.0584 86.4476 12.2 86.5063 12.3477 86.5063H17.0427C17.6729 87.4054 18.4832 88.1637 19.4222 88.7329H12.3477C12.2 88.7329 12.0584 88.7915 11.9541 88.8959C11.8497 89.0003 11.791 89.1419 11.791 89.2895ZM18.7171 86.7757C17.6233 85.6823 16.9425 84.2434 16.7906 82.7042C16.6388 81.1651 17.0254 79.6209 17.8845 78.3348C18.7435 77.0487 20.022 76.1003 21.502 75.6512C22.982 75.202 24.5719 75.28 26.0008 75.8717C27.4298 76.4634 28.6093 77.5323 29.3385 78.8963C30.0677 80.2602 30.3014 81.8348 29.9997 83.3517C29.6981 84.8687 28.8798 86.2341 27.6843 87.2153C26.4888 88.1965 24.99 88.7328 23.4434 88.7329C22.5652 88.7358 21.6953 88.5643 20.8839 88.2283C20.0726 87.8924 19.3361 87.3986 18.7171 86.7757Z" fill="#7E3BAB"/>
<path d="M37.0938 214.094H9.78125C9.30899 214.094 8.85622 214.282 8.52229 214.616C8.18835 214.95 8.00052 215.403 8 215.875V218.844C8.00052 219.316 8.18835 219.769 8.52229 220.103C8.85622 220.437 9.30899 220.624 9.78125 220.625H37.0938C37.566 220.624 38.0188 220.437 38.3527 220.103C38.6867 219.769 38.8745 219.316 38.875 218.844V215.875C38.8745 215.403 38.6867 214.95 38.3527 214.616C38.0188 214.282 37.566 214.094 37.0938 214.094ZM37.6875 218.844C37.6873 219.001 37.6247 219.152 37.5134 219.263C37.4021 219.375 37.2512 219.437 37.0938 219.438H9.78125C9.62383 219.437 9.47289 219.375 9.36158 219.263C9.25026 219.152 9.18766 219.001 9.1875 218.844V215.875C9.18766 215.718 9.25026 215.567 9.36158 215.455C9.47289 215.344 9.62383 215.281 9.78125 215.281H37.0938C37.2512 215.281 37.4021 215.344 37.5134 215.455C37.6247 215.567 37.6873 215.718 37.6875 215.875V218.844ZM37.0938 202.219H9.78125C9.30899 202.219 8.85622 202.407 8.52229 202.741C8.18835 203.075 8.00052 203.528 8 204V210.531C8.00052 211.004 8.18835 211.456 8.52229 211.79C8.85622 212.124 9.30899 212.312 9.78125 212.312H37.0938C37.566 212.312 38.0188 212.124 38.3527 211.79C38.6867 211.456 38.8745 211.004 38.875 210.531V204C38.8745 203.528 38.6867 203.075 38.3527 202.741C38.0188 202.407 37.566 202.219 37.0938 202.219ZM37.6875 210.531C37.6873 210.689 37.6247 210.84 37.5134 210.951C37.4021 211.062 37.2512 211.125 37.0938 211.125H9.78125C9.62383 211.125 9.47289 211.062 9.36158 210.951C9.25026 210.84 9.18766 210.689 9.1875 210.531V204C9.18766 203.843 9.25026 203.692 9.36158 203.58C9.47289 203.469 9.62383 203.406 9.78125 203.406H37.0938C37.2512 203.406 37.4021 203.469 37.5134 203.58C37.6247 203.692 37.6873 203.843 37.6875 204V210.531ZM37.0938 185H9.78125C9.30899 185.001 8.85622 185.188 8.52229 185.522C8.18835 185.856 8.00052 186.309 8 186.781V198.656C8.00052 199.129 8.18835 199.581 8.52229 199.915C8.85622 200.249 9.30899 200.437 9.78125 200.438H37.0938C37.566 200.437 38.0188 200.249 38.3527 199.915C38.6867 199.581 38.8745 199.129 38.875 198.656V186.781C38.8745 186.309 38.6867 185.856 38.3527 185.522C38.0188 185.188 37.566 185.001 37.0938 185ZM37.6875 198.656C37.6873 198.814 37.6247 198.965 37.5134 199.076C37.4021 199.187 37.2512 199.25 37.0938 199.25H9.78125C9.62383 199.25 9.47289 199.187 9.36158 199.076C9.25026 198.965 9.18766 198.814 9.1875 198.656V186.781C9.18766 186.624 9.25026 186.473 9.36158 186.362C9.47289 186.25 9.62383 186.188 9.78125 186.188H37.0938C37.2512 186.188 37.4021 186.25 37.5134 186.362C37.6247 186.473 37.6873 186.624 37.6875 186.781V198.656Z" fill="#7E3BAB"/>
<path d="M25.7406 188.936L21.9531 192.723L21.1344 191.905C20.7989 191.578 20.3482 191.397 19.88 191.4C19.4117 191.403 18.9636 191.59 18.6325 191.922C18.3014 192.253 18.114 192.701 18.1108 193.169C18.1077 193.637 18.2891 194.088 18.6157 194.424L20.6937 196.502C21.0288 196.834 21.4814 197.02 21.9531 197.02C22.4249 197.02 22.8775 196.834 23.2125 196.502L28.2594 191.455C28.5874 191.119 28.77 190.668 28.7674 190.199C28.7648 189.73 28.5774 189.281 28.2457 188.95C27.9141 188.618 27.465 188.43 26.996 188.428C26.527 188.425 26.0759 188.608 25.7406 188.936ZM27.4198 190.615L22.3729 195.662C22.2597 195.77 22.1094 195.83 21.9531 195.83C21.7968 195.83 21.6465 195.77 21.5333 195.662L19.4552 193.584C19.345 193.472 19.2835 193.322 19.284 193.165C19.2844 193.008 19.347 192.858 19.4578 192.747C19.5687 192.636 19.719 192.574 19.8758 192.573C20.0326 192.573 20.1832 192.634 20.2948 192.744L21.5334 193.983C21.5885 194.038 21.6539 194.082 21.7259 194.112C21.798 194.141 21.8752 194.157 21.9532 194.157C22.0311 194.157 22.1083 194.141 22.1804 194.112C22.2524 194.082 22.3178 194.038 22.373 193.983L26.5802 189.776C26.6924 189.668 26.8421 189.609 26.9973 189.611C27.1525 189.612 27.3009 189.675 27.4107 189.785C27.5204 189.894 27.5829 190.043 27.5846 190.198C27.5863 190.353 27.5271 190.503 27.4198 190.615Z" fill="#7E3BAB"/>
</svg>
