<svg width="24" height="24" viewBox="0 0 24 24" fill="none" xmlns="http://www.w3.org/2000/svg">
<path d="M18.5573 10.5415C18.0557 10.5415 17.659 10.1332 17.659 9.6432C17.659 9.21154 17.2273 8.3132 16.504 7.53154C15.7923 6.7732 15.0107 6.32987 14.3573 6.32987C13.8557 6.32987 13.459 5.92154 13.459 5.43154C13.459 4.94154 13.8673 4.5332 14.3573 4.5332C15.524 4.5332 16.749 5.1632 17.8223 6.29487C18.8257 7.35654 19.4673 8.67487 19.4673 9.63154C19.4673 10.1332 19.059 10.5415 18.5573 10.5415Z" fill="white"/>
<path d="M22.7671 10.5418C22.2654 10.5418 21.8687 10.1335 21.8687 9.6435C21.8687 5.50183 18.4971 2.14183 14.3671 2.14183C13.8654 2.14183 13.4688 1.7335 13.4688 1.2435C13.4688 0.753496 13.8654 0.333496 14.3554 0.333496C19.4888 0.333496 23.6654 4.51016 23.6654 9.6435C23.6654 10.1335 23.2571 10.5418 22.7671 10.5418Z" fill="white"/>
<path opacity="0.4" d="M11.7557 14.5785L7.94065 18.3935C7.52065 18.0202 7.11232 17.6352 6.71565 17.2385C5.51398 16.0252 4.42898 14.7535 3.46065 13.4235C2.50398 12.0935 1.73398 10.7635 1.17398 9.44516C0.613984 8.11516 0.333984 6.8435 0.333984 5.63016C0.333984 4.83683 0.473984 4.0785 0.753984 3.3785C1.03398 2.66683 1.47732 2.0135 2.09565 1.43016C2.84232 0.695163 3.65898 0.333496 4.52232 0.333496C4.84898 0.333496 5.17565 0.403496 5.46732 0.543496C5.77065 0.683496 6.03898 0.893496 6.24898 1.19683L8.95565 5.01183C9.16565 5.3035 9.31732 5.57183 9.42232 5.8285C9.52732 6.0735 9.58565 6.3185 9.58565 6.54016C9.58565 6.82016 9.50398 7.10016 9.34065 7.3685C9.18898 7.63683 8.96732 7.91683 8.68732 8.19683L7.80065 9.1185C7.67232 9.24683 7.61398 9.3985 7.61398 9.58516C7.61398 9.6785 7.62565 9.76016 7.64898 9.8535C7.68398 9.94683 7.71898 10.0168 7.74232 10.0868C7.95232 10.4718 8.31398 10.9735 8.82732 11.5802C9.35232 12.1868 9.91232 12.8052 10.519 13.4235C10.939 13.8318 11.3473 14.2285 11.7557 14.5785Z" fill="white"/>
<path d="M23.6309 19.3849C23.6309 19.7115 23.5726 20.0499 23.4559 20.3766C23.4209 20.4699 23.3859 20.5632 23.3392 20.6566C23.1409 21.0766 22.8842 21.4732 22.5459 21.8466C21.9742 22.4766 21.3442 22.9316 20.6326 23.2232C20.6209 23.2232 20.6092 23.2349 20.5976 23.2349C19.9092 23.5149 19.1626 23.6666 18.3576 23.6666C17.1676 23.6666 15.8959 23.3866 14.5542 22.8149C13.2126 22.2432 11.8709 21.4732 10.5409 20.5049C10.0859 20.1666 9.63089 19.8282 9.19922 19.4665L13.0142 15.6515C13.3409 15.8965 13.6326 16.0832 13.8776 16.2115C13.9359 16.2349 14.0059 16.2699 14.0876 16.3049C14.1809 16.3399 14.2742 16.3515 14.3792 16.3515C14.5776 16.3515 14.7292 16.2816 14.8576 16.1532L15.7442 15.2782C16.0359 14.9866 16.3159 14.7649 16.5842 14.6249C16.8526 14.4615 17.1209 14.3799 17.4126 14.3799C17.6342 14.3799 17.8676 14.4265 18.1242 14.5315C18.3809 14.6365 18.6492 14.7882 18.9409 14.9866L22.8026 17.7282C23.1059 17.9382 23.3159 18.1832 23.4442 18.4749C23.5609 18.7665 23.6309 19.0582 23.6309 19.3849Z" fill="white"/>
</svg>
