<svg width="209" height="210" viewBox="0 0 209 210" fill="none" xmlns="http://www.w3.org/2000/svg">
<g filter="url(#filter0_d_2_96)">
<path d="M148.237 100.382C148.237 124.471 128.708 144 104.618 144C80.5286 144 61 124.471 61 100.382C61 76.2918 80.5286 56.7632 104.618 56.7632C128.708 56.7632 148.237 76.2918 148.237 100.382ZM80.6283 100.382C80.6283 113.631 91.369 124.372 104.618 124.372C117.868 124.372 128.609 113.631 128.609 100.382C128.609 87.1322 117.868 76.3915 104.618 76.3915C91.369 76.3915 80.6283 87.1322 80.6283 100.382Z" fill="#7E3BAB"/>
<path d="M104.618 56.7632C112.056 56.7632 119.369 58.6648 125.864 62.2872C132.359 65.9097 137.821 71.1328 141.729 77.4603C145.637 83.7877 147.862 91.0093 148.194 98.439C148.525 105.869 146.951 113.26 143.621 119.91L126.07 111.122C127.901 107.465 128.767 103.4 128.585 99.3132C128.403 95.2268 127.179 91.2549 125.029 87.7749C122.88 84.2948 119.876 81.4221 116.304 79.4297C112.731 77.4373 108.709 76.3915 104.618 76.3915L104.618 56.7632Z" fill="#F6C743"/>
</g>
<defs>
<filter id="filter0_d_2_96" x="0.369999" y="0.633183" width="208.497" height="208.497" filterUnits="userSpaceOnUse" color-interpolation-filters="sRGB">
<feFlood flood-opacity="0" result="BackgroundImageFix"/>
<feColorMatrix in="SourceAlpha" type="matrix" values="0 0 0 0 0 0 0 0 0 0 0 0 0 0 0 0 0 0 127 0" result="hardAlpha"/>
<feOffset dy="4.5"/>
<feGaussianBlur stdDeviation="30.315"/>
<feComposite in2="hardAlpha" operator="out"/>
<feColorMatrix type="matrix" values="0 0 0 0 0 0 0 0 0 0 0 0 0 0 0 0 0 0 0.15 0"/>
<feBlend mode="normal" in2="BackgroundImageFix" result="effect1_dropShadow_2_96"/>
<feBlend mode="normal" in="SourceGraphic" in2="effect1_dropShadow_2_96" result="shape"/>
</filter>
</defs>
</svg>
