<svg version="1.2" xmlns="http://www.w3.org/2000/svg" viewBox="0 0 130 130" width="130" height="130"><defs><linearGradient id="P" gradientUnits="userSpaceOnUse"/><radialGradient id="g1" cx="34.5" cy="140" r="128.8" href="#P"><stop stop-color="#fd5"/><stop offset=".1" stop-color="#fd5"/><stop offset=".5" stop-color="#ff543e"/><stop offset="1" stop-color="#c837ab"/></radialGradient><radialGradient id="g2" cx="-21.8" cy="9.4" r="57.6" href="#P"><stop stop-color="#3771c8"/><stop offset=".1" stop-color="#3771c8"/><stop offset="1" stop-color="#60f" stop-opacity="0"/></radialGradient></defs><style>.a{fill:url(#g1)}.b{fill:url(#g2)}.c{fill:#fff}</style><path class="a" d="m65 0c-27.1 0-35 0-36.6 0.2-5.6 0.4-9 1.3-12.8 3.2-2.9 1.4-5.2 3.1-7.5 5.4q-6.2 6.5-7.5 15.9c-0.4 3-0.6 3.6-0.6 19.1 0 5.2 0 12 0 21.2 0 27.1 0 35 0.2 36.6 0.4 5.4 1.3 8.8 3.1 12.5 3.4 7.2 10 12.5 17.7 14.5 2.7 0.7 5.7 1.1 9.5 1.3 1.6 0 18 0.1 34.4 0.1 16.4 0 32.8 0 34.4-0.1 4.4-0.2 7-0.6 9.8-1.3q2.9-0.7 5.5-2.1 2.7-1.3 5-3.2 2.3-1.9 4.1-4.2 1.8-2.3 3.1-5c1.8-3.7 2.7-7.2 3.1-12.3 0.1-1.2 0.1-19 0.1-36.8 0-17.9 0-35.7-0.1-36.8-0.4-5.2-1.3-8.8-3.1-12.5-1.5-3-3.2-5.3-5.6-7.6q-6.4-6.2-15.8-7.5c-3.1-0.4-3.7-0.6-19.2-0.6z"/><path class="b" d="m65 0c-27.1 0-35 0-36.6 0.2-5.6 0.4-9 1.3-12.8 3.2-2.9 1.4-5.2 3.1-7.5 5.4q-6.2 6.5-7.5 15.9c-0.4 3-0.6 3.6-0.6 19.1 0 5.2 0 12 0 21.2 0 27.1 0 35 0.2 36.6 0.4 5.4 1.3 8.8 3.1 12.5 3.4 7.2 10 12.5 17.7 14.5 2.7 0.7 5.7 1.1 9.5 1.3 1.6 0 18 0.1 34.4 0.1 16.4 0 32.8 0 34.4-0.1 4.4-0.2 7-0.6 9.8-1.3q2.9-0.7 5.5-2.1 2.7-1.3 5-3.2 2.3-1.9 4.1-4.2 1.8-2.3 3.1-5c1.8-3.7 2.7-7.2 3.1-12.3 0.1-1.2 0.1-19 0.1-36.8 0-17.9 0-35.7-0.1-36.8-0.4-5.2-1.3-8.8-3.1-12.5-1.5-3-3.2-5.3-5.6-7.6q-6.4-6.2-15.8-7.5c-3.1-0.4-3.7-0.6-19.2-0.6z"/><path fill-rule="evenodd" class="c" d="m65 17c13 0 14.7 0.1 19.8 0.3 5.1 0.2 8.6 1 11.6 2.2 3.2 1.2 5.9 2.9 8.5 5.6 2.7 2.6 4.3 5.3 5.6 8.5 1.2 3 2 6.5 2.2 11.6 0.2 5.1 0.3 6.8 0.3 19.8 0 13-0.1 14.7-0.3 19.8-0.2 5.1-1 8.6-2.2 11.6-1.3 3.2-2.9 5.9-5.6 8.5-2.6 2.7-5.3 4.4-8.5 5.6-3 1.2-6.5 2-11.6 2.2-5.1 0.2-6.8 0.3-19.8 0.3-13 0-14.7-0.1-19.8-0.3-5.1-0.2-8.6-1-11.6-2.2-3.2-1.2-5.9-2.9-8.5-5.6-2.7-2.6-4.4-5.3-5.6-8.5-1.2-3-2-6.5-2.2-11.6-0.2-5.1-0.3-6.8-0.3-19.8 0-13 0.1-14.7 0.3-19.8 0.2-5.1 1-8.6 2.2-11.6 1.2-3.2 2.9-5.9 5.6-8.5 2.6-2.7 5.3-4.4 8.5-5.6 3-1.2 6.5-2 11.6-2.2 5.1-0.2 6.8-0.3 19.8-0.3zm-4.3 8.6c-8.9 0-10.7 0.1-15.1 0.3-4.7 0.2-7.2 1-8.9 1.7-2.2 0.8-3.8 1.9-5.5 3.6-1.7 1.6-2.7 3.2-3.6 5.5-0.7 1.7-1.5 4.2-1.7 8.9-0.2 5-0.2 6.6-0.2 19.4 0 12.8 0 14.3 0.2 19.4 0.2 4.7 1 7.2 1.7 8.9 0.9 2.2 1.9 3.8 3.6 5.5 1.7 1.7 3.3 2.7 5.5 3.6 1.7 0.6 4.2 1.4 8.9 1.6 5.1 0.3 6.6 0.3 19.4 0.3 12.8 0 14.3 0 19.4-0.3 4.7-0.2 7.2-0.9 8.9-1.6 2.3-0.9 3.8-1.9 5.5-3.6 1.7-1.7 2.7-3.3 3.6-5.5 0.7-1.7 1.5-4.2 1.7-8.9 0.2-5.1 0.3-6.6 0.3-19.4 0-12.8-0.1-14.3-0.3-19.4-0.2-4.7-1-7.2-1.7-8.9-0.9-2.3-1.9-3.9-3.6-5.5-1.7-1.7-3.2-2.8-5.5-3.6-1.7-0.7-4.2-1.5-8.9-1.7-5.1-0.2-6.6-0.3-19.4-0.3q-2.4 0-4.3 0zm35.7 13.8c0 2.3-1.4 4.4-3.6 5.3-2.1 0.9-4.6 0.4-6.2-1.2-1.7-1.7-2.2-4.2-1.3-6.3 0.9-2.2 3-3.6 5.3-3.6 3.2 0 5.8 2.6 5.8 5.8zm-6.7 25.6c0 13.6-11.1 24.7-24.7 24.7-13.6 0-24.6-11.1-24.6-24.7 0-13.6 11-24.6 24.6-24.6 13.6 0 24.7 11 24.7 24.6zm-40.7 0c0 8.8 7.2 16 16 16 8.8 0 16-7.2 16-16 0-8.8-7.2-16-16-16-8.8 0-16 7.2-16 16z"/></svg>