<svg width="1440" height="871" viewBox="0 0 1440 871" fill="none" xmlns="http://www.w3.org/2000/svg">
<g clip-path="url(#clip0_1_31)">
<path d="M1440 0H0V871H1440V0Z" fill="white"/>
<path d="M1440 0H0V1491H1440V0Z" fill="url(#paint0_linear_1_31)"/>
<g opacity="0.14">
<path d="M818.917 -58.5922C636.454 -9.70157 458.863 -15.372 319.546 -63.0052C180.077 -110.691 81.2543 -199.371 50.1707 -315.376C19.0872 -431.381 60.3306 -557.592 157.272 -668.623C254.107 -779.533 405.07 -873.239 587.532 -922.13C769.995 -971.02 947.586 -965.35 1086.9 -917.717C1226.37 -870.031 1325.19 -781.352 1356.28 -665.346C1387.36 -549.341 1346.12 -423.13 1249.18 -312.099C1152.34 -201.189 1001.38 -107.483 818.917 -58.5922Z" stroke="url(#paint1_linear_1_31)" stroke-width="42"/>
<path d="M845.835 41.864C622.053 101.826 404.042 94.9351 232.776 36.3783C61.3581 -22.2307 -60.9423 -131.537 -99.4588 -275.282C-137.975 -419.028 -86.7133 -574.84 32.4345 -711.306C151.476 -847.65 336.835 -962.624 560.617 -1022.59C784.398 -1082.55 1002.41 -1075.66 1173.68 -1017.1C1345.09 -958.492 1467.39 -849.185 1505.91 -705.44C1544.43 -561.694 1493.16 -405.882 1374.02 -269.416C1254.98 -133.072 1069.62 -18.0981 845.835 41.864Z" stroke="url(#paint2_linear_1_31)" stroke-width="42"/>
</g>
<path fill-rule="evenodd" clip-rule="evenodd" d="M1494.06 949.062C770.32 876.218 407.556 935.354 103.091 1033.41C97.3082 1035.28 91.1107 1032.1 89.2482 1026.32C87.3858 1020.53 90.5637 1014.34 96.3463 1012.47C404.342 913.276 770.263 854.102 1496.26 927.173C1502.3 927.781 1506.71 933.175 1506.1 939.219C1505.49 945.264 1500.1 949.671 1494.06 949.062Z" fill="url(#paint3_linear_1_31)" fill-opacity="0.18"/>
<path fill-rule="evenodd" clip-rule="evenodd" d="M-265.262 808.378C430.754 1019.71 798.107 1031.8 1115.78 994.421C1121.82 993.712 1127.28 998.027 1127.99 1004.06C1128.7 1010.09 1124.39 1015.56 1118.35 1016.27C796.994 1054.08 426.535 1041.42 -271.654 829.429C-277.467 827.664 -280.748 821.52 -278.983 815.707C-277.218 809.894 -271.075 806.613 -265.262 808.378Z" fill="url(#paint4_linear_1_31)" fill-opacity="0.18"/>
<g opacity="0.96">
<g opacity="0.7" filter="url(#filter0_f_1_31)">
<path d="M1401.5 1675C1647.54 1675 1847 1475.54 1847 1229.5C1847 983.457 1647.54 784 1401.5 784C1155.46 784 956 983.457 956 1229.5C956 1475.54 1155.46 1675 1401.5 1675Z" fill="#F8D269"/>
</g>
</g>
<g opacity="0.37">
<g opacity="0.7" filter="url(#filter1_f_1_31)">
<path d="M736.559 630.641C851.677 630.641 944.999 537.319 944.999 422.201C944.999 307.083 851.677 213.761 736.559 213.761C621.441 213.761 528.119 307.083 528.119 422.201C528.119 537.319 621.441 630.641 736.559 630.641Z" fill="#B58ECF"/>
</g>
<g opacity="0.7" filter="url(#filter2_f_1_31)">
<path d="M727.463 609.284C841.489 609.284 933.926 516.847 933.926 402.821C933.926 288.795 841.489 196.358 727.463 196.358C613.437 196.358 521 288.795 521 402.821C521 516.847 613.437 609.284 727.463 609.284Z" fill="#FEF9EC"/>
</g>
</g>
<g opacity="0.8">
<g opacity="0.7" filter="url(#filter3_f_1_31)">
<path d="M54.5 148C200.027 148 318 30.027 318 -115.5C318 -261.027 200.027 -379 54.5 -379C-91.027 -379 -209 -261.027 -209 -115.5C-209 30.027 -91.027 148 54.5 148Z" fill="#B58ECF"/>
</g>
<g opacity="0.7" filter="url(#filter4_f_1_31)">
<path d="M43 121C187.146 121 304 4.1463 304 -140C304 -284.146 187.146 -401 43 -401C-101.146 -401 -218 -284.146 -218 -140C-218 4.1463 -101.146 121 43 121Z" fill="#F8D269"/>
</g>
</g>
<g filter="url(#filter5_d_1_31)">
</g>
<g filter="url(#filter6_d_1_31)">
</g>
</g>
<defs>
<filter id="filter0_f_1_31" x="658" y="486" width="1487" height="1487" filterUnits="userSpaceOnUse" color-interpolation-filters="sRGB">
<feFlood flood-opacity="0" result="BackgroundImageFix"/>
<feBlend mode="normal" in="SourceGraphic" in2="BackgroundImageFix" result="shape"/>
<feGaussianBlur stdDeviation="149" result="effect1_foregroundBlur_1_31"/>
</filter>
<filter id="filter1_f_1_31" x="230.119" y="-84.239" width="1012.88" height="1012.88" filterUnits="userSpaceOnUse" color-interpolation-filters="sRGB">
<feFlood flood-opacity="0" result="BackgroundImageFix"/>
<feBlend mode="normal" in="SourceGraphic" in2="BackgroundImageFix" result="shape"/>
<feGaussianBlur stdDeviation="149" result="effect1_foregroundBlur_1_31"/>
</filter>
<filter id="filter2_f_1_31" x="223" y="-101.642" width="1008.93" height="1008.93" filterUnits="userSpaceOnUse" color-interpolation-filters="sRGB">
<feFlood flood-opacity="0" result="BackgroundImageFix"/>
<feBlend mode="normal" in="SourceGraphic" in2="BackgroundImageFix" result="shape"/>
<feGaussianBlur stdDeviation="149" result="effect1_foregroundBlur_1_31"/>
</filter>
<filter id="filter3_f_1_31" x="-507" y="-677" width="1123" height="1123" filterUnits="userSpaceOnUse" color-interpolation-filters="sRGB">
<feFlood flood-opacity="0" result="BackgroundImageFix"/>
<feBlend mode="normal" in="SourceGraphic" in2="BackgroundImageFix" result="shape"/>
<feGaussianBlur stdDeviation="149" result="effect1_foregroundBlur_1_31"/>
</filter>
<filter id="filter4_f_1_31" x="-516" y="-699" width="1118" height="1118" filterUnits="userSpaceOnUse" color-interpolation-filters="sRGB">
<feFlood flood-opacity="0" result="BackgroundImageFix"/>
<feBlend mode="normal" in="SourceGraphic" in2="BackgroundImageFix" result="shape"/>
<feGaussianBlur stdDeviation="149" result="effect1_foregroundBlur_1_31"/>
</filter>
<filter id="filter5_d_1_31" x="1426" y="593" width="178" height="178" filterUnits="userSpaceOnUse" color-interpolation-filters="sRGB">
<feFlood flood-opacity="0" result="BackgroundImageFix"/>
<feColorMatrix in="SourceAlpha" type="matrix" values="0 0 0 0 0 0 0 0 0 0 0 0 0 0 0 0 0 0 127 0" result="hardAlpha"/>
<feOffset dy="3"/>
<feGaussianBlur stdDeviation="19"/>
<feComposite in2="hardAlpha" operator="out"/>
<feColorMatrix type="matrix" values="0 0 0 0 0 0 0 0 0 0 0 0 0 0 0 0 0 0 0.31 0"/>
<feBlend mode="normal" in2="BackgroundImageFix" result="effect1_dropShadow_1_31"/>
<feBlend mode="normal" in="SourceGraphic" in2="effect1_dropShadow_1_31" result="shape"/>
</filter>
<filter id="filter6_d_1_31" x="-44" y="-130" width="1528" height="172" filterUnits="userSpaceOnUse" color-interpolation-filters="sRGB">
<feFlood flood-opacity="0" result="BackgroundImageFix"/>
<feColorMatrix in="SourceAlpha" type="matrix" values="0 0 0 0 0 0 0 0 0 0 0 0 0 0 0 0 0 0 127 0" result="hardAlpha"/>
<feOffset dy="4"/>
<feGaussianBlur stdDeviation="22"/>
<feComposite in2="hardAlpha" operator="out"/>
<feColorMatrix type="matrix" values="0 0 0 0 0 0 0 0 0 0 0 0 0 0 0 0 0 0 0.05 0"/>
<feBlend mode="normal" in2="BackgroundImageFix" result="effect1_dropShadow_1_31"/>
<feBlend mode="normal" in="SourceGraphic" in2="effect1_dropShadow_1_31" result="shape"/>
</filter>
<linearGradient id="paint0_linear_1_31" x1="720" y1="0" x2="720" y2="1417.88" gradientUnits="userSpaceOnUse">
<stop stop-color="#360358"/>
<stop offset="1" stop-color="#5E0A96"/>
</linearGradient>
<linearGradient id="paint1_linear_1_31" x1="1086.03" y1="-1247.4" x2="1208.96" y2="-108.593" gradientUnits="userSpaceOnUse">
<stop stop-color="white"/>
<stop offset="1" stop-color="white" stop-opacity="0"/>
</linearGradient>
<linearGradient id="paint2_linear_1_31" x1="1171.1" y1="-1415.63" x2="1321.35" y2="-23.7552" gradientUnits="userSpaceOnUse">
<stop stop-color="white"/>
<stop offset="1" stop-color="white" stop-opacity="0"/>
</linearGradient>
<linearGradient id="paint3_linear_1_31" x1="1361.78" y1="879.893" x2="174.509" y2="1024.53" gradientUnits="userSpaceOnUse">
<stop stop-color="#E9EBF8"/>
<stop offset="1" stop-color="#E9EBF8" stop-opacity="0"/>
</linearGradient>
<linearGradient id="paint4_linear_1_31" x1="-148.844" y1="901.806" x2="1043.99" y2="989.341" gradientUnits="userSpaceOnUse">
<stop stop-color="#E9EBF8"/>
<stop offset="1" stop-color="#E9EBF8" stop-opacity="0"/>
</linearGradient>
<clipPath id="clip0_1_31">
<rect width="1440" height="871" fill="white"/>
</clipPath>
</defs>
</svg>
