<svg version="1.2" xmlns="http://www.w3.org/2000/svg" viewBox="0 0 99 62" width="99" height="62"><style>.a{fill:#7e3bab}.b{fill:#f2b21c}.c{fill:none;stroke:#b58ecf;stroke-width:.4}.d{fill:#b58ecf}</style><path class="a" d="m21.8 40l5.7-18.9-10 1.3 3.3-8.4 30.8-7.6-4.2 11.9-9.4 1.4-5.6 18.9z"/><path fill-rule="evenodd" class="a" d="m86.5 23.2q-0.5 0.4-1 0.8-0.1 0.1-0.3 0.2c-1.2-1.2-2.6-2.1-4.3-2.3 1 1 2 1.9 3.1 2.9-0.7 0.4-1.3 0.7-1.8 1-0.5 0.2-1 0.6-1.4 0.6-0.4 0-0.7-0.6-1.1-0.9-2.3-2.1-4.9-3.5-8-3.7q-2 0-3.8 0.5-0.4 0.1-0.9 0.2c-0.9-2.3-1-4.7-0.7-7.2-1.9 5.2-0.1 0.3-1.9 5.2q0 0 0 0c-6.5 6.4 0 0-6.4 6.4-1.6 0.1-0.1 0-1.6 0.1-3 4.3 0 0-3 4.3 1 0.4 1.9 2.9 1.9 4.2-19.1 2.5-21.4 2.8-21.4 2.8l5.7-17.2 8.9-1.3 4.9-13.8c22-5.2 0.5-0.1 21.5-5.1q1.4-0.3 2.7 0.3c-0.5 0.6-0.9 1-1.3 1.6-1 1.4-1 2.7 0.1 3.6 0.9 0.8 2 1.4 3.1 2 0.3 0.2 0.5 0.4 0.4 0.9 0 0.4 0 0.8 0 1.2 0.2 0.9 0.8 1.2 1.6 0.8 0.7-0.4 1.3-1 1.9-1.5 0.5-0.4 0.8-0.9 1.2-1.4 0.9 1.4 1.2 3 1.1 4.9 4.3-4.2 5.5-6.6 7.7-12.1 0 1 3.1 11.4-6.9 22zm-10.7-9.7c-0.5-0.9-1.2-1.6-2-2.2-0.2 0.5-0.3 0.8-0.5 1.3q1.2 0.5 2.5 0.9z"/><path class="b" d="m4.2 52.1q0-0.6-0.5-0.6h-2.7c-0.3 0-0.5-0.2-0.5-0.5v-2.1q0-0.6 0.5-0.6h9.6q0.6 0 0.6 0.6v2.1q0 0.5-0.6 0.5h-2.6q-0.6 0-0.6 0.6v8.7q0 0.6-0.5 0.6h-2.1c-0.4 0-0.6-0.2-0.6-0.6v-8.7z"/><path class="b" d="m19.8 48.3q0.5 0 0.5 0.6v11.9q0 0.6-0.5 0.6h-2.1c-0.4 0-0.6-0.2-0.6-0.6v-11.9q0.1-0.6 0.6-0.6h2.1z"/><path class="b" d="m35.1 48.3c0.3 0 0.6 0.3 0.6 0.6v8.3c0 1.2-0.3 4.5-4.7 4.5-4 0-4.6-2.7-4.7-4.1 0-0.2 0.1-0.5 0.4-0.5l2.1-0.5c0.4 0 0.7 0.2 0.7 0.6 0.1 0.8 0.5 1.3 1.5 1.3 1.4 0 1.4-0.9 1.4-2.3v-7.3c0-0.3 0.3-0.6 0.6-0.6z"/><path fill-rule="evenodd" class="b" d="m51.5 57.2c0 1.2-0.3 4.5-4.7 4.5-4.4 0-4.7-3.3-4.7-4.5v-4.7c0-1.2 0.3-4.5 4.7-4.5 4.4 0 4.7 3.3 4.7 4.5zm-3.2-3.6c0-1.5-0.1-2.3-1.5-2.3-1.4 0-1.5 0.8-1.5 2.3v2.6c0 1.5 0.1 2.4 1.5 2.4 1.4 0 1.5-0.9 1.5-2.4z"/><path fill-rule="evenodd" class="b" d="m67.9 60.4c0.2 0.5-0.1 1-0.7 1h-2.1c-0.2 0-0.3-0.1-0.4-0.3l-2-3.7q0-0.1-0.1-0.1h-0.7c-0.4 0-0.6 0.2-0.6 0.6v2.9c0 0.3-0.3 0.6-0.6 0.6h-2.1c-0.3 0-0.6-0.3-0.6-0.6v-11.9c0-0.3 0.3-0.6 0.6-0.6h4.1c3.3 0 4.7 1.5 4.7 4.5 0 1.7-0.5 3-1.5 3.7q-0.1 0.1 0 0.2zm-6-8.8c-0.4 0-0.6 0.2-0.6 0.6v1.3c0 0.4 0.2 0.6 0.6 0.6h0.9c0.9 0 1.4-0.1 1.4-1.3 0-1.1-0.5-1.2-1.4-1.2h-0.9z"/><path class="b" d="m82.4 48.3q0.5 0 0.5 0.6v2.1q0 0.5-0.5 0.5h-4.6q-0.5 0-0.5 0.6v0.6c0 0.4 0.2 0.6 0.5 0.6h2.9q0.6 0 0.6 0.5v2.1q0 0.5-0.6 0.6h-2.9q-0.5 0-0.5 0.5v0.6c0 0.4 0.2 0.6 0.5 0.6h4.6q0.5 0 0.5 0.5v2.1q0 0.6-0.5 0.6h-7.9c-0.3 0-0.5-0.2-0.5-0.6v-11.9q0-0.6 0.5-0.6h7.9z"/><path class="b" d="m97.6 48.3q0.6 0 0.6 0.6v2.1q0 0.5-0.6 0.5h-4.5q-0.5 0-0.6 0.6v0.6c0 0.4 0.3 0.6 0.6 0.6h2.9q0.6 0 0.6 0.5v2.1q0 0.5-0.6 0.6h-2.9q-0.5 0-0.6 0.5v0.6c0 0.4 0.3 0.6 0.6 0.6h4.5q0.6 0 0.6 0.5v2.1q0 0.6-0.6 0.6h-7.8c-0.4 0-0.6-0.2-0.6-0.6v-11.9q0-0.6 0.6-0.6h7.8z"/><path class="c" d="m18.5 46.8c-1.3 0-2.3-1-2.3-2.3 0-1.3 1-2.3 2.3-2.3 1.3 0 2.3 1 2.3 2.3 0 1.3-1 2.3-2.3 2.3z"/><path class="d" d="m18.1 44.1v-0.2h-1.2v0.2h0.5v1.2h0.2v-1.2zm1.8 1.2v-1.4h-0.3l-0.5 1.1-0.4-1.1h-0.4v1.4h0.3v-1l0.4 1h0.2l0.5-1v1z"/></svg>