<svg width="351" height="132" viewBox="0 0 351 132" fill="none" xmlns="http://www.w3.org/2000/svg">
<g opacity="0.6">
<path d="M312.015 26.7452L311.623 26.6638L311.458 27.0285C310.762 28.565 309.804 29.9583 308.672 31.1493L308.397 31.4375L308.617 31.7695L311.43 36.0311L306.536 39.2597L303.722 34.9977L303.502 34.6644L303.128 34.8054C301.587 35.3871 299.934 35.7342 298.257 35.7631L297.855 35.77L297.776 36.164L296.765 41.1618L290.996 39.9823L292.007 34.9824L292.086 34.5921L291.723 34.4278C290.186 33.7314 288.822 32.8034 287.633 31.6716L287.344 31.3974L287.013 31.6166L282.749 34.4314L279.493 29.5334L283.756 26.691L284.089 26.469L283.945 26.0955C283.367 24.5919 283.048 22.9402 283.019 21.2573L283.012 20.855L282.618 20.7757L277.59 19.7648L278.77 13.9964L283.77 15.0073L284.16 15.0862L284.324 14.7235C285.02 13.1866 285.977 11.7952 287.106 10.6371L287.387 10.3487L287.165 10.0125L284.351 5.74933L289.247 2.49376L292.06 6.75425L292.28 7.08757L292.654 6.94655C294.19 6.36675 295.816 6.04687 297.533 5.98866L297.928 5.97527L298.006 5.58803L299.017 0.590235L304.786 1.76966L303.775 6.76959L303.696 7.1599L304.059 7.32416C305.596 8.02056 306.96 8.94862 308.149 10.0804L308.438 10.3545L308.769 10.1354L313.032 7.32124L316.289 12.2461L312.028 15.0598L311.694 15.2798L311.835 15.6536C312.415 17.1905 312.735 18.8162 312.793 20.5033L312.807 20.8979L313.194 20.9761L318.192 21.9867L317.012 27.7829L312.015 26.7452ZM306.914 22.6855L306.915 22.6825C307.898 17.7057 304.696 12.8528 299.716 11.8377C294.734 10.8223 289.882 14.0589 288.868 19.0365C287.853 24.0169 291.088 28.8702 296.068 29.8545C301.046 30.8686 305.899 27.6653 306.914 22.6855Z" fill="#935BB9" stroke="white"/>
<path fill-rule="evenodd" clip-rule="evenodd" d="M336.329 49.8505C335.669 50.9303 334.86 51.8901 333.9 52.6699L335.729 56.2993L331.29 58.5488L329.461 54.9195C328.261 55.2195 327.001 55.3094 325.741 55.1895L324.481 59.0587L319.742 57.469L321.002 53.6298C319.922 52.9699 318.993 52.16 318.213 51.2002L314.583 53.0299L312.334 48.5607L315.963 46.7311C315.663 45.5613 315.573 44.3016 315.693 43.0418L311.824 41.782L313.384 37.0429L317.253 38.3027C317.913 37.2229 318.723 36.2931 319.652 35.4832L317.823 31.8839L322.292 29.6344L324.122 33.2637C325.321 32.9637 326.551 32.8437 327.811 32.9637L329.101 29.1245L333.84 30.6842L332.55 34.5534C333.63 35.1833 334.59 36.0231 335.369 36.953L338.999 35.1233L341.248 39.5925L337.619 41.4221C337.919 42.6219 338.009 43.8516 337.889 45.1114L341.758 46.4012L340.198 51.1402L336.329 49.8505ZM332.76 46.0412C333.84 42.7419 332.04 39.1725 328.741 38.0627C325.441 36.983 321.872 38.7826 320.792 42.082C319.682 45.4113 321.482 48.9506 324.781 50.0604C328.111 51.1402 331.68 49.3406 332.76 46.0412Z" fill="#935BB9" stroke="white" stroke-width="2"/>
<path fill-rule="evenodd" clip-rule="evenodd" d="M346.047 20.1264C345.717 20.8463 345.267 21.5362 344.727 22.1061L346.197 24.2657L343.557 26.0653L342.087 23.9057C341.338 24.2057 340.558 24.3556 339.748 24.3856L339.238 26.9651L336.089 26.3653L336.568 23.7857C335.849 23.4558 335.159 23.0059 334.589 22.466L332.429 23.9357L330.63 21.2662L332.789 19.8265C332.489 19.0766 332.339 18.2968 332.309 17.487L329.73 16.977L330.33 13.8277L332.909 14.3076C333.239 13.5577 333.689 12.8978 334.229 12.3279L332.759 10.1684L335.429 8.33871L336.868 10.5283C337.618 10.2283 338.398 10.0784 339.208 10.0484L339.718 7.46888L342.867 8.06876L342.387 10.6483C343.137 10.9782 343.797 11.4281 344.367 11.968L346.527 10.4983L348.356 13.1378L346.167 14.6075C346.467 15.3574 346.617 16.1372 346.647 16.9471L349.226 17.457L348.626 20.6064L346.047 20.1264ZM343.467 17.9969C343.887 15.7773 342.447 13.6477 340.228 13.2278C338.038 12.8078 335.909 14.2476 335.489 16.4672C335.069 18.6567 336.508 20.7863 338.698 21.2062C340.918 21.6262 343.017 20.1864 343.467 17.9969Z" fill="#935BB9" stroke="white" stroke-width="2"/>
</g>
<path d="M111.247 48.5221V131.575L11.3182 131.931C11.5659 128.308 -4.87738 80.4177 16.2109 53.0587C46.1246 14.2266 71.6875 45.6268 105.441 48.3518C107.346 48.5067 109.266 48.5841 111.247 48.5221Z" fill="#FFDE8F"/>
<path d="M340.834 129.98C340.695 131.017 329.872 129.809 329.717 130.831L262.179 131.064H111.248V48.522C113.152 48.4756 115.072 48.3207 117.054 48.0575C123.665 47.1595 130.617 44.8835 137.972 40.5946C214.165 -3.59476 276.207 8.4048 311.044 42.9016C315.333 47.1595 319.204 51.758 322.657 56.6198C337.459 77.5842 344.163 103.705 340.834 129.98Z" fill="white"/>
<path opacity="0.6" d="M341.67 116.912C341.686 121.448 341.407 125.985 340.834 130.552C340.695 131.59 329.872 130.398 329.717 131.419L262.179 131.652H111.248V131.574L262.179 131.063L329.717 130.831C329.872 129.809 340.695 131.017 340.834 129.98C341.376 125.613 341.67 121.247 341.67 116.912Z" fill="#E2EBFD"/>
<path d="M311.957 67.9382V131.064H117.053V76.1443H131.995V61.141H146.936V81.3931H159.029V76.872H180.101V84.5208H189.267V67.3498H213.808V37.8851H233.225V53.6006H237.653V40.4398H257.053V60.7075H274.642V48.2589H293.47V60.7075H296.969V67.9382H311.957Z" fill="#DDE8FD"/>
<path d="M88.2718 73.4803H71.9059C70.853 73.4803 69.9705 72.5977 69.9705 71.5449V55.7829C69.9705 54.7145 70.853 53.8475 71.9059 53.8475H88.2718C89.3401 53.8475 90.2072 54.7145 90.2072 55.7829V71.5449C90.2072 72.5977 89.3401 73.4803 88.2718 73.4803Z" fill="#93B3F4"/>
<path d="M87.5608 72.6289H72.6194C71.644 72.6289 70.8543 71.8238 70.8543 70.8638V56.4644C70.8543 55.4889 71.644 54.6993 72.6194 54.6993H87.5608C88.5363 54.6993 89.3259 55.4889 89.3259 56.4644V70.8638C89.3259 71.8238 88.5363 72.6289 87.5608 72.6289Z" fill="#E2EBFD"/>
<path d="M79.6815 56.4945C79.6815 56.2623 79.8673 56.0765 80.0995 56.0765C80.3318 56.0765 80.5176 56.2623 80.5176 56.4945C80.5176 56.7268 80.3318 56.9126 80.0995 56.9126C79.8673 56.9126 79.6815 56.7268 79.6815 56.4945Z" fill="#93B3F4"/>
<path d="M83.0569 57.0826C83.1653 56.8813 83.4285 56.8039 83.6298 56.9278C83.8311 57.0361 83.893 57.2839 83.7846 57.4852C83.6763 57.6864 83.413 57.7639 83.2117 57.6555C83.0105 57.5471 82.9485 57.2839 83.0569 57.0826Z" fill="#93B3F4"/>
<path d="M85.9528 59.3899C86.1386 59.2661 86.4018 59.3125 86.5257 59.5138C86.6496 59.6996 86.6031 59.9628 86.4018 60.0867C86.216 60.2106 85.9528 60.1641 85.8289 59.9628C85.7051 59.777 85.7515 59.5138 85.9528 59.3899Z" fill="#93B3F4"/>
<path d="M87.3912 62.9512C87.6234 62.9512 87.8092 63.137 87.8092 63.3693C87.8092 63.6015 87.6234 63.7873 87.3912 63.7873C87.1589 63.7873 86.9731 63.6015 86.9731 63.3693C86.9731 63.137 87.1589 62.9512 87.3912 62.9512Z" fill="#93B3F4"/>
<path d="M86.648 67.0855C86.8183 67.2403 86.8183 67.5036 86.648 67.6739C86.4931 67.8442 86.2299 67.8442 86.0596 67.6739C85.8893 67.5036 85.8893 67.2403 86.0596 67.0855C86.2299 66.9152 86.4931 66.9152 86.648 67.0855Z" fill="#93B3F4"/>
<path d="M84.018 69.7169C84.1883 69.8872 84.1883 70.1504 84.018 70.3053C83.8632 70.4756 83.5999 70.4756 83.4296 70.3053C83.2748 70.1504 83.2748 69.8872 83.4296 69.7169C83.5999 69.5466 83.8632 69.5466 84.018 69.7169Z" fill="#93B3F4"/>
<path d="M79.6815 71.0797C79.6815 70.8475 79.8673 70.6617 80.0995 70.6617C80.3318 70.6617 80.5176 70.8475 80.5176 71.0797C80.5176 71.312 80.3318 71.4978 80.0995 71.4978C79.8673 71.4978 79.6815 71.312 79.6815 71.0797Z" fill="#93B3F4"/>
<path d="M76.9507 57.6561C76.7494 57.7644 76.4862 57.687 76.3778 57.4857C76.2695 57.2845 76.3469 57.0367 76.5482 56.9283C76.7494 56.8045 76.9972 56.8819 77.1056 57.0832C77.2294 57.2845 77.152 57.5477 76.9507 57.6561Z" fill="#93B3F4"/>
<path d="M74.3346 59.9629C74.2107 60.1642 73.963 60.2106 73.7617 60.0868C73.5604 59.9629 73.514 59.6997 73.6379 59.5139C73.7617 59.3126 74.0249 59.2661 74.2107 59.39C74.412 59.5139 74.474 59.7771 74.3346 59.9629Z" fill="#93B3F4"/>
<path d="M73.2042 63.3688C73.2042 63.6011 73.0184 63.7869 72.7861 63.7869C72.5539 63.7869 72.3681 63.6011 72.3681 63.3688C72.3681 63.1366 72.5539 62.9508 72.7861 62.9508C73.0184 62.9508 73.2042 63.1366 73.2042 63.3688Z" fill="#93B3F4"/>
<path d="M74.1006 67.0856C74.2709 67.2404 74.2709 67.5036 74.1006 67.6739C73.9457 67.8443 73.6825 67.8443 73.5122 67.6739C73.3419 67.5036 73.3419 67.2404 73.5122 67.0856C73.6825 66.9152 73.9457 66.9152 74.1006 67.0856Z" fill="#93B3F4"/>
<path d="M76.7355 69.7175C76.9058 69.8878 76.9058 70.151 76.7355 70.3059C76.5807 70.4762 76.3175 70.4762 76.1472 70.3059C75.9768 70.151 75.9768 69.8878 76.1472 69.7175C76.3175 69.5472 76.5807 69.5472 76.7355 69.7175Z" fill="#93B3F4"/>
<path d="M79.9753 63.3688C79.9753 63.1366 80.1611 62.9508 80.3934 62.9508C80.6256 62.9508 80.8114 63.1366 80.8114 63.3688C80.8114 63.6011 80.6256 63.7869 80.3934 63.7869C80.1611 63.7869 79.9753 63.6011 79.9753 63.3688Z" fill="#93B3F4"/>
<path d="M80.4554 63.3691H80.347V58.1358H80.4554V63.3691Z" fill="#93B3F4"/>
<path d="M80.4561 63.4939L80.2393 63.2307L83.0108 61.0475L83.2276 61.3107L80.4561 63.4939Z" fill="#93B3F4"/>
<path d="M117.053 48.0577V130.63H105.425V48.3519C109.203 48.6615 113.059 48.5996 117.053 48.0577Z" fill="#F2B21C"/>
<path d="M322.657 56.6199V130.63H311.045V42.9017C315.334 47.1596 319.22 51.7582 322.657 56.6199Z" fill="#D3E0FC"/>
<path d="M349.334 131.806H0.681269C0.30967 131.806 0 131.512 0 131.141V130.986C0 130.614 0.30967 130.304 0.681269 130.304H349.334C349.706 130.304 350 130.614 350 130.986V131.141C350 131.512 349.706 131.806 349.334 131.806Z" fill="#B58ECF"/>
<path d="M131.518 130.351H126.997L124.705 101.49H126.579L131.518 130.351Z" fill="#3A49CD"/>
<path d="M163.615 93.0516L163.212 93.1445C161.432 93.5006 159.682 92.3393 159.326 90.5588L158.908 88.4685C158.536 86.6879 159.698 84.9383 161.478 84.5667L161.881 84.4893C163.661 84.1332 165.411 85.2944 165.783 87.075L166.201 89.1653C166.557 90.9458 165.395 92.6955 163.615 93.0516Z" fill="#060632"/>
<path d="M124.706 101.491C124.706 101.491 134.879 96.7063 148.813 99.8804L126.579 101.491H124.706Z" fill="#3A49CD"/>
<path d="M131.518 130.63L126.579 101.49C126.579 101.49 142.155 96.2412 154.247 101.49L161.447 130.444L131.518 130.63Z" fill="#BED2FA"/>
<path d="M239.283 121.603C239.004 124.761 237.223 125.737 236.434 125.66C235.644 125.567 231.061 123.817 230.952 124.467C230.86 125.102 233.616 127.208 235.551 127.301C235.551 127.301 231.897 131.342 229.482 130.181C227.051 129.004 226.834 127.161 225.332 126.48C223.815 125.783 222.514 125.783 223.149 126.496C223.768 127.192 226.509 127.889 227.376 129.406C227.577 129.778 227.778 130.103 227.933 130.397H222.824C221.198 129.592 219.835 128.477 219.727 127.285C219.717 127.192 219.712 127.105 219.712 127.022C219.541 125.18 219.541 125.18 219.541 125.18C219.541 125.18 216.925 122.114 218.287 119.575C218.519 119.141 218.845 118.738 219.325 118.367C219.325 118.367 221.771 116.88 223.768 117.004C223.768 117.004 222.22 119.59 221.786 121.138C221.632 121.68 221.616 122.083 221.864 122.207C222.112 122.346 222.452 121.959 222.808 121.324C223.675 119.76 224.635 116.695 224.635 116.695C224.635 116.695 226.106 116.555 227.778 116.54C228.522 116.524 229.311 116.54 230.039 116.602C230.829 116.679 231.525 116.803 231.99 117.02C231.99 117.02 231.897 117.097 231.727 117.252C231.479 117.453 231.076 117.794 230.627 118.181C229.311 119.358 227.593 120.999 228.227 121.154C228.754 121.278 230.38 120.302 231.835 119.342C233.182 118.444 234.374 117.562 234.374 117.562C234.374 117.562 239.561 118.444 239.283 121.603Z" fill="#6D89CF"/>
<path d="M219.728 127.285C218.861 127.44 216.415 130.01 216.415 130.01L216.74 129.112C218.861 127.239 219.542 125.179 219.542 125.179C222.655 121.138 236.744 121.696 236.744 121.696C218.366 122.284 219.728 127.285 219.728 127.285Z" fill="#6D89CF"/>
<path d="M217.344 129.081C217.22 129.22 217.034 129.39 216.771 129.638C216.678 129.721 216.59 129.808 216.508 129.901C216.384 130.046 216.26 130.206 216.136 130.381H215.47C216.151 129.545 216.74 129.112 216.74 129.112C216.802 129.081 218.009 128.338 217.344 129.081Z" fill="#6D89CF"/>
<path d="M203.114 122.208C202.061 124.484 196.751 124.855 193.809 124.251C190.851 123.647 192.137 122.811 193.731 121.464C195.326 120.102 198.655 120.458 199.63 119.931C200.621 119.405 199.181 118.879 197.215 119.018C195.249 119.173 194.258 121.139 191.084 121.449C187.894 121.759 185.479 115.766 185.479 115.766C187.662 116.448 191.61 115.24 191.765 114.481C191.904 113.723 186.083 113.8 185.169 113.568C184.255 113.351 182.676 111.524 183.652 107.885C184.643 104.262 190.774 105.393 190.774 105.393C190.774 105.393 194.939 111.756 196.147 111.911C197.37 112.05 193.654 105.764 193.654 105.764C196.007 105.547 201.984 108.427 201.984 108.427C201.984 108.427 201.612 115.844 202.82 115.689C204.028 115.534 202.82 109.109 202.82 109.109C205.096 109.79 207.202 112.438 207.202 112.438C209.865 116.757 204.183 119.931 204.183 119.931C204.183 119.931 204.183 119.931 203.114 122.208Z" fill="#6D89CF"/>
<path d="M186.453 109.032C186.453 109.032 202.354 114.172 204.181 119.932C204.181 119.932 204.104 122.502 205.698 125.459V126.605C205.698 126.605 204.026 122.734 203.113 122.208C203.113 122.208 206.674 117.207 186.453 109.032Z" fill="#6D89CF"/>
<path d="M207.17 130.367H206.257C206.226 129.051 206.071 127.58 205.622 126.45C205.57 126.306 205.514 126.171 205.452 126.048C205.25 125.676 205.127 125.397 205.049 125.196C204.585 124.066 205.699 125.459 205.699 125.459C205.699 125.459 207.031 127.488 207.17 130.367Z" fill="#6D89CF"/>
<path d="M213.208 115.549C213.208 115.549 205.73 111.353 209.229 105.671C209.229 105.671 212.016 102.171 215.02 101.273C215.02 101.273 213.409 109.758 215.02 109.96C216.615 110.161 216.104 100.375 216.104 100.375C216.104 100.375 224 96.582 227.097 96.8761C227.097 96.8761 222.204 105.16 223.799 104.958C225.394 104.757 230.89 96.3807 230.89 96.3807C230.89 96.3807 238.972 94.8788 240.273 99.6786C241.574 104.463 239.468 106.863 238.276 107.157C237.068 107.467 229.388 107.358 229.59 108.365C229.791 109.356 234.978 110.95 237.873 110.052C237.873 110.052 234.684 117.949 230.488 117.546C226.292 117.144 224.991 114.543 222.405 114.341C219.804 114.156 217.915 114.852 219.2 115.549C220.501 116.246 224.898 115.781 226.988 117.562C229.094 119.342 230.782 120.442 226.895 121.231C222.994 122.037 216.011 121.541 214.617 118.537C213.208 115.549 213.208 115.549 213.208 115.549Z" fill="#93B3F4"/>
<path d="M214.617 118.538C213.409 119.235 211.226 124.329 211.226 124.329V122.842C213.316 118.94 213.208 115.55 213.208 115.55C215.608 107.963 236.572 101.166 236.572 101.166C209.925 111.957 214.617 118.538 214.617 118.538Z" fill="#6D89CF"/>
<path d="M212.078 122.486C212.078 122.486 212.073 122.486 212.063 122.486C211.97 122.749 211.799 123.121 211.552 123.601C211.459 123.776 211.376 123.957 211.304 124.143C210.592 125.939 210.437 128.416 210.468 130.367H209.276C209.121 126.016 211.227 122.842 211.227 122.842C211.216 122.842 211.216 122.837 211.227 122.827C211.258 122.796 212.682 121 212.078 122.486Z" fill="#6D89CF"/>
<path d="M175.941 130.444H147.467C147.033 129.422 146.662 128.338 146.352 127.192C145.531 124.359 145.005 121.231 144.68 118.165C144.67 118.124 144.664 118.083 144.664 118.042C144.091 112.731 144.076 107.621 144.153 104.54C144.2 102.76 144.277 101.676 144.277 101.614C144.339 101.593 144.401 101.567 144.463 101.536C145.965 100.902 147.42 100.36 148.814 99.8796C149.98 99.4874 151.105 99.1416 152.189 98.8422C154.094 98.3313 155.859 97.9442 157.5 97.6965C159.42 97.3868 161.17 97.2475 162.733 97.201C162.806 97.201 162.873 97.201 162.935 97.201C163.348 97.1907 163.75 97.1907 164.142 97.201C168.029 97.2939 170.63 98.0681 171.946 98.579C172.121 98.6513 172.276 98.7184 172.41 98.7803C172.431 98.7906 172.447 98.7958 172.457 98.7958C172.612 98.868 172.73 98.9248 172.813 98.9661C172.823 98.9661 172.834 98.9713 172.844 98.9816C172.875 99.0022 172.911 99.0229 172.952 99.0435L175.012 120.627L175.941 130.444Z" fill="#0B0754"/>
<path d="M204.321 125.783C201.457 127.099 184.487 128.214 182.861 127.75C182.025 127.502 178.526 124.421 175.011 120.627C175.001 120.627 175.001 120.627 175.011 120.627C171.667 117.035 168.307 112.824 167.177 109.789C164.854 103.534 166.852 98.0062 166.852 98.0062C166.852 98.0062 171.187 97.9752 172.952 99.0435C174.717 100.112 184.812 118.707 186.159 119.187C187.506 119.683 203.501 120.596 205.328 121.463C205.328 121.463 207.17 124.452 204.321 125.783Z" fill="#0B0754"/>
<path d="M162.935 97.9596V99.0124C162.935 99.0124 163.229 102.295 159.172 102.775C155.131 103.27 152.066 101.505 152.174 98.9815C152.53 97.0151 152.933 95.668 152.948 94.0423C152.964 93.4385 152.917 92.7881 152.809 92.0604L160.643 91.9056L162.95 92.2772L162.935 97.9596Z" fill="#FDA6A4"/>
<path d="M162.951 92.2774L162.935 97.9597C162.099 98.3468 161.17 98.5791 160.117 98.5791C156.51 98.5946 152.918 92.7883 152.809 92.0606L162.951 92.2774Z" fill="#FC9290"/>
<path d="M163.414 95.0334C163.414 95.0334 153.381 97.0772 152.204 90.8065C151.027 84.5358 148.937 80.572 155.301 79.0082C161.664 77.4289 163.352 79.5966 164.25 81.5939C165.164 83.5913 166 94.3367 163.414 95.0334Z" fill="#FDA6A4"/>
<path d="M164.651 82.1205C164.728 83.0804 159.061 82.3527 157.513 83.6069C155.965 84.861 157.451 86.9203 155.686 87.6635C153.921 88.3912 152.512 88.3912 152.806 90.0169C153.116 91.6427 152.404 92.6181 152.404 92.6181C152.404 92.6181 150.453 88.4686 148.827 86.6416C147.48 85.1087 147.867 78.4974 152.032 76.4691C152.022 76.4587 152.011 76.4432 152.001 76.4226C151.908 76.2678 151.66 76.2987 151.66 76.2987C152.016 76.1439 152.574 76.2368 152.574 76.2368C152.558 76.2368 152.589 76.2058 152.636 76.1749C152.713 75.6794 153.193 75.3233 153.193 75.3233C153.038 75.571 152.961 75.8187 152.93 75.9891C154.029 75.4162 157.405 74.1156 160.099 75.2768C163.397 76.7168 166.199 76.9181 166.199 76.9181C166.199 77.1348 166.757 81.3463 164.651 82.1205Z" fill="#9E332E"/>
<path d="M147.467 130.444C147.033 129.422 146.661 128.338 146.352 127.192C145.531 124.359 145.005 121.231 144.68 118.165C144.669 118.124 144.664 118.083 144.664 118.042C144.68 118.057 144.711 118.119 144.742 118.088C145.856 116.741 148.876 115.27 152.545 120.627C153.273 121.696 156.478 129.19 156.989 130.444H147.467Z" fill="#030231"/>
<path d="M150.44 130.444C150.347 129.964 150.44 129.345 150.827 128.586C150.827 128.586 151.291 128.292 151.911 127.936C152.84 127.409 154.125 126.774 154.698 126.867C154.79 126.898 154.93 126.929 155.1 126.96C156.463 127.285 159.652 128.276 160.132 128.849C160.535 129.314 161.077 129.918 161.448 130.444H150.44Z" fill="#FDA6A4"/>
<path d="M152.545 130.444H125.712C125.635 130.103 125.635 129.778 125.728 129.546C126.533 127.517 128.097 124.188 129.893 120.627C131.209 117.995 132.664 115.239 134.027 112.762C135.931 109.34 137.681 106.476 138.703 105.299C139.508 104.37 140.53 103.596 141.583 102.961C142.481 102.419 143.425 101.97 144.277 101.614C144.339 101.593 144.401 101.567 144.463 101.536C146.336 100.778 147.807 100.453 147.807 100.453C147.807 100.453 147.838 101.304 147.838 102.605C147.838 106.383 147.699 114 146.491 115.858C146.15 116.385 145.531 117.175 144.741 118.088C144.721 118.109 144.7 118.135 144.679 118.165C144.246 118.661 143.781 119.187 143.286 119.745C140.483 122.888 136.938 126.573 136.504 127.022C136.473 127.043 136.458 127.058 136.458 127.068H136.52L144.045 127.161L146.352 127.192L151.136 127.27C151.461 127.409 151.724 127.641 151.91 127.935C152.375 128.601 152.514 129.592 152.545 130.444Z" fill="#0B0754"/>
<path d="M204.32 125.784C201.456 127.1 184.486 128.215 182.86 127.75C182.024 127.503 178.525 124.421 175.01 120.628C175.18 120.659 176.791 117.965 184.13 124.39C184.13 124.39 186.05 125.242 191.283 124.762C196.516 124.297 203.236 124.112 204.32 125.784Z" fill="#030231"/>
<path d="M187.643 130.398H168.243C168.243 129.546 168.939 128.849 169.791 128.849H187.643V130.398Z" fill="#A83F3F"/>
<path d="M187.582 109.263H217.589L210.389 130.397H180.196L187.582 109.263Z" fill="#A83F3F"/>
<path d="M218.021 109.263L210.836 130.397H180.644L188.029 109.263H218.021Z" fill="#B05050"/>
<path d="M201.858 119.637C201.672 120.442 200.867 121.092 200.062 121.092C199.241 121.092 198.746 120.442 198.931 119.637C199.117 118.832 199.922 118.166 200.727 118.166C201.532 118.166 202.043 118.832 201.858 119.637Z" fill="#ED6966"/>
<path d="M218.023 109.263L210.838 130.397H196.779L213.61 109.263H218.023Z" fill="#A83F3F"/>
<path d="M155.117 93.0516L154.714 93.1445C152.934 93.5006 151.184 92.3393 150.828 90.5588L150.41 88.4685C150.054 86.6879 151.215 84.9383 152.996 84.5667L153.383 84.4893C155.163 84.1332 156.928 85.2944 157.284 87.075L157.702 89.1653C158.059 90.9458 156.897 92.6955 155.117 93.0516Z" fill="#060632"/>
<path d="M152.003 85.527C151.74 85.047 151.353 81.1607 152.421 78.0641C152.932 76.5622 153.768 75.7106 154.821 75.1377C155.193 74.9209 155.626 74.8126 156.06 74.8126L157.113 74.828C153.644 76.299 152.839 84.1645 153.102 85.0006C153.092 84.9696 153.082 84.949 153.071 84.9386L152.003 85.527Z" fill="#060632"/>
<path d="M162.129 93.7175C156.307 93.7175 153.412 89.1035 153.381 89.057L153.907 88.7319C153.938 88.7783 156.648 93.0982 162.129 93.0982C162.17 93.0982 162.206 93.0982 162.237 93.0982L162.253 93.7175C162.212 93.7175 162.17 93.7175 162.129 93.7175Z" fill="#060632"/>
<path d="M154.186 91.0077L153.985 91.0542C153.087 91.2245 152.22 90.6516 152.034 89.7691L151.833 88.7162C151.647 87.8337 152.235 86.9666 153.118 86.7808L153.319 86.7498C154.202 86.564 155.069 87.1369 155.255 88.0349L155.471 89.0723C155.642 89.9549 155.069 90.8374 154.186 91.0077Z" fill="#0B0754"/>
<path d="M162.858 93.9186H162.316C162.037 93.9186 161.805 93.6864 161.805 93.4077C161.805 93.129 162.037 92.8967 162.316 92.8967H162.858C163.137 92.8967 163.369 93.129 163.369 93.4077C163.369 93.6864 163.137 93.9186 162.858 93.9186Z" fill="#060632"/>
<path d="M46.1857 84.7842C46.1857 84.7842 41.293 87.2925 44.8541 92.6652C44.8541 92.6652 40.6582 93.1452 39.5898 91.9375C39.5898 91.9375 39.7601 92.4794 39.9459 92.7271C39.9459 92.7271 35.8738 92.2007 34.4029 90.6524C32.9475 89.104 37.4996 68.5732 48.3534 72.7846C48.3534 72.7846 57.984 73.6517 55.2589 84.5365C52.5184 95.4057 56.1105 96.0096 56.1105 96.0096C56.1105 96.0096 55.0267 96.3347 54.5467 96.2418C54.5467 96.2418 53.8809 95.8548 53.819 95.4522C53.819 95.4522 53.8499 96.087 54.0048 96.3038C54.0048 96.3038 50.0565 96.0251 48.3688 94.229C46.6657 92.4484 45.2412 86.9673 46.1857 84.7842Z" fill="#9E332E"/>
<path d="M53.1698 90.1564L52.7827 90.2184C51.0331 90.4506 49.4074 89.2274 49.1596 87.4778L48.8809 85.434C48.6332 83.6844 49.8719 82.0587 51.606 81.8264L52.0085 81.7645C53.7427 81.5322 55.3684 82.7554 55.6162 84.505L55.8949 86.5488C56.1426 88.2984 54.9194 89.9242 53.1698 90.1564Z" fill="#93B3F4"/>
<path d="M54.2841 106.569C52.8287 107.699 51.8997 111.771 49.5462 112.437C40.7207 114.961 35.9828 104.479 34.4345 99.3693C35.6267 98.6106 36.757 98.3939 37.4228 98.2855C38.0576 98.1771 38.7389 98.0842 39.2963 98.0378C40.2562 97.2171 41.5878 93.9966 41.6652 89.1039L42.0987 89.1813L49.2366 90.7606C49.2366 90.7606 49.0198 93.0057 48.9733 95.1269C48.9424 96.7991 48.8804 97.1862 49.0198 97.3875C49.5617 97.4804 50.2275 98.9048 50.2275 98.9048C50.3204 99.0597 52.5345 102.311 54.2841 106.569Z" fill="#FDA6A4"/>
<path d="M49.2369 90.7604C49.2369 90.7604 49.0201 93.0055 48.9736 95.1267C44.9635 94.9409 42.9197 91.2404 42.099 89.1966L49.2369 90.7604Z" fill="#FC9290"/>
<path d="M85.5307 127.765C85.5307 127.765 81.3347 127.92 76.7826 127.935C76.2407 127.935 75.6988 127.935 75.1414 127.935C71.4409 127.92 67.7868 127.796 66.2385 127.394C64.7211 126.991 58.8839 123.043 54.2235 118.258C53.8673 119.11 53.5886 119.776 53.5732 119.822C53.4493 120.906 53.217 121.974 52.9383 123.012C51.8855 126.96 50.1204 130.273 50.0584 130.382H47.5502L28.0412 130.351C28.0412 130.351 31.7262 124.684 30.7353 110.13C30.7198 109.774 34.1416 98.0372 34.1416 98.0372C34.1416 98.0372 36.7893 97.5727 39.8704 97.325C40.1646 97.5882 40.753 105.299 44.5928 105.748C45.2277 105.825 49.2378 111.941 49.2378 111.941L50.4455 105.686L49.0056 97.3869C50.8636 97.9289 51.87 98.1147 53.4028 98.734C54.4402 99.152 55.3073 99.9262 55.8492 100.902C58.5278 105.81 67.2449 121.649 68.1429 122.021C68.979 122.362 72.1067 122.981 75.4356 123.6C79.8793 124.405 84.6481 125.179 84.6481 125.179L85.5307 127.765Z" fill="#BED2FA"/>
<path d="M51.4522 130.382L50.0433 130.397C50.0536 130.397 50.0587 130.392 50.0587 130.382H51.4522Z" fill="#BED2FA"/>
<path d="M50.431 92.8971C50.431 92.8971 40.9397 92.7113 41.141 86.8121C41.3578 80.8975 40.2585 76.9028 46.3279 76.7635C52.3974 76.6396 53.4967 78.9311 53.9147 80.9285C54.3173 82.9103 52.8928 92.8042 50.431 92.8971Z" fill="#FDA6A4"/>
<path d="M76.7834 127.936C76.2414 127.936 75.6995 127.936 75.1421 127.936C71.4416 127.921 67.7876 127.797 66.2392 127.394C64.7219 126.992 58.8847 123.044 54.2242 118.259C54.2242 118.259 55.1996 114.481 55.6332 113.862C56.0512 113.227 57.7234 119.359 61.6407 121.851C65.558 124.344 71.6739 126.094 74.6467 125.382C76.6595 124.902 76.8608 126.713 76.7834 127.936Z" fill="#93B3F4"/>
<path d="M51.5449 89.7695C51.4829 90.5282 50.1823 90.4353 50.1823 90.4353C48.6185 90.3269 48.5566 89.6147 48.5566 89.6147C50.3527 89.0573 51.5449 89.7695 51.5449 89.7695Z" fill="white"/>
<path d="M49.0666 91.9989C43.6784 90.2957 42.3624 85.2017 42.3469 85.1398L42.9198 85.0004C42.9352 85.0469 44.1894 89.8312 49.2524 91.4415C49.2834 91.4518 49.3195 91.4621 49.3608 91.4724L49.175 92.0298C49.144 92.0195 49.1079 92.0092 49.0666 91.9989Z" fill="#060632"/>
<path d="M49.6874 92.4021L49.1765 92.2473C48.9133 92.1544 48.7739 91.8757 48.8513 91.6279C48.9442 91.3647 49.2229 91.2254 49.4707 91.3028L49.9816 91.4576C50.2448 91.5505 50.3842 91.8292 50.3067 92.0769C50.2293 92.3402 49.9506 92.4795 49.6874 92.4021Z" fill="#93B3F4"/>
<path d="M50.9543 75.9893C50.9543 75.9893 48.5389 83.1735 44.8849 84.3967C41.2463 85.6199 40.0386 84.1799 40.0386 84.1799C40.0386 84.1799 42.7172 81.7181 43.0269 77.7234C43.0269 77.7234 48.9105 73.0474 50.9543 75.9893Z" fill="#9E332E"/>
<path d="M53.9127 76.4542C56.1423 78.7921 53.9747 82.1365 53.9747 82.1365C53.8972 80.774 53.9127 80.2476 52.8444 79.2411C51.3735 77.8322 46.4188 78.0954 46.4188 78.0954C46.4188 78.0954 51.5593 73.9768 53.9127 76.4542Z" fill="#9E332E"/>
<path d="M50.7551 76.7482C50.7551 76.7482 49.5164 83.6383 44.9798 86.1311C44.9798 86.1311 49.377 81.641 49.4545 77.1508C49.5319 72.6606 50.7551 76.7482 50.7551 76.7482Z" fill="#9E332E"/>
<path d="M48.3379 72.7846C48.3379 72.7846 48.4463 72.7846 48.6321 72.8156C47.8734 75.3084 46.2631 80.8669 45.458 85.3261C44.049 85.5893 42.733 91.5039 46.836 92.402C46.836 92.402 41.6956 93.6406 39.5898 91.9375C39.5898 91.9375 39.7602 92.4794 39.946 92.7271C39.946 92.7271 35.8739 92.2007 34.4029 90.6524C32.9475 89.104 37.4996 68.5732 48.3379 72.7846Z" fill="#9E332E"/>
<path d="M43.3202 89.5531L42.9176 89.615C41.1835 89.8472 39.5578 88.6241 39.31 86.8745L39.0313 84.8307C38.7836 83.0811 40.0068 81.4553 41.7564 81.2231L42.1435 81.1611C43.8931 80.9289 45.5188 82.1521 45.7666 83.9017L46.0453 85.9455C46.293 87.6796 45.0543 89.3053 43.3202 89.5531Z" fill="#93B3F4"/>
<path d="M40.7521 82.09C40.5199 81.641 41.3405 78.2502 42.5327 75.6335C43.1211 74.3484 44.5765 72.6452 45.6294 72.2117C46.001 72.0569 46.5119 72.1188 46.9145 72.2117C47.2087 72.2736 48.0448 72.6762 48.0448 72.6762C44.6075 73.7445 41.6192 80.9443 41.836 81.6875C41.836 81.6668 41.8308 81.6513 41.8205 81.641L40.7521 82.09Z" fill="#93B3F4"/>
<path d="M42.5302 87.5249L42.3289 87.5404C41.4618 87.6642 40.6567 87.0604 40.5328 86.1778L40.3935 85.1714C40.2696 84.2889 40.8889 83.4837 41.756 83.3599L41.9418 83.3444C42.8089 83.2205 43.6295 83.8244 43.7379 84.6914L43.8927 85.7133C44.0011 86.5804 43.3972 87.401 42.5302 87.5249Z" fill="#6D89CF"/>
<path d="M65.5567 124.344C65.5567 124.344 69.6288 124.112 70.0159 124.329C70.6662 124.669 72.8493 126.078 73.1899 126.481C73.5306 126.899 74.4286 128.54 74.4286 128.54C74.4286 128.54 74.0415 128.648 73.8557 128.494C73.6854 128.323 72.3538 126.914 72.3538 126.914L73.7164 128.989C73.7164 128.989 73.2519 128.974 73.0661 128.757C72.8803 128.555 71.6107 127.255 71.6107 127.255L71.1771 127.177C71.1771 127.177 71.6107 127.534 71.8584 127.859C72.0906 128.168 72.2455 128.525 72.2455 128.525C72.2455 128.525 71.8584 128.447 71.7345 128.401C71.6261 128.339 70.4804 127.332 70.4804 127.332L71.0842 128.168C71.0842 128.168 70.6817 128.137 70.5423 128.045C70.403 127.967 69.5204 127.146 69.3656 127.146C69.1953 127.146 68.065 127.1 67.5695 126.837C67.0895 126.574 65.5567 125.985 65.5567 125.985V124.344Z" fill="#FDA6A4"/>
<path d="M49.2377 111.942L45.1346 109.263V107.498L44.0353 108.273C39.9322 104.882 37.0833 97.6046 37.0833 97.6046C37.7026 96.9852 40.4277 96.1956 40.4277 96.1956C40.2109 98.3942 49.2377 111.942 49.2377 111.942Z" fill="#93B3F4"/>
<path d="M52.9379 123.012C51.885 126.961 50.1199 130.274 50.058 130.383H51.4515L50.0425 130.398H37.083C37.083 130.398 38.5848 130.398 38.5848 130.383C38.5539 130.259 40.7835 124.22 37.083 121.743C33.3825 119.266 32.0509 113.165 32.0509 113.165L43.8182 110.285C43.8182 110.285 48.6645 117.361 50.0425 118.708C51.1108 119.746 53.5727 119.823 53.5727 119.823L52.9379 123.012Z" fill="#93B3F4"/>
<path d="M48.9433 96.1956C48.9433 96.1956 49.2684 96.3195 50.1355 97.6975C51.0025 99.091 51.947 106.972 51.947 106.972L50.8632 106.6L51.1574 108.304C50.9096 108.861 49.2375 111.942 49.2375 111.942C50.2594 107.282 49.0207 97.3878 49.0207 97.3878L48.9433 96.1956Z" fill="#93B3F4"/>
<path d="M85.5299 127.766C85.5299 127.766 80.281 127.951 75.1406 127.936C73.871 125.954 75.4348 123.601 75.4348 123.601C79.8785 124.406 84.6473 125.18 84.6473 125.18L85.5299 127.766Z" fill="#FDA6A4"/>
<path d="M86.0261 130.398H66.6256C66.6256 129.546 67.3223 128.849 68.1739 128.849H86.0261V130.398Z" fill="#3662C1"/>
<path d="M115.969 109.263L108.769 130.398H78.5767L85.9777 109.263H115.969Z" fill="#93B3F4"/>
<path d="M115.97 109.263L108.832 130.197L108.77 130.398H79.0269L86.4125 109.263H115.97Z" fill="#93B3F4"/>
<path d="M100.24 119.637C100.054 120.442 99.249 121.093 98.4439 121.093C97.6387 121.093 97.1278 120.442 97.3136 119.637C97.4994 118.832 98.3045 118.166 99.1096 118.166C99.9148 118.166 100.426 118.832 100.24 119.637Z" fill="#EFA2A2"/>
<path d="M115.97 109.263L108.833 130.197H95.1763L111.836 109.263H115.97Z" fill="#3662C1"/>
<path d="M65.5568 125.985C65.5568 125.985 55.5701 126.868 50.0425 126.62V121.186C53.6656 122.192 65.5568 124.344 65.5568 124.344V125.985Z" fill="#FDA6A4"/>
<path d="M49.2845 120.674C49.3774 120.953 51.6689 121.588 51.6689 121.588C49.6871 123.539 50.7554 126.635 50.7554 126.635C49.6561 126.62 47.3336 126.31 47.3336 126.31C42.0073 125.381 31.3548 112.344 31.3548 112.344C31.3548 112.344 27.8401 101.553 29.6052 99.6481C31.3703 97.7281 37.0837 97.6043 37.0837 97.6043C37.0837 97.6043 49.1916 120.396 49.2845 120.674Z" fill="#BED2FA"/>
<path d="M279.259 87.5387C278.98 95.3114 290.237 99.0274 285.081 106.212C282.712 109.51 255.43 110.996 254.331 110.237C252.225 108.782 252.504 105.375 252.504 105.375C252.086 106.382 252.643 108.317 252.643 108.317C252.643 108.317 251.374 107.218 251.219 105.004C251.064 102.79 264.302 77.521 266.377 75.1057C270 70.8787 275.775 73.0309 275.775 73.0309C283.842 73.4799 279.414 83.0486 279.259 87.5387Z" fill="#0B0754"/>
<path d="M281.287 89.1187L280.9 89.1961C279.181 89.5523 277.478 88.422 277.137 86.6879L276.719 84.675C276.379 82.9409 277.493 81.2377 279.228 80.8971L279.615 80.8197C281.333 80.4636 283.036 81.5938 283.393 83.328L283.795 85.3408C284.151 87.0749 283.021 88.7781 281.287 89.1187Z" fill="#93B3F4"/>
<path d="M306.046 130.35H287.946C284.88 125.473 282.17 118.893 281.551 113.783C281.241 111.337 281.412 109.247 282.232 107.807C284.756 103.332 280.746 98.0986 280.746 98.0986C280.746 98.0986 286.273 99.6625 287.543 104.215C288.859 108.844 292.374 124.265 292.374 124.265L305.813 127.037C306.433 128.616 306.046 130.35 306.046 130.35Z" fill="#93B3F4"/>
<path d="M306.044 130.351H287.944C284.878 125.473 282.169 118.893 281.55 113.783L284.228 112.947C284.228 112.947 287.634 128.462 289.601 128.694C291.583 128.926 306.044 130.351 306.044 130.351Z" fill="#6D89CF"/>
<path d="M283.422 105.438C282.029 106.645 280.233 107.729 277.926 108.534C269.271 111.6 265.028 104.478 263.155 99.4611C264.3 98.625 265.415 98.3463 266.066 98.1915C266.7 98.0521 267.366 97.9283 267.924 97.8354C268.837 96.9528 269.967 93.6549 269.751 88.7621L270.184 88.8241L277.399 89.9544C277.399 89.9544 277.337 92.2149 277.415 94.3361C277.477 95.9928 277.632 97.5722 277.988 97.9283C278.545 97.9747 278.886 98.0212 278.886 98.0212C279.01 98.176 281.41 101.288 283.422 105.438Z" fill="#FDA6A4"/>
<path d="M277.399 89.9545C277.399 89.9545 277.337 92.215 277.415 94.3362C273.404 94.3982 271.128 90.8215 270.184 88.8397L277.399 89.9545Z" fill="#FC9290"/>
<path d="M286.861 112.948C286.846 113.102 284.91 119.389 284.895 119.543C284.214 124.792 283.006 130.397 283.006 130.397L280.358 130.382L262.862 130.351C262.862 130.351 264.983 123.987 259.409 114.233C259.224 113.913 259.033 113.588 258.837 113.257C258.047 111.957 263.048 98.0372 263.048 98.0372C263.048 98.0372 265.231 97.6501 268.312 97.4023C268.607 97.6656 270.728 105.469 274.599 105.701C279.631 106.011 277.726 97.3249 277.726 97.3249C279.786 97.7275 280.513 97.8823 283.161 99.152C283.161 99.152 286.97 112.096 286.861 112.948Z" fill="#93B3F4"/>
<path d="M278.717 92.0292C278.717 92.0292 269.241 92.4163 269.086 86.5171C268.931 80.6025 267.6 76.6698 273.638 76.1743C279.692 75.6633 280.931 77.8929 281.457 79.8593C281.999 81.8102 281.178 91.766 278.717 92.0292Z" fill="#FDA6A4"/>
<path d="M279.646 88.8244C279.631 89.5831 278.33 89.5831 278.33 89.5831C276.766 89.5676 276.658 88.8554 276.658 88.8554C278.408 88.1896 279.646 88.8244 279.646 88.8244Z" fill="white"/>
<path d="M277.322 91.2087C271.825 89.8462 270.2 84.8296 270.184 84.7831L270.742 84.5973C270.757 84.6438 272.305 89.3507 277.461 90.6358C277.492 90.6461 277.528 90.6565 277.57 90.6668L277.43 91.2397C277.389 91.2293 277.353 91.219 277.322 91.2087Z" fill="#060632"/>
<path d="M277.957 91.5649L277.431 91.441C277.168 91.379 277.013 91.1003 277.075 90.8371C277.137 90.5739 277.416 90.4191 277.679 90.481L278.19 90.6204C278.453 90.6823 278.623 90.9455 278.546 91.2087C278.484 91.4719 278.221 91.6423 277.957 91.5649Z" fill="#3A65C2"/>
<path d="M273.344 72.5049C273.344 72.5049 279.46 71.5449 281.984 76.6234C283.903 80.4943 282.293 82.9096 281.55 83.6528C281.55 83.6528 280.544 78.0943 278.686 77.6144C278.686 77.6144 277.478 77.2583 276.657 78.2027C275.837 79.1627 274.66 83.4206 273.297 84.0709C273.297 84.0709 269.055 85.1083 268.854 83.6374C268.637 82.151 268.761 77.5679 269.829 76.8247C270.897 76.0815 273.344 72.5049 273.344 72.5049Z" fill="#0B0754"/>
<path d="M271.425 89.1176L271.038 89.195C269.303 89.5511 267.616 88.4208 267.26 86.6867L266.857 84.6739C266.501 82.9397 267.631 81.2366 269.35 80.8959L269.737 80.8185C271.471 80.4624 273.174 81.5927 273.515 83.3268L273.933 85.3396C274.274 87.0738 273.143 88.7769 271.425 89.1176Z" fill="#93B3F4"/>
<path d="M268.404 81.8248C268.141 81.4067 267.77 78.0159 268.807 75.3063C269.302 74.0057 270.108 73.2625 271.129 72.767C271.501 72.5812 271.904 72.4883 272.322 72.4883L273.344 72.5038C269.984 73.7734 269.209 80.6326 269.473 81.3603C269.462 81.3396 269.452 81.319 269.442 81.2983L268.404 81.8248Z" fill="#93B3F4"/>
<path d="M270.512 87.1352L270.311 87.1817C269.459 87.352 268.608 86.7791 268.437 85.9275L268.236 84.9211C268.066 84.0541 268.623 83.218 269.475 83.0322L269.676 83.0012C270.528 82.8309 271.379 83.3883 271.55 84.2399L271.766 85.2617C271.937 86.1133 271.364 86.9649 270.512 87.1352Z" fill="#6D89CF"/>
<path d="M262.859 130.351C262.859 130.351 264.981 123.987 259.407 114.233L261.481 111.631C261.481 111.631 265.151 122.036 269.734 125.071C274.317 128.09 279.705 127.455 280.356 130.382L262.859 130.351Z" fill="#6D89CF"/>
<path d="M264.487 108.627C264.41 113.458 256.885 124.622 256.885 124.622L269.38 127.037C270.015 128.616 269.612 130.35 269.612 130.35H249.422C249.422 123.971 254.222 107.296 256.746 102.821C259.269 98.362 263.047 98.0368 263.047 98.0368C263.047 98.0368 264.565 103.812 264.487 108.627Z" fill="#93B3F4"/>
<path d="M269.737 128.307C269.737 128.307 273.685 127.92 274.335 128.09C274.985 128.276 276.843 129.034 277.262 129.313C277.68 129.576 278.469 130.35 278.469 130.35C278.469 130.35 277.974 130.443 277.68 130.381C277.385 130.32 276.487 130.258 276.255 130.242C276.023 130.211 275.171 130.397 275.171 130.397H269.071L269.737 128.307Z" fill="#FDA6A4"/>
<path d="M305.38 130.397H285.979C285.979 129.546 286.676 128.849 287.527 128.849H305.38V130.397Z" fill="#0B0754"/>
<path d="M335.323 109.262L328.124 130.397H297.947L305.332 109.262H335.323Z" fill="#3662C1"/>
<path d="M335.324 109.262L328.201 130.196L328.124 130.397H298.38L305.766 109.262H335.324Z" fill="#3662C1"/>
<path d="M319.593 119.637C319.408 120.442 318.602 121.092 317.797 121.092C316.992 121.092 316.481 120.442 316.667 119.637C316.853 118.832 317.658 118.166 318.479 118.166C319.284 118.166 319.779 118.832 319.593 119.637Z" fill="#FA7269"/>
<path d="M335.324 109.262L328.202 130.196H314.53L331.19 109.262H335.324Z" fill="#0B0754"/>
<path d="M28 48.5364V38.1884C28 33.6593 31.6593 30 36.1884 30H77.6405C82.1696 30 85.8289 33.6593 85.8289 38.1884V48.5364C85.8289 53.0656 82.1696 56.7249 77.6405 56.7249H36.1884C31.6593 56.6949 28 53.0356 28 48.5364Z" fill="white"/>
<path d="M68.0127 52.7355L51.3359 70.1622L53.1956 52.4356L68.0127 52.7355Z" fill="white"/>
<path d="M40.4179 41.608C42.0976 41.608 43.4773 42.8978 43.4773 44.5175C43.4773 46.1072 42.0976 47.3969 40.4179 47.3969C38.7083 47.3969 37.3285 46.1072 37.3285 44.5175C37.3285 42.8978 38.7083 41.608 40.4179 41.608Z" fill="#0A4494"/>
<path d="M57.1545 41.608C58.8342 41.608 60.2139 42.8978 60.2139 44.5175C60.2139 46.1072 58.8342 47.3969 57.1545 47.3969C55.4448 47.3969 54.0651 46.1072 54.0651 44.5175C54.0651 42.8978 55.4448 41.608 57.1545 41.608Z" fill="#0A4494"/>
<path d="M73.4125 41.608C75.1221 41.608 76.5019 42.8978 76.5019 44.5175C76.5019 46.1072 75.1221 47.3969 73.4125 47.3969C71.7328 47.3969 70.3531 46.1072 70.3531 44.5175C70.3531 42.8978 71.7328 41.608 73.4125 41.608Z" fill="#0A4494"/>
</svg>
