<svg width="24" height="120" viewBox="0 0 24 120" fill="none" xmlns="http://www.w3.org/2000/svg">
<path d="M2.5 13.24V11.51C2.5 9.44001 4.18999 7.75 6.25999 7.75H17.74C19.81 7.75 21.5 9.44001 21.5 11.51V12.95H19.48C18.92 12.95 18.41 13.17 18.04 13.55C17.62 13.96 17.38 14.55 17.44 15.18C17.53 16.26 18.52 17.05 19.6 17.05H21.5V18.24C21.5 20.31 19.81 22 17.74 22H12.26" stroke="#5E0A96" stroke-width="1.5" stroke-linecap="round" stroke-linejoin="round"/>
<path opacity="0.4" d="M2.5 12.41V7.84004C2.5 6.65004 3.23 5.59 4.34 5.17L12.28 2.17C13.52 1.7 14.85 2.62003 14.85 3.95003V7.75002" stroke="#5E0A96" stroke-width="1.5" stroke-linecap="round" stroke-linejoin="round"/>
<path d="M22.56 13.97V16.03C22.56 16.58 22.12 17.03 21.56 17.05H19.6C18.52 17.05 17.53 16.26 17.44 15.18C17.38 14.55 17.62 13.96 18.04 13.55C18.41 13.17 18.92 12.95 19.48 12.95H21.56C22.12 12.97 22.56 13.42 22.56 13.97Z" stroke="#5E0A96" stroke-width="1.5" stroke-linecap="round" stroke-linejoin="round"/>
<path opacity="0.4" d="M7 12H14" stroke="#5E0A96" stroke-width="1.5" stroke-linecap="round" stroke-linejoin="round"/>
<path d="M3 16.5H8.34C8.98 16.5 9.5 17.02 9.5 17.66V18.94" stroke="#5E0A96" stroke-width="1.5" stroke-miterlimit="10" stroke-linecap="round" stroke-linejoin="round"/>
<path d="M4.22 15.28L3 16.5L4.22 17.72" stroke="#5E0A96" stroke-width="1.5" stroke-miterlimit="10" stroke-linecap="round" stroke-linejoin="round"/>
<path d="M9.5 21.78H4.16C3.52 21.78 3 21.26 3 20.62V19.34" stroke="#5E0A96" stroke-width="1.5" stroke-miterlimit="10" stroke-linecap="round" stroke-linejoin="round"/>
<path d="M8.28 23L9.5 21.78L8.28 20.56" stroke="#5E0A96" stroke-width="1.5" stroke-miterlimit="10" stroke-linecap="round" stroke-linejoin="round"/>
<g opacity="0.4">
<path d="M10.7501 64.86V66.89C10.7501 68.61 9.15011 70 7.18011 70C5.21011 70 3.6001 68.61 3.6001 66.89V64.86C3.6001 66.58 5.20011 67.8 7.18011 67.8C9.15011 67.8 10.7501 66.57 10.7501 64.86Z" stroke="#5E0A96" stroke-width="1.5" stroke-linecap="round" stroke-linejoin="round"/>
<path d="M10.7498 62.11C10.7498 62.61 10.6098 63.07 10.3698 63.47C9.77981 64.44 8.5698 65.05 7.1698 65.05C5.7698 65.05 4.55979 64.43 3.96979 63.47C3.72979 63.07 3.58984 62.61 3.58984 62.11C3.58984 61.25 3.98982 60.48 4.62982 59.92C5.27982 59.35 6.16979 59.01 7.15979 59.01C8.14979 59.01 9.03982 59.36 9.68982 59.92C10.3498 60.47 10.7498 61.25 10.7498 62.11Z" stroke="#5E0A96" stroke-width="1.5" stroke-linecap="round" stroke-linejoin="round"/>
<path d="M10.7501 62.11V64.86C10.7501 66.58 9.15011 67.8 7.18011 67.8C5.21011 67.8 3.6001 66.57 3.6001 64.86V62.11C3.6001 60.39 5.20011 59 7.18011 59C8.17011 59 9.06014 59.35 9.71014 59.91C10.3501 60.47 10.7501 61.25 10.7501 62.11Z" stroke="#5E0A96" stroke-width="1.5" stroke-linecap="round" stroke-linejoin="round"/>
</g>
<path d="M22 58.97V61.03C22 61.58 21.56 62.03 21 62.05H19.04C17.96 62.05 16.97 61.26 16.88 60.18C16.82 59.55 17.06 58.96 17.48 58.55C17.85 58.17 18.36 57.95 18.92 57.95H21C21.56 57.97 22 58.42 22 58.97Z" stroke="#5E0A96" stroke-width="1.5" stroke-linecap="round" stroke-linejoin="round"/>
<path d="M2 58.5V56.5C2 53.78 3.64 51.88 6.19 51.56C6.45 51.52 6.72 51.5 7 51.5H16C16.26 51.5 16.51 51.51 16.75 51.55C19.33 51.85 21 53.76 21 56.5V57.95H18.92C18.36 57.95 17.85 58.17 17.48 58.55C17.06 58.96 16.82 59.55 16.88 60.18C16.97 61.26 17.96 62.05 19.04 62.05H21V63.5C21 66.5 19 68.5 16 68.5H13.5" stroke="#5E0A96" stroke-width="1.5" stroke-linecap="round" stroke-linejoin="round"/>
<path opacity="0.4" d="M3.92969 111.879L15.8797 99.9292" stroke="#5E0A96" stroke-width="1.5" stroke-miterlimit="10" stroke-linecap="round" stroke-linejoin="round"/>
<path opacity="0.4" d="M11.1013 114.279L12.3013 113.079" stroke="#5E0A96" stroke-width="1.5" stroke-miterlimit="10" stroke-linecap="round" stroke-linejoin="round"/>
<path opacity="0.4" d="M13.793 111.589L16.183 109.199" stroke="#5E0A96" stroke-width="1.5" stroke-miterlimit="10" stroke-linecap="round" stroke-linejoin="round"/>
<path d="M3.60127 106.239L10.2413 99.599C12.3613 97.479 13.4213 97.469 15.5213 99.569L20.4313 104.479C22.5313 106.579 22.5213 107.639 20.4013 109.759L13.7613 116.399C11.6413 118.519 10.5813 118.529 8.48127 116.429L3.57127 111.519C1.47127 109.419 1.47127 108.369 3.60127 106.239Z" stroke="#5E0A96" stroke-width="1.5" stroke-linecap="round" stroke-linejoin="round"/>
<path d="M2 117.999H22" stroke="#5E0A96" stroke-width="1.5" stroke-linecap="round" stroke-linejoin="round"/>
</svg>
