<svg width="46" height="44" viewBox="0 0 46 44" fill="none" xmlns="http://www.w3.org/2000/svg">
<path d="M45.9953 31.027C45.9724 30.6087 45.8554 30.201 45.6529 29.8342C45.4505 29.4675 45.1679 29.1512 44.8261 28.9089C44.4844 28.6666 44.0924 28.5045 43.6793 28.4349C43.2663 28.3652 42.8428 28.3896 42.4405 28.5064C43.7337 26.7408 44.4065 24.6163 44.4065 22.2464C44.4065 17.8871 40.7355 11.8991 37.4533 9.45745C37.3522 9.382 37.2613 9.29389 37.1827 9.19529C38.0792 9.07013 38.9929 9.17602 39.837 9.50294C40.6811 9.82986 41.4277 10.367 42.0061 11.0633C42.121 11.2002 42.2856 11.2858 42.4637 11.3013C42.6417 11.3168 42.8186 11.261 42.9555 11.146C43.0924 11.0311 43.178 10.8665 43.1935 10.6884C43.209 10.5104 43.1531 10.3335 43.0382 10.1966C42.3343 9.35652 41.4364 8.7005 40.4221 8.28526C39.708 7.99586 38.9488 7.83349 38.1787 7.8055C38.7854 7.42025 39.5644 7.11208 40.4699 7.16778C41.1988 7.22114 41.898 7.47784 42.4883 7.90873C42.5601 7.96154 42.6418 7.99956 42.7285 8.02058C42.8151 8.0416 42.9051 8.04521 42.9932 8.03119C43.0813 8.01717 43.1657 7.98581 43.2416 7.93892C43.3174 7.89202 43.3832 7.83054 43.4351 7.75802C43.4871 7.68551 43.5241 7.60341 43.544 7.51648C43.564 7.42956 43.5665 7.33953 43.5514 7.25163C43.5363 7.16374 43.5039 7.07971 43.4561 7.00443C43.4082 6.92915 43.3459 6.86411 43.2728 6.81308C42.477 6.23319 41.5337 5.88984 40.5513 5.82255C39.5899 5.76987 38.6335 5.99313 37.7947 6.46602L39.7614 3.58275C39.9497 3.30669 40.0616 2.98576 40.0858 2.6525C40.11 2.31925 40.0456 1.98552 39.8992 1.68517C39.7528 1.38482 39.5295 1.12853 39.2521 0.942292C38.9747 0.756057 38.653 0.646501 38.3195 0.624735C37.9218 0.599262 37.5261 0.699017 37.1879 0.909989L35.3755 2.04696C35.1192 2.20917 34.8152 2.27899 34.5138 2.24486C34.2124 2.21073 33.9317 2.0747 33.7182 1.85928L32.9281 1.06937C32.7176 0.858621 32.4676 0.691437 32.1924 0.577378C31.9172 0.46332 31.6223 0.404625 31.3244 0.40465C31.0265 0.404675 30.7315 0.463419 30.4564 0.577524C30.1812 0.691629 29.9312 0.858855 29.7208 1.06964L28.9433 1.84787C28.7279 2.06503 28.4444 2.20152 28.1403 2.23445C27.8362 2.26738 27.53 2.19474 27.2731 2.02872L25.6131 0.965422C25.2853 0.754157 24.9001 0.649812 24.5105 0.666782L24.4085 0.671184C24.0707 0.685071 23.7428 0.789061 23.4588 0.972369C23.1748 1.15568 22.945 1.41163 22.7932 1.71368C22.6415 2.01573 22.5733 2.35288 22.5957 2.69017C22.6181 3.02746 22.7304 3.35261 22.9208 3.63189L25.5346 7.46463C25.6487 7.63019 25.7269 7.81788 25.7639 8.01555C25.8009 8.21322 25.796 8.41646 25.7495 8.61211C25.6707 8.95046 25.4747 9.24996 25.1961 9.45745C22.5191 11.4475 19.7252 15.6748 18.6973 19.2901C18.4105 20.2499 18.2575 21.2447 18.2426 22.2464C18.2426 24.0185 18.6198 25.658 19.3623 27.124C18.3932 27.1396 17.4309 27.2896 16.5029 27.5697L15.2116 27.9578C15.0145 27.5709 14.707 27.2512 14.3281 27.0393C13.9491 26.8273 13.5158 26.7325 13.083 26.767L7.6555 27.1972L7.65325 27.1974L0.618394 27.7782C0.530201 27.7855 0.444305 27.8101 0.365611 27.8505C0.286916 27.891 0.216965 27.9466 0.15975 28.0141C0.102535 28.0816 0.0591781 28.1597 0.0321534 28.244C0.00512879 28.3283 -0.00503384 28.417 0.00224581 28.5052C0.00952545 28.5934 0.0341048 28.6793 0.0745805 28.758C0.115056 28.8367 0.170635 28.9067 0.238145 28.9639C0.305655 29.0211 0.383773 29.0644 0.468038 29.0915C0.552304 29.1185 0.641068 29.1287 0.729261 29.1214L7.09173 28.596L8.15278 41.6526L0.620551 42.2498C0.447173 42.2637 0.285886 42.3441 0.170431 42.4742C0.0549749 42.6043 -0.00570547 42.774 0.00108363 42.9478C0.00787274 43.1216 0.0816053 43.286 0.206857 43.4067C0.332109 43.5274 0.499176 43.595 0.673109 43.5953C0.690958 43.5953 0.708927 43.5946 0.727015 43.5932L14.3602 42.5124C14.9401 42.4655 15.4777 42.1905 15.8551 41.7477C16.2325 41.3049 16.4188 40.7305 16.3731 40.1505L16.3457 39.8152C16.5622 39.8121 16.7783 39.834 16.9898 39.8803L28.927 42.511C29.7172 42.6848 30.5352 42.6905 31.3278 42.5275C32.1204 42.3646 32.8698 42.0368 33.5274 41.5654L44.8347 33.4566C45.2185 33.1834 45.5264 32.8171 45.7295 32.392C45.9325 31.9669 46.024 31.4972 45.9953 31.027ZM14.2534 41.169L9.4963 41.546L8.43498 28.4873L13.1897 28.1104C13.3006 28.1017 13.4121 28.115 13.5178 28.1494C13.6236 28.1838 13.7215 28.2387 13.806 28.311C13.8905 28.3833 13.9599 28.4716 14.0102 28.5708C14.0606 28.6699 14.0909 28.7781 14.0994 28.8889L14.2016 30.1387C14.2021 30.1441 14.2023 30.1494 14.203 30.1546L15.0299 40.2588C15.0473 40.4823 14.9753 40.7037 14.8298 40.8743C14.6842 41.045 14.477 41.1509 14.2534 41.169ZM24.0344 2.87272C23.9793 2.79198 23.9469 2.69796 23.9404 2.60044C23.934 2.50292 23.9538 2.40546 23.9978 2.31818C24.0418 2.23091 24.1083 2.157 24.1905 2.10416C24.2727 2.05131 24.3676 2.02145 24.4653 2.01767L24.5683 2.01318C24.6806 2.00829 24.7917 2.03863 24.8859 2.09997L26.5463 3.16363C27.0614 3.49676 27.6754 3.64258 28.2853 3.57662C28.8951 3.51066 29.4637 3.23693 29.8957 2.80138L30.6742 2.02216C30.7596 1.93662 30.861 1.86876 30.9726 1.82246C31.0842 1.77617 31.2039 1.75235 31.3248 1.75238C31.4456 1.7524 31.5653 1.77627 31.6769 1.82261C31.7885 1.86895 31.8899 1.93685 31.9752 2.02243L32.7654 2.81234C33.1941 3.24464 33.7576 3.51756 34.3626 3.58592C34.9676 3.65428 35.5778 3.51398 36.0921 3.18825L37.9027 2.05253C38.0006 1.99046 38.1159 1.9614 38.2317 1.96961C38.3279 1.97587 38.4208 2.00748 38.5009 2.06124C38.581 2.115 38.6455 2.189 38.6878 2.27572C38.73 2.36244 38.7486 2.45879 38.7416 2.55501C38.7346 2.65123 38.7023 2.74388 38.6479 2.82357L36.0001 6.70563C35.6989 7.1454 35.5304 7.66245 35.5147 8.19524C34.1052 8.55194 32.657 8.73244 31.2031 8.73259H31.1973C29.8287 8.7319 28.4649 8.57143 27.1335 8.25444C27.1279 7.70144 26.9589 7.16245 26.6478 6.70518L24.0344 2.87272ZM19.9935 19.6589C20.9502 16.2943 23.5324 12.3735 26.0004 10.5387C26.3453 10.2815 26.6269 9.94882 26.8234 9.56607C28.2562 9.907 29.724 10.0796 31.1968 10.0802H31.2031C32.7523 10.0802 34.2957 9.8899 35.7985 9.51369C35.9957 9.91863 36.2873 10.2702 36.6489 10.5388C39.6132 12.7439 43.0589 18.3383 43.0589 22.2464C43.0589 25.0833 41.9605 27.5133 39.882 29.2835L31.5874 31.8073C31.287 31.4139 30.8912 31.1037 30.4374 30.9061L23.7369 27.9945C22.8528 27.6107 21.9201 27.3504 20.965 27.2209C20.8438 27.0293 20.7299 26.8331 20.6238 26.6327C19.9379 25.3288 19.5903 23.853 19.5903 22.2464C19.6053 21.3695 19.741 20.4988 19.9935 19.6589ZM44.0499 32.361L32.742 40.4703C32.2381 40.8314 31.6639 41.0825 31.0566 41.2073C30.4493 41.3322 29.8226 41.3279 29.2171 41.1949L17.2805 38.5645C16.9376 38.4894 16.5866 38.4579 16.2358 38.4708L15.5442 30.0215V30.021L15.4839 29.2834L16.8913 28.8603C18.972 28.235 21.2068 28.3662 23.2001 29.2306L29.9004 32.1424C30.2569 32.2964 30.5431 32.5779 30.7027 32.9319C30.8624 33.2859 30.8841 33.6868 30.7636 34.0559C30.6431 34.4251 30.3891 34.7359 30.0514 34.9275C29.7136 35.1192 29.3165 35.1777 28.9378 35.0918L25.132 34.2332C24.9577 34.1939 24.7748 34.2254 24.6238 34.3209C24.4727 34.4164 24.3657 34.568 24.3264 34.7423C24.2871 34.9167 24.3186 35.0995 24.4141 35.2505C24.5096 35.4016 24.6612 35.5086 24.8355 35.5479L28.6403 36.4062C29.1089 36.5121 29.5964 36.5002 30.0593 36.3715C30.5221 36.2427 30.9458 36.0011 31.2923 35.6684C31.6389 35.3357 31.8975 34.9222 32.0449 34.4649C32.1924 34.0077 32.2241 33.521 32.1373 33.0485L40.4085 30.532C40.4172 30.5295 40.4258 30.5266 40.4345 30.5237L42.7904 29.8071C43.1177 29.7078 43.4696 29.728 43.7833 29.864C44.0971 30 44.3524 30.2431 44.5036 30.5498C44.6549 30.8565 44.6923 31.207 44.6092 31.5387C44.5261 31.8705 44.3279 32.1619 44.0499 32.3611L44.0499 32.361ZM31.3247 28.6565C32.8465 28.6562 34.334 28.2047 35.5991 27.359C36.8642 26.5133 37.8502 25.3115 38.4323 23.9055C39.0144 22.4995 39.1666 20.9525 38.8695 19.46C38.5724 17.9676 37.8395 16.5967 36.7633 15.5208C35.6872 14.4449 34.3162 13.7122 32.8236 13.4155C31.3311 13.1187 29.7841 13.2712 28.3782 13.8536C26.9724 14.436 25.7708 15.4222 24.9254 16.6875C24.08 17.9528 23.6287 19.4404 23.6287 20.9621C23.6312 23.0023 24.4429 24.9582 25.8857 26.4007C27.3285 27.8432 29.2846 28.6544 31.3247 28.6565ZM31.3247 14.6155C32.5799 14.6158 33.8069 14.9883 34.8504 15.6859C35.8939 16.3835 36.7071 17.3748 37.1872 18.5346C37.6673 19.6943 37.7928 20.9704 37.5477 22.2014C37.3026 23.4325 36.698 24.5632 35.8103 25.4506C34.9227 26.3381 33.7918 26.9424 32.5607 27.1871C31.3296 27.4319 30.0535 27.3061 28.8939 26.8257C27.7343 26.3452 26.7432 25.5317 26.0458 24.488C25.3485 23.4443 24.9764 22.2173 24.9764 20.9621C24.9785 19.2792 25.6481 17.6659 26.8382 16.4761C28.0284 15.2863 29.6419 14.6171 31.3247 14.6155ZM28.7062 19.8352C28.7062 20.0139 28.7771 20.1853 28.9035 20.3117C29.0299 20.438 29.2013 20.509 29.38 20.509H31.3673C31.2445 20.7422 31.0603 20.9375 30.8347 21.0738C30.6091 21.21 30.3506 21.2822 30.0871 21.2824H29.38C29.248 21.2824 29.119 21.3212 29.0089 21.3939C28.8988 21.4665 28.8124 21.57 28.7605 21.6913C28.7086 21.8126 28.6935 21.9465 28.717 22.0763C28.7405 22.2061 28.8016 22.3262 28.8928 22.4216L31.7215 25.3825C31.8457 25.5085 32.0144 25.5805 32.1912 25.5832C32.3681 25.5858 32.5389 25.5188 32.6668 25.3967C32.7946 25.2745 32.8694 25.1069 32.8748 24.9302C32.8803 24.7534 32.816 24.5815 32.6958 24.4517L30.8536 22.5232C31.326 22.3874 31.7544 22.1299 32.096 21.7764C32.4375 21.4229 32.6801 20.9858 32.7996 20.509H33.2695C33.4482 20.509 33.6196 20.438 33.746 20.3117C33.8723 20.1853 33.9433 20.0139 33.9433 19.8352C33.9433 19.6565 33.8723 19.4851 33.746 19.3587C33.6196 19.2324 33.4482 19.1614 33.2695 19.1614H32.7999C32.7322 18.8888 32.6236 18.628 32.4778 18.388H33.2694C33.4481 18.388 33.6195 18.317 33.7459 18.1907C33.8722 18.0643 33.9432 17.8929 33.9432 17.7142C33.9432 17.5355 33.8722 17.3641 33.7459 17.2377C33.6195 17.1113 33.4481 17.0404 33.2694 17.0404H29.38C29.2013 17.0404 29.0299 17.1113 28.9035 17.2377C28.7771 17.3641 28.7062 17.5355 28.7062 17.7142C28.7062 17.8929 28.7771 18.0643 28.9035 18.1907C29.0299 18.317 29.2013 18.388 29.38 18.388H30.0871C30.3506 18.3882 30.6091 18.4604 30.8347 18.5967C31.0603 18.733 31.2445 18.9282 31.3673 19.1614H29.38C29.2013 19.1614 29.0299 19.2324 28.9035 19.3587C28.7771 19.4851 28.7062 19.6565 28.7062 19.8352Z" fill="white"/>
</svg>
