<svg width="45" height="46" viewBox="0 0 45 46" fill="none" xmlns="http://www.w3.org/2000/svg">
<path d="M23.6812 1.07812C21.5148 1.08193 19.4381 1.96367 17.9066 3.53006C16.375 5.09645 15.5135 7.21968 15.5109 9.43431C15.5109 10.8574 15.8639 12.1972 16.4813 13.3731C15.5615 12.7172 14.5027 12.2935 13.3917 12.1368C11.1178 11.8234 8.88609 12.7233 7.31109 14.4253C7.18116 14.4692 7.06722 14.5521 6.98418 14.6633C6.90115 14.7745 6.8529 14.9087 6.84576 15.0484C6.83862 15.188 6.87291 15.3267 6.94415 15.4461C7.01539 15.5655 7.12025 15.6602 7.245 15.7176C7.26205 15.7255 7.2794 15.7327 7.29703 15.7392C8.35734 16.1201 9.26578 16.8101 9.94219 17.6971C8.2125 19.1116 6.83438 20.8021 5.94422 22.6881L5.94703 22.6708L6.04266 22.4753H5.43516C4.17514 22.4765 2.96702 22.9885 2.07592 23.8992C1.18482 24.8098 0.683521 26.0446 0.682032 27.3326V30.1084C0.683149 31.3967 1.18428 32.6319 2.07542 33.5428C2.96657 34.4538 4.17489 34.966 5.43516 34.9672H6.93281L6.81469 34.6179C6.83438 34.6754 6.86109 34.7286 6.89344 34.7774C8.14078 36.6577 9.88875 38.2591 11.9784 39.5111V44.5567C11.9775 44.6484 11.9943 44.7393 12.028 44.8243C12.0616 44.9093 12.1114 44.9866 12.1744 45.0518C12.2374 45.1171 12.3124 45.1689 12.3951 45.2043C12.4778 45.2397 12.5666 45.2581 12.6563 45.2582H18.0858C18.1751 45.2586 18.2636 45.241 18.3462 45.2064C18.4289 45.1717 18.504 45.1208 18.5674 45.0564C18.6307 44.9921 18.681 44.9156 18.7154 44.8313C18.7498 44.747 18.7676 44.6567 18.7678 44.5654V41.9434C21.9459 42.4911 25.2084 42.297 28.2712 41.4115V44.5625C28.2712 44.9449 28.575 45.2554 28.9491 45.2554H34.3814C34.5613 45.2554 34.7339 45.1824 34.8612 45.0525C34.9885 44.9226 35.0603 44.7464 35.0606 44.5625V37.8968C39.413 34.2067 40.988 28.8995 39.4059 24.0752C41.3508 22.724 41.9456 21.0852 42.0202 19.6032C43.0383 18.5969 43.8891 17.0516 43.9889 14.2241C43.9938 14.128 43.9798 14.0319 43.9478 13.9415C43.9157 13.8511 43.8662 13.7682 43.8022 13.6977C43.7382 13.6271 43.661 13.5705 43.5752 13.531C43.4894 13.4916 43.3967 13.4701 43.3027 13.4679C43.2103 13.466 43.1185 13.4827 43.0325 13.5171C42.9465 13.5515 42.8679 13.6028 42.8013 13.6682C42.7347 13.7337 42.6814 13.8118 42.6443 13.8983C42.6073 13.9848 42.5873 14.0779 42.5855 14.1723C42.5292 15.7694 42.1973 16.767 41.8331 17.5706C41.5097 16.9567 41.0639 16.4464 40.3988 16.3314C39.951 16.2629 39.4946 16.3736 39.1247 16.6405C38.745 16.9107 38.4413 17.3132 38.1966 17.8336C38.1876 17.8548 38.1796 17.8764 38.1727 17.8983C37.8577 18.7824 38.0348 19.7024 38.5917 20.2544C39.0938 20.7503 39.8517 20.8222 40.5802 20.6669C40.2919 21.3311 39.7589 22.0326 38.8702 22.7024C38.4924 21.8889 38.0339 21.1173 37.5019 20.3996C35.6372 17.8868 32.9625 16.0037 29.9053 14.8321C31.1633 13.3276 31.8544 11.4135 31.8544 9.43431C31.8514 7.2193 30.9894 5.09585 29.4573 3.52946C27.9252 1.96307 25.8481 1.08155 23.6812 1.07812ZM33.248 2.14475V3.51037H31.9148V4.94787H33.248V6.30919H34.6542V4.945H35.9887V3.5075H34.6528V2.14331H33.2466L33.248 2.14475ZM23.6812 2.51562C24.5703 2.51449 25.4509 2.69268 26.2725 3.03999C27.094 3.38731 27.8405 3.89691 28.4691 4.53962C29.0977 5.18232 29.5961 5.94549 29.9357 6.78541C30.2753 7.62533 30.4494 8.52549 30.4481 9.43431C30.4481 13.2624 27.4247 16.3487 23.6812 16.3487C22.7926 16.35 21.9125 16.1721 21.0912 15.8251C20.27 15.478 19.5238 14.9688 18.8954 14.3265C18.2671 13.6841 17.7689 12.9214 17.4294 12.0819C17.09 11.2424 16.9159 10.3427 16.9172 9.43431C16.9155 8.52562 17.0893 7.62553 17.4286 6.78563C17.7679 5.94573 18.266 5.18253 18.8944 4.53979C19.5227 3.89705 20.269 3.3874 21.0905 3.04005C21.9119 2.6927 22.7923 2.51449 23.6812 2.51562ZM12.2245 3.53194C11.108 3.53194 10.1869 4.4735 10.1869 5.61631C10.1869 6.75625 11.108 7.69781 12.2259 7.69781C13.3425 7.69781 14.2608 6.75625 14.2608 5.61487C14.2608 4.4735 13.3425 3.53194 12.2245 3.53194ZM20.3245 3.87981V3.89419H20.2922V5.28137H21.6872C22.9542 5.28137 23.5955 5.89519 23.8261 6.65706H20.3245V8.04425H23.8261C23.5969 8.80612 22.9556 9.42281 21.6872 9.42281H20.2922V10.81H20.693L24.8344 14.9845L25.7906 13.9984L22.538 10.7166C23.1913 10.5874 23.7933 10.2653 24.2695 9.79012C24.7456 9.3149 25.075 8.70741 25.2169 8.04281H27.0703V6.65706H25.2169C25.1052 6.14945 24.8826 5.67424 24.5658 5.267H27.0703V3.88125H20.3245V3.87981ZM12.2245 4.922C12.6084 4.922 12.9038 5.22387 12.9038 5.61487C12.9038 6.00731 12.6084 6.30919 12.2245 6.30919C12.135 6.31055 12.0462 6.29351 11.9632 6.25908C11.8803 6.22465 11.805 6.17354 11.7418 6.10877C11.6786 6.04401 11.6287 5.96691 11.5952 5.88207C11.5617 5.79722 11.5452 5.70636 11.5467 5.61487C11.5467 5.22387 11.842 4.922 12.2245 4.922ZM12.5873 13.4651C12.7941 13.4679 13.0022 13.4837 13.2117 13.5125C14.1699 13.6478 15.0799 14.0255 15.8591 14.6114C16.6383 15.1973 17.2621 15.9728 17.6738 16.8676C17.7086 16.9552 17.7605 17.0346 17.8264 17.101C17.8923 17.1673 17.9708 17.2192 18.057 17.2535C18.1432 17.2877 18.2354 17.3036 18.3278 17.3002C18.4203 17.2967 18.5111 17.274 18.5946 17.2334C18.6782 17.1928 18.7527 17.1352 18.8137 17.0641C18.8747 16.993 18.9208 16.9099 18.9493 16.82C18.9778 16.73 18.9879 16.635 18.9792 16.5409C18.9705 16.4467 18.9431 16.3554 18.8986 16.2725C18.8761 16.2236 18.8466 16.1805 18.8227 16.1331C20.2737 17.2437 22.0466 17.8259 23.8589 17.7868C25.6712 17.7477 27.4186 17.0896 28.8225 15.9174C31.9233 16.9826 34.6177 18.8111 36.4191 21.2391C40.2286 26.3738 39.2639 32.7994 33.9891 37.0688C33.9359 37.1123 33.8895 37.1636 33.8513 37.2212L33.8217 37.2629C33.7445 37.3785 33.7034 37.5153 33.7036 37.6553V43.8653H29.6297V40.5979C29.6296 40.4992 29.609 40.4017 29.5692 40.3118L29.5594 40.2917C29.4903 40.1352 29.3671 40.0104 29.2133 39.9414C29.0596 39.8724 28.8863 39.864 28.7269 39.9179C25.4447 41.0248 21.7927 41.2404 18.3417 40.5274C18.2451 40.5074 18.1453 40.5091 18.0494 40.5324C17.9535 40.5558 17.8637 40.6002 17.7863 40.6626L17.6667 40.7603C17.5859 40.8254 17.5207 40.9084 17.4759 41.003C17.431 41.0976 17.4078 41.2014 17.408 41.3066V43.8653H13.3341V39.1791C13.334 39.0754 13.3113 38.973 13.2675 38.8795C13.2237 38.7859 13.1599 38.7036 13.0809 38.6386L12.9178 38.5063C12.8899 38.4834 12.8603 38.4627 12.8292 38.4445C10.838 37.2844 9.21516 35.7765 8.06203 34.0558H8.05781C8.01133 33.9195 7.92447 33.8014 7.80929 33.718C7.69411 33.6345 7.55634 33.5898 7.41516 33.5901H5.43516C4.79597 33.5932 4.16917 33.41 3.6282 33.0619C3.08723 32.7139 2.65452 32.2154 2.38078 31.625H4.51828V30.1875H2.04609C2.04609 30.1645 2.04047 30.1444 2.04047 30.1199V29.4443H3.35109V28.0571H2.03906V27.3427C2.03607 26.8861 2.12184 26.4335 2.29138 26.0111C2.46092 25.5887 2.71085 25.205 3.02668 24.8821C3.3425 24.5593 3.71792 24.3038 4.13113 24.1305C4.54434 23.9572 4.98712 23.8695 5.43375 23.8726H6.46031C6.58693 23.8731 6.71117 23.8374 6.81901 23.7696C6.92685 23.7018 7.014 23.6045 7.07063 23.4887L7.16203 23.3004H7.16484C7.93547 21.666 9.13781 20.1796 10.658 18.906C10.7944 19.2136 10.9153 19.5327 11.0011 19.8662C11.0225 19.9558 11.0612 20.0401 11.1149 20.1142C11.1685 20.1883 11.2361 20.2508 11.3136 20.2979C11.3911 20.345 11.4771 20.3759 11.5664 20.3887C11.6557 20.4015 11.7466 20.396 11.8338 20.3726C11.921 20.3491 12.0028 20.3081 12.0744 20.2519C12.1459 20.1958 12.2058 20.1257 12.2506 20.0456C12.2953 19.9656 12.324 19.8772 12.335 19.7857C12.346 19.6942 12.339 19.6014 12.3145 19.5126C12.2084 19.116 12.0648 18.7308 11.8856 18.3626C11.8856 18.3597 11.8814 18.3583 11.88 18.3569C11.3597 17.2629 10.5441 16.3688 9.57375 15.6616C10.1939 15.6371 11.115 15.4114 11.4539 15.5624C12.1289 15.8642 12.4903 16.4392 12.7673 17.5145C12.7888 17.6041 12.8275 17.6883 12.8811 17.7625C12.9348 17.8366 13.0023 17.899 13.0799 17.9461C13.1574 17.9933 13.2433 18.0241 13.3326 18.037C13.4219 18.0498 13.5129 18.0443 13.6001 18.0208C13.6873 17.9973 13.7691 17.9563 13.8406 17.9002C13.9122 17.8441 13.9721 17.7739 14.0168 17.6939C14.0616 17.6138 14.0903 17.5255 14.1012 17.434C14.1122 17.3424 14.1053 17.2496 14.0808 17.1609C13.7503 15.8844 13.1316 14.7976 11.9953 14.2902C11.5284 14.0832 10.987 13.9955 10.3922 13.9768C11.0855 13.6606 11.8181 13.4593 12.5859 13.4651H12.5873ZM40.1667 17.7502C40.3031 17.7732 40.6167 18.0061 40.7841 18.5265C40.8206 18.6415 40.7334 18.8442 40.7531 18.9764C40.6322 19.0526 40.4944 19.3042 40.3861 19.3387C39.9909 19.4637 39.7153 19.3646 39.5705 19.2208C39.4298 19.0814 39.3483 18.86 39.4959 18.4158C39.6548 18.0996 39.8166 17.8983 39.9277 17.8192C40.0458 17.7344 40.0964 17.7387 40.1667 17.7502ZM18.2813 18.6875V20.125H29.1445V18.6875H18.2813ZM12.9038 22.4322C12.3521 22.4385 11.8248 22.6656 11.435 23.0646C11.0452 23.4637 10.8238 24.003 10.8183 24.5669C10.8183 25.7269 11.7689 26.6972 12.9038 26.6972C14.0386 26.6972 14.9878 25.7269 14.9878 24.5669C14.9823 24.0032 14.7611 23.4641 14.3716 23.0651C13.9821 22.6661 13.4552 22.4389 12.9038 22.4322ZM12.9038 23.8222C13.2891 23.8222 13.6308 24.173 13.6308 24.5669C13.6248 24.7618 13.5461 24.9469 13.411 25.0845C13.2759 25.2221 13.0944 25.3018 12.9038 25.3072C12.7128 25.3021 12.531 25.2227 12.3956 25.085C12.2602 24.9474 12.1814 24.762 12.1753 24.5669C12.1753 24.173 12.5184 23.8222 12.9038 23.8222ZM34.9889 37.9759L34.972 38.0046L34.8314 38.1584C34.8989 38.1052 34.9242 38.0291 34.9889 37.9759Z" fill="#7E3BAB"/>
</svg>
