<svg width="15" height="16" viewBox="0 0 15 16" fill="none" xmlns="http://www.w3.org/2000/svg">
<path d="M4.0099 15.2456C3.38034 15.2456 2.78264 15.0942 2.25668 14.7914C1.01348 14.0742 0.328125 12.616 0.328125 10.6955V5.01378C0.328125 3.08534 1.01348 1.63503 2.25668 0.917848C3.49987 0.200662 5.10169 0.33613 6.77522 1.30035L11.6922 4.13722C13.3578 5.10143 14.2822 6.42425 14.2822 7.85862C14.2822 9.29299 13.3658 10.6158 11.6922 11.58L6.77522 14.4169C5.81095 14.9667 4.87058 15.2456 4.0099 15.2456ZM4.0099 1.65097C3.57957 1.65097 3.19704 1.7466 2.85437 1.94581C1.99369 2.43988 1.52351 3.53159 1.52351 5.01378V10.6875C1.52351 12.1697 1.99369 13.2535 2.85437 13.7555C3.71504 14.2575 4.89449 14.1141 6.17753 13.373L11.0945 10.5361C12.3776 9.79502 13.0868 8.84674 13.0868 7.85065C13.0868 6.85456 12.3776 5.90628 11.0945 5.16518L6.17753 2.32831C5.39655 1.88207 4.66338 1.65097 4.0099 1.65097Z" fill="#EFE7F5"/>
</svg>
