<svg width="426" height="386" viewBox="0 0 426 386" fill="none" xmlns="http://www.w3.org/2000/svg">
<g filter="url(#filter0_d_1_25)">
<rect x="61" y="57" width="304" height="263" rx="20" fill="white"/>
</g>
<rect x="296" y="81" width="48.8859" height="23" rx="11.5" fill="#20B94B" fill-opacity="0.15"/>
<path d="M307.235 94.6129V88.76H308.563V94.6129H307.235ZM304.972 92.3504V91.0225H310.825V92.3504H304.972ZM312.374 96V94.8666L315.381 91.9191C315.668 91.6287 315.908 91.3707 316.1 91.1452C316.292 90.9196 316.435 90.7011 316.531 90.4897C316.627 90.2782 316.675 90.0527 316.675 89.813C316.675 89.5396 316.613 89.3056 316.489 89.111C316.365 88.9137 316.194 88.7614 315.977 88.6543C315.76 88.5472 315.513 88.4936 315.237 88.4936C314.952 88.4936 314.703 88.5528 314.489 88.6712C314.274 88.7868 314.108 88.9517 313.99 89.166C313.874 89.3803 313.816 89.6354 313.816 89.9314H312.323C312.323 89.3817 312.449 88.9038 312.7 88.4978C312.951 88.0918 313.296 87.7775 313.736 87.5548C314.178 87.332 314.686 87.2207 315.258 87.2207C315.839 87.2207 316.349 87.3292 316.789 87.5463C317.229 87.7634 317.57 88.0608 317.813 88.4386C318.058 88.8164 318.18 89.2478 318.18 89.7327C318.18 90.0569 318.118 90.3755 317.994 90.6884C317.87 91.0014 317.652 91.3481 317.339 91.7288C317.029 92.1094 316.593 92.5703 316.032 93.1116L314.539 94.6298V94.689H318.312V96H312.374ZM322.972 96.1649C322.276 96.1649 321.678 95.9887 321.179 95.6363C320.683 95.2811 320.301 94.7694 320.033 94.1012C319.768 93.4302 319.635 92.6225 319.635 91.678C319.638 90.7335 319.772 89.93 320.037 89.2675C320.305 88.6021 320.687 88.0947 321.183 87.7451C321.682 87.3955 322.278 87.2207 322.972 87.2207C323.665 87.2207 324.262 87.3955 324.761 87.7451C325.26 88.0947 325.642 88.6021 325.907 89.2675C326.175 89.9329 326.309 90.7364 326.309 91.678C326.309 92.6253 326.175 93.4344 325.907 94.1054C325.642 94.7736 325.26 95.2839 324.761 95.6363C324.265 95.9887 323.668 96.1649 322.972 96.1649ZM322.972 94.8413C323.513 94.8413 323.94 94.5748 324.253 94.042C324.569 93.5063 324.727 92.7183 324.727 91.678C324.727 90.9901 324.655 90.4121 324.511 89.9441C324.367 89.4761 324.164 89.1237 323.902 88.8869C323.64 88.6473 323.33 88.5274 322.972 88.5274C322.433 88.5274 322.008 88.7953 321.695 89.3309C321.382 89.8638 321.224 90.6461 321.221 91.678C321.218 92.3687 321.287 92.9495 321.428 93.4203C321.572 93.8912 321.775 94.2464 322.037 94.486C322.299 94.7229 322.611 94.8413 322.972 94.8413ZM332.344 94.3761V93.9194C332.344 93.5839 332.415 93.2751 332.556 92.9932C332.7 92.7113 332.908 92.4843 333.182 92.3123C333.455 92.1404 333.786 92.0544 334.175 92.0544C334.576 92.0544 334.911 92.1404 335.182 92.3123C335.453 92.4815 335.657 92.7071 335.795 92.989C335.936 93.2709 336.007 93.581 336.007 93.9194V94.3761C336.007 94.7116 335.936 95.0203 335.795 95.3022C335.654 95.5842 335.447 95.8111 335.173 95.9831C334.903 96.1551 334.57 96.2411 334.175 96.2411C333.781 96.2411 333.447 96.1551 333.173 95.9831C332.9 95.8111 332.692 95.5842 332.552 95.3022C332.413 95.0203 332.344 94.7116 332.344 94.3761ZM333.448 93.9194V94.3761C333.448 94.5988 333.502 94.8032 333.609 94.9893C333.716 95.1754 333.905 95.2684 334.175 95.2684C334.449 95.2684 334.636 95.1768 334.738 94.9935C334.842 94.8074 334.894 94.6016 334.894 94.3761V93.9194C334.894 93.6938 334.845 93.488 334.746 93.3019C334.648 93.113 334.457 93.0186 334.175 93.0186C333.91 93.0186 333.723 93.113 333.613 93.3019C333.503 93.488 333.448 93.6938 333.448 93.9194ZM327.942 89.4197V88.963C327.942 88.6247 328.014 88.3146 328.158 88.0326C328.301 87.7507 328.51 87.5252 328.784 87.356C329.057 87.184 329.388 87.098 329.777 87.098C330.175 87.098 330.509 87.184 330.78 87.356C331.053 87.5252 331.259 87.7507 331.397 88.0326C331.535 88.3146 331.604 88.6247 331.604 88.963V89.4197C331.604 89.7581 331.534 90.0682 331.393 90.3501C331.255 90.6292 331.049 90.8534 330.775 91.0225C330.502 91.1917 330.169 91.2763 329.777 91.2763C329.38 91.2763 329.044 91.1917 328.771 91.0225C328.5 90.8534 328.294 90.6278 328.153 90.3459C328.012 90.064 327.942 89.7552 327.942 89.4197ZM329.054 88.963V89.4197C329.054 89.6453 329.106 89.8511 329.211 90.0372C329.318 90.2204 329.507 90.3121 329.777 90.3121C330.048 90.3121 330.234 90.2204 330.336 90.0372C330.44 89.8511 330.492 89.6453 330.492 89.4197V88.963C330.492 88.7375 330.443 88.5317 330.344 88.3456C330.245 88.1567 330.056 88.0622 329.777 88.0622C329.509 88.0622 329.322 88.1567 329.215 88.3456C329.108 88.5345 329.054 88.7403 329.054 88.963ZM328.424 96L334.378 87.3391H335.436L329.481 96H328.424Z" fill="#00AE31"/>
<path d="M108 77L105.113 82L110.887 82L108 77ZM108 275H107.5L107.5 275.5H108V275ZM329.5 275L324.5 272.113V277.887L329.5 275ZM107.5 81.5L107.5 275H108.5L108.5 81.5L107.5 81.5ZM108 275.5H325V274.5H108V275.5Z" fill="#BFBEC4"/>
<path d="M167.356 203.756C145.044 213.441 128 251.583 128 251.583V274.5H294V136.5C294 136.5 294 165.894 273.818 165.395C253.635 164.897 246.434 196.486 222.353 203.756C201.813 209.957 187.017 195.222 167.356 203.756Z" fill="url(#paint0_linear_1_25)"/>
<path d="M128 252C128 252 144.89 213.72 167 204C186.484 195.434 201.146 210.223 221.5 204C245.364 196.704 252.5 165 272.5 165.5C292.5 166 292.5 136.5 292.5 136.5" stroke="#00AF31" stroke-width="4" stroke-linecap="round"/>
<path d="M117.68 293.39C117.68 294.75 118.5 295.65 119.89 295.65C121.21 295.65 122.02 294.62 122.02 293.38V288.41H121.04V293.45C121.04 294.27 120.6 294.74 119.88 294.74C119.17 294.74 118.66 294.32 118.66 293.38V292.71L117.68 292.93V293.39ZM123.23 294.21C123.23 294.97 123.86 295.65 124.84 295.65C125.7 295.65 126.18 295.19 126.39 294.85C126.39 295.2 126.42 295.38 126.44 295.5H127.36C127.34 295.38 127.3 295.13 127.3 294.71V292.3C127.3 291.36 126.74 290.54 125.3 290.54C124.26 290.54 123.43 291.18 123.33 292.1L124.23 292.31C124.29 291.75 124.66 291.34 125.32 291.34C126.05 291.34 126.36 291.73 126.36 292.2C126.36 292.37 126.28 292.52 125.99 292.56L124.69 292.75C123.86 292.87 123.23 293.35 123.23 294.21ZM124.97 294.86C124.49 294.86 124.19 294.52 124.19 294.16C124.19 293.73 124.49 293.5 124.89 293.44L126.36 293.22V293.44C126.36 294.49 125.74 294.86 124.97 294.86ZM129.724 292.72C129.724 291.99 130.104 291.4 130.844 291.4C131.684 291.4 131.964 291.94 131.964 292.61V295.5H132.904V292.45C132.904 291.38 132.334 290.55 131.184 290.55C130.624 290.55 130.054 290.78 129.704 291.38V290.69H128.784V295.5H129.724V292.72Z" fill="#BFBEC4"/>
<path d="M149.002 295.5V292.52H152.022V291.6H149.002V289.32H152.332V288.41H148.022V295.5H149.002ZM153.961 292.6C154.001 291.98 154.481 291.37 155.271 291.37C156.121 291.37 156.571 291.91 156.591 292.6H153.961ZM156.731 293.85C156.551 294.39 156.161 294.82 155.381 294.82C154.571 294.82 153.951 294.22 153.931 293.36H157.551C157.561 293.3 157.571 293.18 157.571 293.06C157.571 291.56 156.741 290.54 155.261 290.54C154.051 290.54 152.961 291.57 152.961 293.08C152.961 294.71 154.091 295.65 155.381 295.65C156.501 295.65 157.271 294.98 157.541 294.13L156.731 293.85ZM159.68 295.5V294.8C159.98 295.32 160.53 295.63 161.24 295.63C162.67 295.63 163.48 294.5 163.48 293.07C163.48 291.67 162.73 290.55 161.27 290.55C160.47 290.55 159.91 290.94 159.68 291.37V288.26H158.75V295.5H159.68ZM162.52 293.07C162.52 294.11 161.96 294.79 161.1 294.79C160.27 294.79 159.67 294.11 159.67 293.07C159.67 292.03 160.27 291.38 161.1 291.38C161.97 291.38 162.52 292.03 162.52 293.07Z" fill="#BFBEC4"/>
<path d="M184.94 295.5V288.41H183.63L181.11 294.18L178.61 288.41H177.28V295.5H178.25V289.98L180.65 295.5H181.55L183.97 289.98V295.5H184.94ZM186.243 294.21C186.243 294.97 186.873 295.65 187.853 295.65C188.713 295.65 189.193 295.19 189.403 294.85C189.403 295.2 189.433 295.38 189.453 295.5H190.373C190.353 295.38 190.313 295.13 190.313 294.71V292.3C190.313 291.36 189.753 290.54 188.313 290.54C187.273 290.54 186.443 291.18 186.343 292.1L187.243 292.31C187.303 291.75 187.673 291.34 188.333 291.34C189.063 291.34 189.373 291.73 189.373 292.2C189.373 292.37 189.293 292.52 189.003 292.56L187.703 292.75C186.873 292.87 186.243 293.35 186.243 294.21ZM187.983 294.86C187.503 294.86 187.203 294.52 187.203 294.16C187.203 293.73 187.503 293.5 187.903 293.44L189.373 293.22V293.44C189.373 294.49 188.753 294.86 187.983 294.86ZM194.467 290.64C194.417 290.63 194.287 290.61 194.157 290.61C193.667 290.61 193.067 290.79 192.717 291.53V290.69H191.797V295.5H192.737V293.09C192.737 292.03 193.267 291.61 194.057 291.61C194.187 291.61 194.327 291.62 194.467 291.64V290.64Z" fill="#BFBEC4"/>
<path d="M213.04 295.5H214.1L211.28 288.41H210.15L207.33 295.5H208.38L209.13 293.52H212.27L213.04 295.5ZM210.69 289.43L211.92 292.61H209.48L210.69 289.43ZM215.96 297.4V294.85C216.22 295.28 216.78 295.63 217.52 295.63C218.93 295.63 219.76 294.52 219.76 293.09C219.76 291.69 218.99 290.58 217.55 290.58C216.77 290.58 216.2 290.96 215.94 291.44V290.69H215.03V297.4H215.96ZM218.8 293.09C218.8 294.08 218.25 294.79 217.38 294.79C216.52 294.79 215.95 294.08 215.95 293.09C215.95 292.13 216.52 291.41 217.38 291.41C218.26 291.41 218.8 292.13 218.8 293.09ZM223.637 290.64C223.587 290.63 223.457 290.61 223.327 290.61C222.837 290.61 222.237 290.79 221.887 291.53V290.69H220.967V295.5H221.907V293.09C221.907 292.03 222.437 291.61 223.227 291.61C223.357 291.61 223.497 291.62 223.637 291.64V290.64Z" fill="#BFBEC4"/>
<path d="M243.639 295.5V288.41H242.329L239.809 294.18L237.309 288.41H235.979V295.5H236.949V289.98L239.349 295.5H240.249L242.669 289.98V295.5H243.639ZM244.942 294.21C244.942 294.97 245.572 295.65 246.552 295.65C247.412 295.65 247.892 295.19 248.102 294.85C248.102 295.2 248.132 295.38 248.152 295.5H249.072C249.052 295.38 249.012 295.13 249.012 294.71V292.3C249.012 291.36 248.452 290.54 247.012 290.54C245.972 290.54 245.142 291.18 245.042 292.1L245.942 292.31C246.002 291.75 246.372 291.34 247.032 291.34C247.762 291.34 248.072 291.73 248.072 292.2C248.072 292.37 247.992 292.52 247.702 292.56L246.402 292.75C245.572 292.87 244.942 293.35 244.942 294.21ZM246.682 294.86C246.202 294.86 245.902 294.52 245.902 294.16C245.902 293.73 246.202 293.5 246.602 293.44L248.072 293.22V293.44C248.072 294.49 247.452 294.86 246.682 294.86ZM251.69 297.51L254.82 290.69H253.81L252.37 294.01L250.87 290.69H249.79L251.86 294.97L250.66 297.51H251.69Z" fill="#BFBEC4"/>
<path d="M267.499 293.39C267.499 294.75 268.319 295.65 269.709 295.65C271.029 295.65 271.839 294.62 271.839 293.38V288.41H270.859V293.45C270.859 294.27 270.419 294.74 269.699 294.74C268.989 294.74 268.479 294.32 268.479 293.38V292.71L267.499 292.93V293.39ZM276.549 294.92C276.549 295.12 276.569 295.39 276.589 295.5H277.489C277.469 295.33 277.439 294.99 277.439 294.61V290.69H276.499V293.59C276.499 294.32 276.119 294.82 275.359 294.82C274.569 294.82 274.269 294.24 274.269 293.58V290.69H273.329V293.72C273.329 294.81 274.009 295.65 275.129 295.65C275.689 295.65 276.289 295.42 276.549 294.92ZM279.905 292.72C279.905 291.99 280.285 291.4 281.025 291.4C281.865 291.4 282.145 291.94 282.145 292.61V295.5H283.085V292.45C283.085 291.38 282.515 290.55 281.365 290.55C280.805 290.55 280.235 290.78 279.885 291.38V290.69H278.965V295.5H279.905V292.72Z" fill="#BFBEC4"/>
<path d="M296.371 293.39C296.371 294.75 297.191 295.65 298.581 295.65C299.901 295.65 300.711 294.62 300.711 293.38V288.41H299.731V293.45C299.731 294.27 299.291 294.74 298.571 294.74C297.861 294.74 297.351 294.32 297.351 293.38V292.71L296.371 292.93V293.39ZM305.421 294.92C305.421 295.12 305.441 295.39 305.461 295.5H306.361C306.341 295.33 306.311 294.99 306.311 294.61V290.69H305.371V293.59C305.371 294.32 304.991 294.82 304.231 294.82C303.441 294.82 303.141 294.24 303.141 293.58V290.69H302.201V293.72C302.201 294.81 302.881 295.65 304.001 295.65C304.561 295.65 305.161 295.42 305.421 294.92ZM308.777 295.5V288.26H307.837V295.5H308.777ZM311.638 297.51L314.768 290.69H313.758L312.318 294.01L310.818 290.69H309.738L311.808 294.97L310.608 297.51H311.638Z" fill="#BFBEC4"/>
<path d="M87.8233 121.06C87.7733 122.84 86.9233 123.77 85.5433 123.77C84.9533 123.77 84.3633 123.54 84.0733 123.25L83.7633 124.02C84.1233 124.39 84.8733 124.63 85.5633 124.63C87.6233 124.63 88.7633 123.29 88.7633 120.68C88.7633 118.46 87.6733 117.28 86.1033 117.28C84.6433 117.29 83.5933 118.27 83.5933 119.69C83.5933 121.16 84.6933 122.03 85.9633 122.03C86.7633 122.03 87.4933 121.6 87.8233 121.06ZM87.6133 119.63C87.6133 120.58 86.9533 121.2 86.0733 121.2C85.2033 121.2 84.5233 120.61 84.5233 119.65C84.5233 118.72 85.2033 118.13 86.0633 118.13C86.9233 118.13 87.6033 118.71 87.6133 119.63ZM89.8547 120.96C89.8547 122.61 90.4147 124.63 92.5947 124.63C94.7847 124.63 95.3347 122.62 95.3347 120.96C95.3347 119.28 94.7647 117.28 92.5947 117.28C90.4247 117.28 89.8547 119.28 89.8547 120.96ZM94.3647 120.96C94.3647 122.38 93.9847 123.76 92.5947 123.76C91.2047 123.76 90.8347 122.38 90.8347 120.96C90.8347 119.53 91.1947 118.16 92.5947 118.16C93.9847 118.16 94.3647 119.54 94.3647 120.96Z" fill="#BFBEC4"/>
<path d="M83.9306 100.5V93.41H83.0706C82.9206 94.11 82.3006 94.61 81.4006 94.63V95.32H82.9706V100.5H83.9306ZM85.2453 96.96C85.2453 98.61 85.8053 100.63 87.9853 100.63C90.1753 100.63 90.7253 98.62 90.7253 96.96C90.7253 95.28 90.1553 93.28 87.9853 93.28C85.8153 93.28 85.2453 95.28 85.2453 96.96ZM89.7553 96.96C89.7553 98.38 89.3753 99.76 87.9853 99.76C86.5953 99.76 86.2253 98.38 86.2253 96.96C86.2253 95.53 86.5853 94.16 87.9853 94.16C89.3753 94.16 89.7553 95.54 89.7553 96.96ZM91.8273 96.96C91.8273 98.61 92.3873 100.63 94.5673 100.63C96.7573 100.63 97.3073 98.62 97.3073 96.96C97.3073 95.28 96.7373 93.28 94.5673 93.28C92.3973 93.28 91.8273 95.28 91.8273 96.96ZM96.3373 96.96C96.3373 98.38 95.9573 99.76 94.5673 99.76C93.1773 99.76 92.8073 98.38 92.8073 96.96C92.8073 95.53 93.1673 94.16 94.5673 94.16C95.9573 94.16 96.3373 95.54 96.3373 96.96Z" fill="#BFBEC4"/>
<path d="M86.207 145.26C87.217 145.26 87.747 145.84 87.747 146.54C87.747 147.23 87.187 147.81 86.207 147.81C85.227 147.81 84.667 147.23 84.667 146.54C84.667 145.84 85.197 145.26 86.207 145.26ZM86.207 148.63C87.737 148.63 88.697 147.78 88.697 146.63C88.697 145.8 88.137 145.1 87.287 144.87C88.067 144.64 88.557 143.95 88.557 143.22C88.557 142.1 87.607 141.28 86.207 141.28C84.807 141.28 83.857 142.1 83.857 143.22C83.857 143.95 84.347 144.64 85.117 144.87C84.277 145.1 83.717 145.8 83.717 146.63C83.717 147.78 84.677 148.63 86.207 148.63ZM86.207 144.49C85.357 144.48 84.817 143.97 84.817 143.28C84.817 142.62 85.327 142.11 86.207 142.11C87.087 142.11 87.597 142.62 87.597 143.28C87.597 143.97 87.067 144.48 86.207 144.49ZM89.801 144.96C89.801 146.61 90.361 148.63 92.541 148.63C94.731 148.63 95.281 146.62 95.281 144.96C95.281 143.28 94.711 141.28 92.541 141.28C90.371 141.28 89.801 143.28 89.801 144.96ZM94.311 144.96C94.311 146.38 93.931 147.76 92.541 147.76C91.151 147.76 90.781 146.38 90.781 144.96C90.781 143.53 91.141 142.16 92.541 142.16C93.931 142.16 94.311 143.54 94.311 144.96Z" fill="#BFBEC4"/>
<path d="M88.8507 165.41H83.6907V166.31H87.7007C86.9207 167.05 85.1307 169.01 84.8107 172.5H85.8207C86.1407 169.23 87.7007 167.32 88.8507 166.26V165.41ZM89.5373 168.96C89.5373 170.61 90.0973 172.63 92.2773 172.63C94.4673 172.63 95.0173 170.62 95.0173 168.96C95.0173 167.28 94.4473 165.28 92.2773 165.28C90.1073 165.28 89.5373 167.28 89.5373 168.96ZM94.0473 168.96C94.0473 170.38 93.6673 171.76 92.2773 171.76C90.8873 171.76 90.5173 170.38 90.5173 168.96C90.5173 167.53 90.8773 166.16 92.2773 166.16C93.6673 166.16 94.0473 167.54 94.0473 168.96Z" fill="#BFBEC4"/>
<path d="M84.5245 193.01C84.6345 191.38 85.5445 190.15 87.1845 190.15C87.7145 190.15 88.1445 190.3 88.4545 190.47L88.7345 189.65C88.4145 189.44 87.8945 189.28 87.2345 189.28C85.1945 189.28 83.5945 190.69 83.5945 193.38C83.5945 195.45 84.7645 196.63 86.3145 196.63C87.7345 196.63 88.8745 195.63 88.8745 194.21C88.8745 192.79 87.9045 191.83 86.5545 191.83C85.5345 191.83 84.8045 192.34 84.5245 193.01ZM84.7145 194.23C84.7145 193.31 85.4345 192.66 86.3245 192.66C87.2145 192.66 87.9145 193.26 87.9145 194.23C87.9145 195.17 87.1845 195.79 86.3045 195.79C85.4545 195.79 84.7145 195.16 84.7145 194.23ZM89.9035 192.96C89.9035 194.61 90.4635 196.63 92.6435 196.63C94.8335 196.63 95.3835 194.62 95.3835 192.96C95.3835 191.28 94.8135 189.28 92.6435 189.28C90.4735 189.28 89.9035 191.28 89.9035 192.96ZM94.4135 192.96C94.4135 194.38 94.0335 195.76 92.6435 195.76C91.2535 195.76 90.8835 194.38 90.8835 192.96C90.8835 191.53 91.2435 190.16 92.6435 190.16C94.0335 190.16 94.4135 191.54 94.4135 192.96Z" fill="#BFBEC4"/>
<path d="M83.6546 218.53C83.7546 219.67 84.7346 220.63 86.1546 220.63C87.7246 220.63 88.6946 219.55 88.6946 218.24C88.6946 216.79 87.7546 215.89 86.3446 215.89C85.8246 215.89 85.1846 216.08 84.8346 216.48L85.2946 214.31H88.3646V213.41H84.6246L83.8546 217.04L84.7446 217.37C85.0546 216.97 85.5546 216.7 86.1546 216.7C87.0546 216.7 87.7246 217.27 87.7246 218.25C87.7246 219.14 87.0846 219.77 86.1546 219.77C85.2346 219.77 84.6246 219.12 84.5446 218.31L83.6546 218.53ZM89.7033 216.96C89.7033 218.61 90.2633 220.63 92.4433 220.63C94.6333 220.63 95.1833 218.62 95.1833 216.96C95.1833 215.28 94.6133 213.28 92.4433 213.28C90.2733 213.28 89.7033 215.28 89.7033 216.96ZM94.2133 216.96C94.2133 218.38 93.8333 219.76 92.4433 219.76C91.0533 219.76 90.6833 218.38 90.6833 216.96C90.6833 215.53 91.0433 214.16 92.4433 214.16C93.8333 214.16 94.2133 215.54 94.2133 216.96Z" fill="#BFBEC4"/>
<path d="M83.4135 242.91H86.8135V244.5H87.7735V242.91H88.9935V242H87.7735V237.41H86.5335L83.4135 241.8V242.91ZM86.8135 242H84.3335L86.8135 238.48V242ZM89.8645 240.96C89.8645 242.61 90.4245 244.63 92.6045 244.63C94.7945 244.63 95.3445 242.62 95.3445 240.96C95.3445 239.28 94.7745 237.28 92.6045 237.28C90.4345 237.28 89.8645 239.28 89.8645 240.96ZM94.3745 240.96C94.3745 242.38 93.9945 243.76 92.6045 243.76C91.2145 243.76 90.8445 242.38 90.8445 240.96C90.8445 239.53 91.2045 238.16 92.6045 238.16C93.9945 238.16 94.3745 239.54 94.3745 240.96Z" fill="#BFBEC4"/>
<path d="M86.6319 264.22C86.5819 264.22 86.4719 264.23 86.4019 264.26L88.5319 262.22V261.41H83.8119V262.31H87.2919L85.1519 264.37L85.5819 265.08C85.7719 265 86.0219 264.94 86.2419 264.94C87.1119 264.94 87.7519 265.46 87.7519 266.35C87.7519 267.18 87.1119 267.77 86.1819 267.77C85.2919 267.77 84.5919 267.15 84.5519 266.21L83.6219 266.42C83.7019 267.66 84.6719 268.63 86.1919 268.63C87.7119 268.63 88.7219 267.6 88.7219 266.37C88.7219 265.06 87.7519 264.25 86.6319 264.22ZM89.7961 264.96C89.7961 266.61 90.3561 268.63 92.5361 268.63C94.7261 268.63 95.2761 266.62 95.2761 264.96C95.2761 263.28 94.7061 261.28 92.5361 261.28C90.3661 261.28 89.7961 263.28 89.7961 264.96ZM94.3061 264.96C94.3061 266.38 93.9261 267.76 92.5361 267.76C91.1461 267.76 90.7761 266.38 90.7761 264.96C90.7761 263.53 91.1361 262.16 92.5361 262.16C93.9261 262.16 94.3061 263.54 94.3061 264.96Z" fill="#BFBEC4"/>
<defs>
<filter id="filter0_d_1_25" x="0.369999" y="0.869999" width="425.26" height="384.26" filterUnits="userSpaceOnUse" color-interpolation-filters="sRGB">
<feFlood flood-opacity="0" result="BackgroundImageFix"/>
<feColorMatrix in="SourceAlpha" type="matrix" values="0 0 0 0 0 0 0 0 0 0 0 0 0 0 0 0 0 0 127 0" result="hardAlpha"/>
<feOffset dy="4.5"/>
<feGaussianBlur stdDeviation="30.315"/>
<feComposite in2="hardAlpha" operator="out"/>
<feColorMatrix type="matrix" values="0 0 0 0 0 0 0 0 0 0 0 0 0 0 0 0 0 0 0.15 0"/>
<feBlend mode="normal" in2="BackgroundImageFix" result="effect1_dropShadow_1_25"/>
<feBlend mode="normal" in="SourceGraphic" in2="effect1_dropShadow_1_25" result="shape"/>
</filter>
<linearGradient id="paint0_linear_1_25" x1="211" y1="136.5" x2="211" y2="274.998" gradientUnits="userSpaceOnUse">
<stop stop-color="#00AF31" stop-opacity="0.25"/>
<stop offset="1" stop-color="#00AF31" stop-opacity="0"/>
</linearGradient>
</defs>
</svg>
