<svg width="382" height="348" viewBox="0 0 382 348" fill="none" xmlns="http://www.w3.org/2000/svg">
<g filter="url(#filter0_d_2_58)">
<rect x="61.0391" y="57" width="260" height="224.934" rx="20" fill="white"/>
</g>
<rect x="262.023" y="77.5264" width="48.8859" height="23" rx="11.5" fill="#20B94B" fill-opacity="0.15"/>
<path d="M273.258 91.1393V85.2864H274.586V91.1393H273.258ZM270.996 88.8768V87.5489H276.849V88.8768H270.996ZM278.398 92.5264V91.393L281.404 88.4454C281.692 88.155 281.932 87.8971 282.123 87.6715C282.315 87.446 282.459 87.2275 282.555 87.016C282.65 86.8046 282.698 86.579 282.698 86.3394C282.698 86.0659 282.636 85.8319 282.512 85.6374C282.388 85.44 282.218 85.2878 282.001 85.1807C281.784 85.0735 281.537 85.02 281.261 85.02C280.976 85.02 280.726 85.0792 280.512 85.1976C280.298 85.3132 280.131 85.4781 280.013 85.6924C279.897 85.9066 279.84 86.1618 279.84 86.4578H278.347C278.347 85.908 278.472 85.4302 278.723 85.0242C278.974 84.6182 279.319 84.3039 279.759 84.0811C280.202 83.8584 280.709 83.7471 281.282 83.7471C281.862 83.7471 282.373 83.8556 282.813 84.0727C283.252 84.2898 283.594 84.5872 283.836 84.965C284.081 85.3428 284.204 85.7741 284.204 86.2591C284.204 86.5833 284.142 86.9019 284.018 87.2148C283.894 87.5277 283.675 87.8745 283.362 88.2551C283.052 88.6357 282.617 89.0967 282.056 89.638L280.563 91.1562V91.2154H284.335V92.5264H278.398ZM288.995 92.6913C288.299 92.6913 287.701 92.5151 287.202 92.1627C286.706 91.8074 286.324 91.2957 286.056 90.6276C285.791 89.9566 285.659 89.1488 285.659 88.2044C285.661 87.2599 285.795 86.4564 286.06 85.7939C286.328 85.1285 286.71 84.621 287.206 84.2714C287.705 83.9218 288.302 83.7471 288.995 83.7471C289.689 83.7471 290.285 83.9218 290.784 84.2714C291.283 84.621 291.665 85.1285 291.93 85.7939C292.198 86.4592 292.332 87.2627 292.332 88.2044C292.332 89.1517 292.198 89.9608 291.93 90.6318C291.665 91.3 291.283 91.8103 290.784 92.1627C290.288 92.5151 289.692 92.6913 288.995 92.6913ZM288.995 91.3676C289.537 91.3676 289.964 91.1012 290.277 90.5684C290.592 90.0327 290.75 89.2447 290.75 88.2044C290.75 87.5165 290.678 86.9385 290.535 86.4705C290.391 86.0025 290.188 85.6501 289.926 85.4133C289.663 85.1736 289.353 85.0538 288.995 85.0538C288.457 85.0538 288.031 85.3216 287.718 85.8573C287.405 86.3901 287.247 87.1725 287.245 88.2044C287.242 88.8951 287.311 89.4759 287.452 89.9467C287.596 90.4175 287.799 90.7728 288.061 91.0124C288.323 91.2492 288.634 91.3676 288.995 91.3676ZM298.368 90.9024V90.4457C298.368 90.1102 298.438 89.8015 298.579 89.5196C298.723 89.2376 298.932 89.0107 299.205 88.8387C299.479 88.6667 299.81 88.5807 300.199 88.5807C300.599 88.5807 300.935 88.6667 301.205 88.8387C301.476 89.0079 301.68 89.2334 301.819 89.5153C301.96 89.7973 302.03 90.1074 302.03 90.4457V90.9024C302.03 91.2379 301.96 91.5467 301.819 91.8286C301.678 92.1105 301.47 92.3375 301.197 92.5095C300.926 92.6814 300.594 92.7674 300.199 92.7674C299.804 92.7674 299.47 92.6814 299.197 92.5095C298.923 92.3375 298.716 92.1105 298.575 91.8286C298.437 91.5467 298.368 91.2379 298.368 90.9024ZM299.472 90.4457V90.9024C299.472 91.1252 299.525 91.3296 299.632 91.5156C299.739 91.7017 299.928 91.7948 300.199 91.7948C300.472 91.7948 300.66 91.7031 300.761 91.5199C300.866 91.3338 300.918 91.128 300.918 90.9024V90.4457C300.918 90.2202 300.868 90.0144 300.77 89.8283C300.671 89.6394 300.481 89.545 300.199 89.545C299.934 89.545 299.746 89.6394 299.636 89.8283C299.526 90.0144 299.472 90.2202 299.472 90.4457ZM293.965 85.9461V85.4894C293.965 85.1511 294.037 84.8409 294.181 84.559C294.325 84.2771 294.533 84.0515 294.807 83.8824C295.08 83.7104 295.412 83.6244 295.801 83.6244C296.198 83.6244 296.532 83.7104 296.803 83.8824C297.077 84.0515 297.282 84.2771 297.42 84.559C297.559 84.8409 297.628 85.1511 297.628 85.4894V85.9461C297.628 86.2844 297.557 86.5945 297.416 86.8765C297.278 87.1556 297.072 87.3797 296.799 87.5489C296.525 87.718 296.193 87.8026 295.801 87.8026C295.403 87.8026 295.068 87.718 294.794 87.5489C294.524 87.3797 294.318 87.1542 294.177 86.8723C294.036 86.5903 293.965 86.2816 293.965 85.9461ZM295.078 85.4894V85.9461C295.078 86.1717 295.13 86.3775 295.234 86.5635C295.341 86.7468 295.53 86.8384 295.801 86.8384C296.071 86.8384 296.257 86.7468 296.359 86.5635C296.463 86.3775 296.515 86.1717 296.515 85.9461V85.4894C296.515 85.2638 296.466 85.058 296.367 84.872C296.269 84.6831 296.08 84.5886 295.801 84.5886C295.533 84.5886 295.345 84.6831 295.238 84.872C295.131 85.0608 295.078 85.2667 295.078 85.4894ZM294.447 92.5264L300.402 83.8655H301.459L295.505 92.5264H294.447Z" fill="#00AE31"/>
<path d="M101.234 74.1053L98.3476 79.1053L104.121 79.1053L101.234 74.1053ZM101.234 243.447H100.734L100.734 243.947H101.234V243.447ZM290.675 243.447L285.675 240.561V246.334L290.675 243.447ZM100.734 78.6053L100.734 243.447H101.734L101.734 78.6053L100.734 78.6053ZM101.234 243.947H286.175V242.947H101.234V243.947Z" fill="#BFBEC4"/>
<path d="M151.995 182.515C132.913 190.799 118.336 223.42 118.336 223.42V243.02H260.31V124.994C260.31 124.994 260.31 150.133 243.048 149.707C225.787 149.281 219.628 176.298 199.032 182.515C181.466 187.818 168.811 175.216 151.995 182.515Z" fill="url(#paint0_linear_2_58)"/>
<path d="M118.336 223.776C118.336 223.776 132.781 191.037 151.691 182.724C168.355 175.398 180.895 188.046 198.303 182.724C218.713 176.484 224.816 149.369 241.921 149.796C259.027 150.224 259.027 124.994 259.027 124.994" stroke="#00AF31" stroke-width="4" stroke-linecap="round"/>
<path d="M111.176 260.318C111.176 261.678 111.996 262.578 113.386 262.578C114.706 262.578 115.516 261.548 115.516 260.308V255.338H114.536V260.378C114.536 261.198 114.096 261.668 113.376 261.668C112.666 261.668 112.156 261.248 112.156 260.308V259.638L111.176 259.858V260.318ZM116.726 261.138C116.726 261.898 117.356 262.578 118.336 262.578C119.196 262.578 119.676 262.118 119.886 261.778C119.886 262.128 119.916 262.308 119.936 262.428H120.856C120.836 262.308 120.796 262.058 120.796 261.638V259.228C120.796 258.288 120.236 257.468 118.796 257.468C117.756 257.468 116.926 258.108 116.826 259.028L117.726 259.238C117.786 258.678 118.156 258.268 118.816 258.268C119.546 258.268 119.856 258.658 119.856 259.128C119.856 259.298 119.776 259.448 119.486 259.488L118.186 259.678C117.356 259.798 116.726 260.278 116.726 261.138ZM118.466 261.788C117.986 261.788 117.686 261.448 117.686 261.088C117.686 260.658 117.986 260.428 118.386 260.368L119.856 260.148V260.368C119.856 261.418 119.236 261.788 118.466 261.788ZM115.11 273.648C115.11 272.918 115.49 272.328 116.23 272.328C117.07 272.328 117.35 272.868 117.35 273.538V276.428H118.29V273.378C118.29 272.308 117.72 271.478 116.57 271.478C116.01 271.478 115.44 271.708 115.09 272.308V271.618H114.17V276.428H115.11V273.648Z" fill="#BFBEC4"/>
<path d="M138.331 262.428V259.448H141.351V258.528H138.331V256.248H141.661V255.338H137.351V262.428H138.331ZM143.29 259.528C143.33 258.908 143.81 258.298 144.6 258.298C145.45 258.298 145.9 258.838 145.92 259.528H143.29ZM146.06 260.778C145.88 261.318 145.49 261.748 144.71 261.748C143.9 261.748 143.28 261.148 143.26 260.288H146.88C146.89 260.228 146.9 260.108 146.9 259.988C146.9 258.488 146.07 257.468 144.59 257.468C143.38 257.468 142.29 258.498 142.29 260.008C142.29 261.638 143.42 262.578 144.71 262.578C145.83 262.578 146.6 261.908 146.87 261.058L146.06 260.778ZM140.581 276.428V275.728C140.881 276.248 141.431 276.558 142.141 276.558C143.571 276.558 144.381 275.428 144.381 273.998C144.381 272.598 143.631 271.478 142.171 271.478C141.371 271.478 140.811 271.868 140.581 272.298V269.188H139.651V276.428H140.581ZM143.421 273.998C143.421 275.038 142.861 275.718 142.001 275.718C141.171 275.718 140.571 275.038 140.571 273.998C140.571 272.958 141.171 272.308 142.001 272.308C142.871 272.308 143.421 272.958 143.421 273.998Z" fill="#BFBEC4"/>
<path d="M168.776 262.428V255.338H167.466L164.946 261.108L162.446 255.338H161.116V262.428H162.086V256.908L164.486 262.428H165.386L167.806 256.908V262.428H168.776ZM170.079 261.138C170.079 261.898 170.709 262.578 171.689 262.578C172.549 262.578 173.029 262.118 173.239 261.778C173.239 262.128 173.269 262.308 173.289 262.428H174.209C174.189 262.308 174.149 262.058 174.149 261.638V259.228C174.149 258.288 173.589 257.468 172.149 257.468C171.109 257.468 170.279 258.108 170.179 259.028L171.079 259.238C171.139 258.678 171.509 258.268 172.169 258.268C172.899 258.268 173.209 258.658 173.209 259.128C173.209 259.298 173.129 259.448 172.839 259.488L171.539 259.678C170.709 259.798 170.079 260.278 170.079 261.138ZM171.819 261.788C171.339 261.788 171.039 261.448 171.039 261.088C171.039 260.658 171.339 260.428 171.739 260.368L173.209 260.148V260.368C173.209 261.418 172.589 261.788 171.819 261.788ZM169.133 271.568C169.083 271.558 168.953 271.538 168.823 271.538C168.333 271.538 167.733 271.718 167.383 272.458V271.618H166.463V276.428H167.403V274.018C167.403 272.958 167.933 272.538 168.723 272.538C168.853 272.538 168.993 272.548 169.133 272.568V271.568Z" fill="#BFBEC4"/>
<path d="M192.533 262.428H193.593L190.773 255.338H189.643L186.823 262.428H187.873L188.623 260.448H191.763L192.533 262.428ZM190.183 256.358L191.413 259.538H188.973L190.183 256.358ZM195.452 264.328V261.778C195.712 262.208 196.272 262.558 197.012 262.558C198.422 262.558 199.252 261.448 199.252 260.018C199.252 258.618 198.482 257.508 197.042 257.508C196.262 257.508 195.692 257.888 195.432 258.368V257.618H194.522V264.328H195.452ZM198.292 260.018C198.292 261.008 197.742 261.718 196.872 261.718C196.012 261.718 195.442 261.008 195.442 260.018C195.442 259.058 196.012 258.338 196.872 258.338C197.752 258.338 198.292 259.058 198.292 260.018ZM194.79 271.568C194.74 271.558 194.61 271.538 194.48 271.538C193.99 271.538 193.39 271.718 193.04 272.458V271.618H192.12V276.428H193.06V274.018C193.06 272.958 193.59 272.538 194.38 272.538C194.51 272.538 194.65 272.548 194.79 272.568V271.568Z" fill="#BFBEC4"/>
<path d="M219.738 262.428V255.338H218.428L215.908 261.108L213.408 255.338H212.078V262.428H213.048V256.908L215.448 262.428H216.348L218.768 256.908V262.428H219.738ZM221.04 261.138C221.04 261.898 221.67 262.578 222.65 262.578C223.51 262.578 223.99 262.118 224.2 261.778C224.2 262.128 224.23 262.308 224.25 262.428H225.17C225.15 262.308 225.11 262.058 225.11 261.638V259.228C225.11 258.288 224.55 257.468 223.11 257.468C222.07 257.468 221.24 258.108 221.14 259.028L222.04 259.238C222.1 258.678 222.47 258.268 223.13 258.268C223.86 258.268 224.17 258.658 224.17 259.128C224.17 259.298 224.09 259.448 223.8 259.488L222.5 259.678C221.67 259.798 221.04 260.278 221.04 261.138ZM222.78 261.788C222.3 261.788 222 261.448 222 261.088C222 260.658 222.3 260.428 222.7 260.368L224.17 260.148V260.368C224.17 261.418 223.55 261.788 222.78 261.788ZM217.818 278.438L220.948 271.618H219.938L218.498 274.938L216.998 271.618H215.918L217.988 275.898L216.788 278.438H217.818Z" fill="#BFBEC4"/>
<path d="M239.284 260.318C239.284 261.678 240.104 262.578 241.494 262.578C242.814 262.578 243.624 261.548 243.624 260.308V255.338H242.644V260.378C242.644 261.198 242.204 261.668 241.484 261.668C240.774 261.668 240.264 261.248 240.264 260.308V259.638L239.284 259.858V260.318ZM248.335 261.848C248.335 262.048 248.355 262.318 248.375 262.428H249.275C249.255 262.258 249.225 261.918 249.225 261.538V257.618H248.285V260.518C248.285 261.248 247.905 261.748 247.145 261.748C246.355 261.748 246.055 261.168 246.055 260.508V257.618H245.115V260.648C245.115 261.738 245.795 262.578 246.915 262.578C247.475 262.578 248.075 262.348 248.335 261.848ZM243.399 273.648C243.399 272.918 243.779 272.328 244.519 272.328C245.359 272.328 245.639 272.868 245.639 273.538V276.428H246.579V273.378C246.579 272.308 246.009 271.478 244.859 271.478C244.299 271.478 243.729 271.708 243.379 272.308V271.618H242.459V276.428H243.399V273.648Z" fill="#BFBEC4"/>
<path d="M263.714 260.318C263.714 261.678 264.534 262.578 265.924 262.578C267.244 262.578 268.054 261.548 268.054 260.308V255.338H267.074V260.378C267.074 261.198 266.634 261.668 265.914 261.668C265.204 261.668 264.694 261.248 264.694 260.308V259.638L263.714 259.858V260.318ZM272.764 261.848C272.764 262.048 272.784 262.318 272.804 262.428H273.704C273.684 262.258 273.654 261.918 273.654 261.538V257.618H272.714V260.518C272.714 261.248 272.334 261.748 271.574 261.748C270.784 261.748 270.484 261.168 270.484 260.508V257.618H269.544V260.648C269.544 261.738 270.224 262.578 271.344 262.578C271.904 262.578 272.504 262.348 272.764 261.848ZM276.12 262.428V255.188H275.18V262.428H276.12ZM269.562 278.438L272.692 271.618H271.682L270.242 274.938L268.742 271.618H267.662L269.732 275.898L268.532 278.438H269.562Z" fill="#BFBEC4"/>
<path d="M87.029 112.738C86.979 114.518 86.129 115.448 84.749 115.448C84.159 115.448 83.569 115.218 83.279 114.928L82.969 115.698C83.329 116.068 84.079 116.308 84.769 116.308C86.829 116.308 87.969 114.968 87.969 112.358C87.969 110.138 86.879 108.958 85.309 108.958C83.849 108.968 82.799 109.948 82.799 111.368C82.799 112.838 83.899 113.708 85.169 113.708C85.969 113.708 86.699 113.278 87.029 112.738ZM86.819 111.308C86.819 112.258 86.159 112.878 85.279 112.878C84.409 112.878 83.729 112.288 83.729 111.328C83.729 110.398 84.409 109.808 85.269 109.808C86.129 109.808 86.809 110.388 86.819 111.308ZM82.6737 126.638C82.6737 128.288 83.2337 130.308 85.4137 130.308C87.6037 130.308 88.1537 128.298 88.1537 126.638C88.1537 124.958 87.5837 122.958 85.4137 122.958C83.2437 122.958 82.6737 124.958 82.6737 126.638ZM87.1837 126.638C87.1837 128.058 86.8037 129.438 85.4137 129.438C84.0237 129.438 83.6537 128.058 83.6537 126.638C83.6537 125.208 84.0137 123.838 85.4137 123.838C86.8037 123.838 87.1837 125.218 87.1837 126.638Z" fill="#BFBEC4"/>
<path d="M83.1361 95.6513V88.5613H82.2761C82.1261 89.2613 81.5061 89.7613 80.6061 89.7813V90.4713H82.1761V95.6513H83.1361ZM84.4508 92.1113C84.4508 93.7613 85.0108 95.7813 87.1908 95.7813C89.3808 95.7813 89.9308 93.7713 89.9308 92.1113C89.9308 90.4313 89.3608 88.4313 87.1908 88.4313C85.0208 88.4313 84.4508 90.4313 84.4508 92.1113ZM88.9608 92.1113C88.9608 93.5313 88.5808 94.9113 87.1908 94.9113C85.8008 94.9113 85.4308 93.5313 85.4308 92.1113C85.4308 90.6813 85.7908 89.3113 87.1908 89.3113C88.5808 89.3113 88.9608 90.6913 88.9608 92.1113ZM82.6735 106.111C82.6735 107.761 83.2335 109.781 85.4135 109.781C87.6035 109.781 88.1535 107.771 88.1535 106.111C88.1535 104.431 87.5835 102.431 85.4135 102.431C83.2435 102.431 82.6735 104.431 82.6735 106.111ZM87.1835 106.111C87.1835 107.531 86.8035 108.911 85.4135 108.911C84.0235 108.911 83.6535 107.531 83.6535 106.111C83.6535 104.681 84.0135 103.311 85.4135 103.311C86.8035 103.311 87.1835 104.691 87.1835 106.111Z" fill="#BFBEC4"/>
<path d="M85.4127 133.464C86.4227 133.464 86.9527 134.044 86.9527 134.744C86.9527 135.434 86.3927 136.014 85.4127 136.014C84.4327 136.014 83.8727 135.434 83.8727 134.744C83.8727 134.044 84.4027 133.464 85.4127 133.464ZM85.4127 136.834C86.9427 136.834 87.9027 135.984 87.9027 134.834C87.9027 134.004 87.3427 133.304 86.4927 133.074C87.2727 132.844 87.7627 132.154 87.7627 131.424C87.7627 130.304 86.8127 129.484 85.4127 129.484C84.0127 129.484 83.0627 130.304 83.0627 131.424C83.0627 132.154 83.5527 132.844 84.3227 133.074C83.4827 133.304 82.9227 134.004 82.9227 134.834C82.9227 135.984 83.8827 136.834 85.4127 136.834ZM85.4127 132.694C84.5627 132.684 84.0227 132.174 84.0227 131.484C84.0227 130.824 84.5327 130.314 85.4127 130.314C86.2927 130.314 86.8027 130.824 86.8027 131.484C86.8027 132.174 86.2727 132.684 85.4127 132.694ZM82.6737 147.164C82.6737 148.814 83.2337 150.834 85.4137 150.834C87.6037 150.834 88.1537 148.824 88.1537 147.164C88.1537 145.484 87.5837 143.484 85.4137 143.484C83.2437 143.484 82.6737 145.484 82.6737 147.164ZM87.1837 147.164C87.1837 148.584 86.8037 149.964 85.4137 149.964C84.0237 149.964 83.6537 148.584 83.6537 147.164C83.6537 145.734 84.0137 144.364 85.4137 144.364C86.8037 144.364 87.1837 145.744 87.1837 147.164Z" fill="#BFBEC4"/>
<path d="M88.0564 150.14H82.8964V151.04H86.9064C86.1264 151.78 84.3364 153.74 84.0164 157.23H85.0264C85.3464 153.96 86.9064 152.05 88.0564 150.99V150.14ZM82.6737 167.69C82.6737 169.34 83.2337 171.36 85.4137 171.36C87.6037 171.36 88.1537 169.35 88.1537 167.69C88.1537 166.01 87.5837 164.01 85.4137 164.01C83.2437 164.01 82.6737 166.01 82.6737 167.69ZM87.1837 167.69C87.1837 169.11 86.8037 170.49 85.4137 170.49C84.0237 170.49 83.6537 169.11 83.6537 167.69C83.6537 166.26 84.0137 164.89 85.4137 164.89C86.8037 164.89 87.1837 166.27 87.1837 167.69Z" fill="#BFBEC4"/>
<path d="M83.7301 174.267C83.8401 172.637 84.7501 171.407 86.3901 171.407C86.9201 171.407 87.3501 171.557 87.6601 171.727L87.9401 170.907C87.6201 170.697 87.1001 170.537 86.4401 170.537C84.4001 170.537 82.8001 171.947 82.8001 174.637C82.8001 176.707 83.9701 177.887 85.5201 177.887C86.9401 177.887 88.0801 176.887 88.0801 175.467C88.0801 174.047 87.1101 173.087 85.7601 173.087C84.7401 173.087 84.0101 173.597 83.7301 174.267ZM83.9201 175.487C83.9201 174.567 84.6401 173.917 85.5301 173.917C86.4201 173.917 87.1201 174.517 87.1201 175.487C87.1201 176.427 86.3901 177.047 85.5101 177.047C84.6601 177.047 83.9201 176.417 83.9201 175.487ZM82.6737 188.217C82.6737 189.867 83.2337 191.887 85.4137 191.887C87.6037 191.887 88.1537 189.877 88.1537 188.217C88.1537 186.537 87.5837 184.537 85.4137 184.537C83.2437 184.537 82.6737 186.537 82.6737 188.217ZM87.1837 188.217C87.1837 189.637 86.8037 191.017 85.4137 191.017C84.0237 191.017 83.6537 189.637 83.6537 188.217C83.6537 186.787 84.0137 185.417 85.4137 185.417C86.8037 185.417 87.1837 186.797 87.1837 188.217Z" fill="#BFBEC4"/>
<path d="M82.8603 196.313C82.9603 197.453 83.9403 198.413 85.3603 198.413C86.9303 198.413 87.9003 197.333 87.9003 196.023C87.9003 194.573 86.9603 193.673 85.5503 193.673C85.0303 193.673 84.3903 193.863 84.0403 194.263L84.5003 192.093H87.5703V191.193H83.8303L83.0603 194.823L83.9503 195.153C84.2603 194.753 84.7603 194.483 85.3603 194.483C86.2603 194.483 86.9303 195.053 86.9303 196.033C86.9303 196.923 86.2903 197.553 85.3603 197.553C84.4403 197.553 83.8303 196.903 83.7503 196.093L82.8603 196.313ZM82.6737 208.743C82.6737 210.393 83.2337 212.413 85.4137 212.413C87.6037 212.413 88.1537 210.403 88.1537 208.743C88.1537 207.063 87.5837 205.063 85.4137 205.063C83.2437 205.063 82.6737 207.063 82.6737 208.743ZM87.1837 208.743C87.1837 210.163 86.8037 211.543 85.4137 211.543C84.0237 211.543 83.6537 210.163 83.6537 208.743C83.6537 207.313 84.0137 205.943 85.4137 205.943C86.8037 205.943 87.1837 207.323 87.1837 208.743Z" fill="#BFBEC4"/>
<path d="M82.6192 217.219H86.0192V218.809H86.9792V217.219H88.1992V216.309H86.9792V211.719H85.7392L82.6192 216.109V217.219ZM86.0192 216.309H83.5392L86.0192 212.789V216.309ZM82.6737 229.269C82.6737 230.919 83.2337 232.939 85.4137 232.939C87.6037 232.939 88.1537 230.929 88.1537 229.269C88.1537 227.589 87.5837 225.589 85.4137 225.589C83.2437 225.589 82.6737 227.589 82.6737 229.269ZM87.1837 229.269C87.1837 230.689 86.8037 232.069 85.4137 232.069C84.0237 232.069 83.6537 230.689 83.6537 229.269C83.6537 227.839 84.0137 226.469 85.4137 226.469C86.8037 226.469 87.1837 227.849 87.1837 229.269Z" fill="#BFBEC4"/>
<path d="M85.8376 235.055C85.7876 235.055 85.6776 235.065 85.6076 235.095L87.7376 233.055V232.245H83.0176V233.145H86.4976L84.3576 235.205L84.7876 235.915C84.9776 235.835 85.2276 235.775 85.4476 235.775C86.3176 235.775 86.9576 236.295 86.9576 237.185C86.9576 238.015 86.3176 238.605 85.3876 238.605C84.4976 238.605 83.7976 237.985 83.7576 237.045L82.8276 237.255C82.9076 238.495 83.8776 239.465 85.3976 239.465C86.9176 239.465 87.9276 238.435 87.9276 237.205C87.9276 235.895 86.9576 235.085 85.8376 235.055ZM82.6737 249.795C82.6737 251.445 83.2337 253.465 85.4137 253.465C87.6037 253.465 88.1537 251.455 88.1537 249.795C88.1537 248.115 87.5837 246.115 85.4137 246.115C83.2437 246.115 82.6737 248.115 82.6737 249.795ZM87.1837 249.795C87.1837 251.215 86.8037 252.595 85.4137 252.595C84.0237 252.595 83.6537 251.215 83.6537 249.795C83.6537 248.365 84.0137 246.995 85.4137 246.995C86.8037 246.995 87.1837 248.375 87.1837 249.795Z" fill="#BFBEC4"/>
<defs>
<filter id="filter0_d_2_58" x="0.409061" y="0.869999" width="381.26" height="346.194" filterUnits="userSpaceOnUse" color-interpolation-filters="sRGB">
<feFlood flood-opacity="0" result="BackgroundImageFix"/>
<feColorMatrix in="SourceAlpha" type="matrix" values="0 0 0 0 0 0 0 0 0 0 0 0 0 0 0 0 0 0 127 0" result="hardAlpha"/>
<feOffset dy="4.5"/>
<feGaussianBlur stdDeviation="30.315"/>
<feComposite in2="hardAlpha" operator="out"/>
<feColorMatrix type="matrix" values="0 0 0 0 0 0 0 0 0 0 0 0 0 0 0 0 0 0 0.15 0"/>
<feBlend mode="normal" in2="BackgroundImageFix" result="effect1_dropShadow_2_58"/>
<feBlend mode="normal" in="SourceGraphic" in2="effect1_dropShadow_2_58" result="shape"/>
</filter>
<linearGradient id="paint0_linear_2_58" x1="189.323" y1="124.994" x2="189.323" y2="243.446" gradientUnits="userSpaceOnUse">
<stop stop-color="#00AF31" stop-opacity="0.25"/>
<stop offset="1" stop-color="#00AF31" stop-opacity="0"/>
</linearGradient>
</defs>
</svg>
