<svg width="30" height="28" viewBox="0 0 30 28" fill="none" xmlns="http://www.w3.org/2000/svg">
<path d="M12.8994 1.47428C13.6162 -0.0691807 15.8104 -0.0691783 16.5272 1.47429L19.2896 7.42243C19.581 8.04993 20.176 8.48225 20.8629 8.56549L27.3735 9.35457C29.0629 9.55932 29.741 11.6462 28.4946 12.8049L23.6912 17.2701C23.1844 17.7412 22.9572 18.4407 23.0902 19.1196L24.3517 25.5554C24.679 27.2255 22.9038 28.5152 21.4167 27.6879L15.6856 24.4994C15.081 24.163 14.3455 24.163 13.7409 24.4994L8.00992 27.6879C6.5228 28.5152 4.74759 27.2255 5.07492 25.5554L6.33636 19.1196C6.46944 18.4407 6.24215 17.7412 5.73541 17.2701L0.932006 12.8049C-0.314415 11.6462 0.363658 9.55932 2.05308 9.35457L8.56371 8.56549C9.25056 8.48225 9.84559 8.04993 10.137 7.42242L12.8994 1.47428Z" fill="#F8D269"/>
</svg>
