<svg width="22" height="99" viewBox="0 0 22 99" fill="none" xmlns="http://www.w3.org/2000/svg">
<path d="M18.4873 5.89288H15.0637V5.17964C15.0614 4.61287 14.8443 4.06998 14.4596 3.66921C14.0748 3.26845 13.5537 3.04226 13.0096 3.03991H8.90127C8.35717 3.04226 7.836 3.26845 7.45126 3.66921C7.06653 4.06998 6.84938 4.61287 6.84713 5.17964V5.89288H3.42356C3.06037 5.89288 2.71205 6.04317 2.45523 6.31069C2.19842 6.57821 2.05414 6.94104 2.05414 7.31937V18.7313C2.05414 19.1096 2.19842 19.4724 2.45523 19.7399C2.71205 20.0075 3.06037 20.1577 3.42356 20.1577H18.4873C18.8505 20.1577 19.1988 20.0075 19.4556 19.7399C19.7124 19.4724 19.8567 19.1096 19.8567 18.7313V7.31937C19.8567 6.94104 19.7124 6.57821 19.4556 6.31069C19.1988 6.04317 18.8505 5.89288 18.4873 5.89288ZM8.21656 5.17964C8.21656 4.99048 8.2887 4.80906 8.41711 4.6753C8.54552 4.54154 8.71967 4.4664 8.90127 4.4664H13.0096C13.1911 4.4664 13.3653 4.54154 13.4937 4.6753C13.6221 4.80906 13.6943 4.99048 13.6943 5.17964V5.89288H8.21656V5.17964ZM18.4873 7.31937V11.0282C16.1768 12.3404 13.587 13.0271 10.9554 13.0253C8.32387 13.0271 5.73405 12.3404 3.42356 11.0282V7.31937H18.4873ZM18.4873 18.7313H3.42356V12.633C5.76786 13.8306 8.34439 14.4528 10.9554 14.4518C13.5665 14.4537 16.1433 13.8315 18.4873 12.633V18.7313ZM9.24363 10.8856C9.24363 10.6964 9.31577 10.515 9.44418 10.3812C9.57259 10.2475 9.74674 10.1723 9.92834 10.1723H11.9825C12.1641 10.1723 12.3382 10.2475 12.4666 10.3812C12.5951 10.515 12.6672 10.6964 12.6672 10.8856C12.6672 11.0747 12.5951 11.2562 12.4666 11.3899C12.3382 11.5237 12.1641 11.5988 11.9825 11.5988H9.92834C9.74674 11.5988 9.57259 11.5237 9.44418 11.3899C9.31577 11.2562 9.24363 11.0747 9.24363 10.8856Z" fill="#747380"/>
<path d="M3.65181 53.8786V58.063C3.65181 58.2143 3.70952 58.3595 3.81225 58.4665C3.91497 58.5735 4.0543 58.6336 4.19958 58.6336H9.12952M17.3461 53.8786V58.063C17.3461 58.2143 17.2884 58.3595 17.1856 58.4665C17.0829 58.5735 16.9436 58.6336 16.7983 58.6336H12.7813M12.7813 45.3197H16.7983C16.9436 45.3197 17.0829 45.3798 17.1856 45.4868C17.2884 45.5938 17.3461 45.739 17.3461 45.8903V50.0747M3.65181 50.0747V45.8903C3.65181 45.739 3.70952 45.5938 3.81225 45.4868C3.91497 45.3798 4.0543 45.3197 4.19958 45.3197H9.12952M12.7813 58.6336V59.5846C12.7813 60.089 12.5889 60.5728 12.2465 60.9295C11.9041 61.2862 11.4397 61.4866 10.9554 61.4866C10.4712 61.4866 10.0067 61.2862 9.66431 60.9295C9.32189 60.5728 9.12952 60.089 9.12952 59.5846V58.6336M3.65181 50.0747H4.56476C5.04902 50.0747 5.51345 50.2751 5.85587 50.6317C6.19829 50.9884 6.39066 51.4722 6.39066 51.9766C6.39066 52.4811 6.19829 52.9649 5.85587 53.3215C5.51345 53.6782 5.04902 53.8786 4.56476 53.8786H3.65181M17.3461 50.0747H18.259C18.7433 50.0747 19.2077 50.2751 19.5501 50.6317C19.8926 50.9884 20.0849 51.4722 20.0849 51.9766C20.0849 52.4811 19.8926 52.9649 19.5501 53.3215C19.2077 53.6782 18.7433 53.8786 18.259 53.8786H17.3461M12.7813 45.3197V44.3687C12.7813 43.8643 12.5889 43.3805 12.2465 43.0238C11.9041 42.6671 11.4397 42.4667 10.9554 42.4667C10.4712 42.4667 10.0067 42.6671 9.66431 43.0238C9.32189 43.3805 9.12952 43.8643 9.12952 44.3687V45.3197" stroke="#747380" stroke-width="1.5" stroke-linecap="round" stroke-linejoin="round"/>
<path d="M15.7484 91.6309L10.9554 94.4393L6.16243 91.6309V88.6637L4.793 87.8712V92.4651L10.9554 96.0759L17.1178 92.4651V87.8712L15.7484 88.6637V91.6309Z" fill="#747380"/>
<path d="M10.9554 78.0495L1.36943 83.2272V84.4635L10.9554 90.0108L19.172 85.256V89.195H20.5414V83.2272L10.9554 78.0495ZM17.8026 84.4166L16.4331 85.2091L10.9554 88.3792L5.47771 85.2091L4.10828 84.4166L3.15914 83.8673L10.9554 79.6564L18.7517 83.8673L17.8026 84.4166Z" fill="#747380"/>
</svg>
