<svg width="36" height="26" viewBox="0 0 36 26" fill="none" xmlns="http://www.w3.org/2000/svg">
<path d="M35.6414 5.8002C35.6414 5.8002 35.2898 3.31816 34.207 2.22832C32.8359 0.793945 31.3031 0.786914 30.6 0.702539C25.5656 0.336914 18.007 0.336914 18.007 0.336914H17.993C17.993 0.336914 10.4344 0.336914 5.4 0.702539C4.69688 0.786914 3.16406 0.793945 1.79297 2.22832C0.710156 3.31816 0.365625 5.8002 0.365625 5.8002C0.365625 5.8002 0 8.71816 0 11.6291V14.3572C0 17.2682 0.358594 20.1861 0.358594 20.1861C0.358594 20.1861 0.710156 22.6682 1.78594 23.758C3.15703 25.1924 4.95703 25.1432 5.75859 25.2979C8.64141 25.5721 18 25.6564 18 25.6564C18 25.6564 25.5656 25.6424 30.6 25.2838C31.3031 25.1994 32.8359 25.1924 34.207 23.758C35.2898 22.6682 35.6414 20.1861 35.6414 20.1861C35.6414 20.1861 36 17.2752 36 14.3572V11.6291C36 8.71816 35.6414 5.8002 35.6414 5.8002ZM14.2805 17.6689V7.55098L24.0047 12.6275L14.2805 17.6689Z" fill="#595867"/>
</svg>
